SplineFontDB: 3.0
FontName: OxygenSans-Regular
FullName: OxygenSans Regular
FamilyName: OxygenSans
Weight: Normal
ItalicAngle: 0
UnderlinePosition: 0
UnderlineWidth: 0
Ascent: 1638
Descent: 410
UFOAscent: 1792
UFODescent: -502
LayerCount: 2
Layer: 0 0 "Back"  1
Layer: 1 0 "Fore"  0
OS2Version: 0
OS2_WeightWidthSlopeOnly: 0
OS2_UseTypoMetrics: 0
CreationTime: 1360803773
ModificationTime: 1360803862
PfmFamily: 0
TTFWeight: 367
TTFWidth: 5
LineGap: 0
VLineGap: 0
Panose: 0 0 0 0 0 0 0 0 0 0
OS2TypoAscent: 0
OS2TypoAOffset: 1
OS2TypoDescent: 0
OS2TypoDOffset: 1
OS2TypoLinegap: 0
OS2WinAscent: 1600
OS2WinAOffset: 0
OS2WinDescent: 448
OS2WinDOffset: 0
HheadAscent: 1600
HheadAOffset: 0
HheadDescent: -448
HheadDOffset: 0
OS2SubXSize: -394
OS2SubYSize: -364
OS2SubXOff: 0
OS2SubYOff: -45
OS2SupXSize: -394
OS2SupYSize: -364
OS2SupXOff: 0
OS2SupYOff: -212
OS2StrikeYSize: -15
OS2StrikeYPos: -180
OS2Vendor: 'PfEd'
Lookup: 258 0 0 "'kern' Horizontal Kerning in Latin lookup 0"  {"'kern' Horizontal Kerning in Latin lookup 0 subtable"  } ['kern' ('latn' <'dflt' > ) ]
DEI: 91125
Encoding: UnicodeBmp
Compacted: 1
UnicodeInterp: none
NameList: AGL For New Fonts
DisplaySize: -48
AntiAlias: 1
FitToEm: 1
WinInfo: 0 22 9
BeginPrivate: 7
BlueFuzz 1 0
BlueScale 19 0.01032713625866051
BlueShift 1 2
BlueValues 22 [-6 4 265 271 346 359]
OtherBlues 10 [-114 -43]
StemSnapH 27 [5 41 47 48 50 52 53 57 60]
StemSnapV 22 [50 60 64 64 66 67 75]
EndPrivate
BeginChars: 65547 317

StartChar: .notdef
Encoding: 65536 -1 0
Width: 903
VWidth: 0
Flags: HW
LayerCount: 2
UndoRedoHistory
Layer: 1
Undoes
EndUndoes
Redoes
EndRedoes
EndUndoRedoHistory
Fore
SplineSet
180.345160613 203.719976905 m 1
 723.902214991 203.719976905 l 1
 723.902214991 788.409458325 l 1
 180.345160613 788.409458325 l 1
 180.345160613 203.719976905 l 1
90.1725803065 112.808182868 m 1
 90.1725803065 879.321252362 l 1
 814.074795297 879.321252362 l 1
 814.074795297 112.808182868 l 1
 90.1725803065 112.808182868 l 1
EndSplineSet
EndChar

StartChar: A
Encoding: 65 65 1
Width: 1266
VWidth: 0
Flags: HW
LayerCount: 2
UndoRedoHistory
Layer: 1
Undoes
EndUndoes
Redoes
EndRedoes
EndUndoRedoHistory
Fore
SplineSet
634.847432046 1192.29758601 m 1
 409.201618981 546.868648961 l 1
 863.318217942 546.868648961 l 1
 634.847432046 1192.29758601 l 1
46.5215725383 0 m 1
 549.915625656 1349.30584716 l 1
 717.155338022 1349.30584716 l 1
 1220.0278186 0 l 1
 1063.73921373 0 l 1
 901.42392221 435.964518161 l 1
 371.256548014 435.964518161 l 1
 208.767032333 0 l 1
 46.5215725383 0 l 1
EndSplineSet
EndChar

StartChar: AE
Encoding: 198 198 2
Width: 1958
VWidth: 0
Flags: HW
LayerCount: 2
UndoRedoHistory
Layer: 1
Undoes
EndUndoes
Redoes
EndRedoes
EndUndoRedoHistory
Fore
SplineSet
102.0958692 0 m 1
 956.93286794 1442.96643397 l 1
 1802.1428459 1442.96643397 l 1
 1806.84083036 1309.5819599 l 1
 1134.34707642 1309.5819599 l 1
 1171.69606865 807.176411925 l 1
 1771.79576947 807.176411925 l 1
 1771.79576947 674.052724123 l 1
 1189.47842746 674.052724123 l 1
 1229.87056477 132.64526034 l 1
 1816.14093009 132.64526034 l 1
 1820.62127336 0 l 1
 1115.88589125 0 l 1
 1088.14667751 401.268449507 l 1
 449.907962419 401.268449507 l 1
 219.16300126 0 l 1
 102.0958692 0 l 1
520.253123032 535.782358807 m 1
 1066.9721814 535.782358807 l 1
 1006.01341067 1325.76603506 l 1
 520.253123032 535.782358807 l 1
EndSplineSet
EndChar

StartChar: Alpha
Encoding: 913 913 3
Width: 1388
VWidth: 0
Flags: HW
LayerCount: 2
UndoRedoHistory
Layer: 1
Undoes
EndUndoes
Redoes
EndRedoes
EndUndoRedoHistory
Fore
SplineSet
118.666334243 0 m 1
 610.887807054 1347.17449612 l 1
 769.172580307 1347.17449612 l 1
 1262.52540416 0 l 1
 1133.93478375 0 l 1
 970.713310938 444.139014277 l 1
 422.87056477 444.139014277 l 1
 254.821672265 0 l 1
 118.666334243 0 l 1
473.043145077 557.041229267 m 1
 924.019158094 557.041229267 l 1
 929.891638673 542.945360067 704.919457275 1154.76220344 688.442945623 1215.88780705 c 1
 674.444861432 1163.97984464 473.043145077 557.041229267 473.043145077 557.041229267 c 1
EndSplineSet
EndChar

StartChar: Alphatonos
Encoding: 902 902 4
Width: 463
VWidth: 0
Flags: HW
LayerCount: 2
UndoRedoHistory
Layer: 1
Undoes
EndUndoes
Redoes
EndRedoes
EndUndoRedoHistory
Fore
SplineSet
225.348992232 484.478427462 m 0
 146.523488348 484.478427462 106.219557002 543.303931346 106.219557002 602.607862692 c 0
 106.219557002 661.911794037 146.523488348 720.737297921 225.348992232 720.737297921 c 0
 305.174496116 720.737297921 344.956854923 661.911794037 344.956854923 602.607862692 c 0
 344.956854923 543.303931346 305.174496116 484.478427462 225.348992232 484.478427462 c 0
EndSplineSet
EndChar

StartChar: B
Encoding: 66 66 5
Width: 1295
VWidth: 0
Flags: HW
LayerCount: 2
UndoRedoHistory
Layer: 1
Undoes
EndUndoes
Redoes
EndRedoes
EndUndoRedoHistory
Fore
SplineSet
358.251207222 651.309678774 m 1
 358.251207222 121.380642452 l 1
 682.568549234 121.380642452 l 2
 923.140930086 121.380642452 1027.36048709 195.339413185 1027.36048709 383.909878228 c 0
 1027.36048709 587.264617888 899.268449507 651.309678774 629.998084191 651.309678774 c 2
 358.251207222 651.309678774 l 1
358.251207222 1229.48992232 m 1
 358.251207222 765.649091959 l 1
 681.786190426 765.649091959 l 2
 862.35473966 765.649091959 980.70756351 809.605946882 980.70756351 998.874396389 c 0
 980.70756351 1184.66250262 866.35282385 1229.48992232 627.12943523 1229.48992232 c 2
 358.251207222 1229.48992232 l 1
198.874396389 0 m 1
 198.874396389 1349.30584716 l 1
 627.12943523 1349.30584716 l 2
 971.913709847 1349.30584716 1132.08437434 1248.08629015 1132.08437434 1018.48034327 c 0
 1132.08437434 877.155753827 1082.77906643 774.296161377 912.285241093 711.9584184 c 1
 1084.06944249 664.707438703 1186.73729795 559.957583026 1186.73729792 380.433366576 c 0
 1186.73729792 147.784274617 1034.8293355 0 707.956854923 0 c 2
 198.874396389 0 l 1
EndSplineSet
EndChar

StartChar: Beta
Encoding: 914 914 6
Width: 1210
VWidth: 0
Flags: HW
LayerCount: 2
UndoRedoHistory
Layer: 1
Undoes
EndUndoes
Redoes
EndRedoes
EndUndoRedoHistory
Fore
SplineSet
141.654839387 0 m 1
 141.654839387 1347.17449612 l 1
 503.686489607 1347.17449612 l 2
 847.731550493 1347.17449612 1010.85906991 1248.08629015 1010.85906991 1018.48034327 c 0
 1010.85906991 955.960686542 1001.1236878 777.825503884 772.853322486 712.782358807 c 1
 973.511993491 681.262702079 1061.07671111 542.12943523 1061.07671111 380.433366576 c 0
 1061.07671111 147.784274617 918.778527189 0 591.906046609 0 c 2
 141.654839387 0 l 1
261.114108755 108.378726643 m 1
 567.25695465 108.378726643 l 2
 807.829335503 108.378726643 932.746876968 195.339413185 932.746876968 383.909878228 c 0
 932.746876968 587.264617888 789.131351039 649.092037581 519.860985723 649.092037581 c 2
 261.114108755 649.092037581 l 1
 261.114108755 108.378726643 l 1
261.114108755 761.213809574 m 1
 576.823588075 761.213809574 l 2
 758.131351039 761.213809574 879.441029813 809.605946882 879.441029813 998.874396389 c 0
 879.441029813 1184.66250262 742.174496116 1233.62127336 502.951107495 1233.62127336 c 2
 261.114108755 1233.62127336 l 1
 261.114108755 761.213809574 l 1
EndSplineSet
EndChar

StartChar: C
Encoding: 67 67 7
Width: 1229
VWidth: 0
Flags: HW
LayerCount: 2
UndoRedoHistory
Layer: 1
Undoes
EndUndoes
Redoes
EndRedoes
EndUndoRedoHistory
Fore
SplineSet
774.827419693 -18 m 0
 389.131351039 -18 132.176411925 257.437198194 132.176411925 679.956854923 c 0
 132.176411925 1077.03931346 361.25887046 1368.08820596 764.348992232 1368.08820596 c 0
 924.786190426 1368.08820596 1056.13326685 1324.65292358 1145.60786269 1261.78427462 c 1
 1089.95877073 1152.7526244 l 1
 1005.0469767 1206.27419693 888.307762965 1242.88205963 770.307762965 1240.5349832 c 1
 465.814009028 1237.1447617 291.553222759 997.74304535 291.553222759 673.956854923 c 0
 291.553222759 350.431450766 458.294352299 110.596367835 796.045060886 108.770863951 c 0
 912.786190426 107.988505144 996.394053118 140.641428721 1090.48034327 185.074795297 c 1
 1128.47842746 66.1294352299 l 1
 1082.83508293 31.480343271 944.960686542 -18 774.827419693 -18 c 0
EndSplineSet
EndChar

StartChar: Chi
Encoding: 935 935 8
Width: 1310
VWidth: 0
Flags: HW
LayerCount: 2
UndoRedoHistory
Layer: 1
Undoes
EndUndoes
Redoes
EndRedoes
EndUndoRedoHistory
Fore
SplineSet
128.446777241 0 m 1
 571.923288894 677.390221499 l 1
 119.050808314 1347.17449612 l 1
 267.686489607 1347.17449612 l 1
 639.868648961 807.211893764 l 1
 1011.91945727 1347.17449612 l 1
 1165.03548184 1347.17449612 l 1
 713.511993491 678.303931346 l 1
 1158.20614634 0 l 1
 1011.44102981 0 l 1
 644.131351039 549.395968927 l 1
 279.170664497 0 l 1
 128.446777241 0 l 1
EndSplineSet
EndChar

StartChar: D
Encoding: 68 68 9
Width: 1451
VWidth: 0
Flags: HW
LayerCount: 2
UndoRedoHistory
Layer: 1
Undoes
EndUndoes
Redoes
EndRedoes
EndUndoRedoHistory
Fore
SplineSet
358.251207222 1229.48992232 m 1
 358.251207222 121.380642452 l 1
 604.086290153 121.380642452 l 2
 975.399800546 121.380642452 1160.53306739 306.77469557 1160.53306739 673.956854923 c 0
 1160.53306739 1077.00957905 947.441029813 1229.48992232 578.825503884 1229.48992232 c 2
 358.251207222 1229.48992232 l 1
198.874396389 0 m 1
 198.874396389 1349.30584716 l 1
 587.045060886 1349.30584716 l 2
 1021.26078627 1349.30584716 1319.64909196 1149.219557 1319.64909196 678.217641193 c 0
 1319.64909196 231.347076422 1047.87056477 0 614.480343271 0 c 2
 198.874396389 0 l 1
EndSplineSet
EndChar

StartChar: Dcroat
Encoding: 272 272 10
Width: 1490
VWidth: 0
Flags: HW
LayerCount: 2
UndoRedoHistory
Layer: 1
Undoes
EndUndoes
Redoes
EndRedoes
EndUndoRedoHistory
Fore
SplineSet
384 141 m 1
 671 141 l 2
 1004 141 1202 316 1202 668 c 0
 1202 1097 953 1220 581 1220 c 2
 384 1220 l 1
 384 757 l 1
 604 757 l 1
 604 634 l 1
 384 634 l 1
 384 141 l 1
223 0 m 1
 223 634 l 1
 116 634 l 1
 116 757 l 1
 223 757 l 1
 223 1361 l 1
 561 1361 l 2
 1031 1361 1374 1197 1374 672 c 0
 1374 219 1084 0 654 0 c 2
 223 0 l 1
EndSplineSet
EndChar

StartChar: Delta
Encoding: 916 916 11
Width: 1416
VWidth: 0
Flags: HW
LayerCount: 2
UndoRedoHistory
Layer: 1
Undoes
EndUndoes
Redoes
EndRedoes
EndUndoRedoHistory
Fore
SplineSet
121.493753937 0 m 1
 630.19365421 1357.99808419 l 1
 782.925204703 1357.99808419 l 1
 1292.36431871 0 l 1
 121.493753937 0 l 1
321.919457275 130.819756456 m 1
 1095.24254671 130.819756456 l 1
 705.711395129 1201.22530443 l 1
 321.919457275 130.819756456 l 1
EndSplineSet
EndChar

StartChar: E
Encoding: 69 69 12
Width: 1148
VWidth: 0
Flags: HW
LayerCount: 2
UndoRedoHistory
Layer: 1
Undoes
EndUndoes
Redoes
EndRedoes
EndUndoRedoHistory
Fore
SplineSet
198.874396389 0 m 1
 198.874396389 1349.30584716 l 1
 1025.99808419 1349.30584716 l 1
 1020.17258031 1229.48992232 l 1
 358.251207222 1229.48992232 l 1
 358.251207222 756.951107495 l 1
 960.647176149 756.951107495 l 1
 960.647176149 637.135182658 l 1
 358.251207222 637.135182658 l 1
 358.251207222 121.380642452 l 1
 1028.60594688 121.380642452 l 1
 1017.51965673 0 l 1
 198.874396389 0 l 1
EndSplineSet
EndChar

StartChar: Eng
Encoding: 330 330 13
Width: 1305
VWidth: 0
Flags: HW
LayerCount: 2
UndoRedoHistory
Layer: 1
Undoes
EndUndoes
Redoes
EndRedoes
EndUndoRedoHistory
Fore
SplineSet
777.917541465 -296.12943523 m 0
 747.523488348 -296.12943523 700.131351039 -295.390221499 566.076711106 -282.519656729 c 1
 545.337497376 -168.140930086 l 1
 694.001915809 -176.315426202 700.778527189 -177.315426202 723.519656729 -177.315426202 c 0
 1003.01149486 -177.315426202 1022.61935755 -106.835082931 1022.61935755 159.697984464 c 2
 1022.61935755 923.876312198 l 2
 1022.61935755 1172.35857128 953.270365316 1254.05463993 741.219557002 1254.05463993 c 0
 516.206146336 1254.05463993 360.988505144 1125.61169431 272.378726643 997.003831619 c 1
 272.378726643 0 l 1
 150.701816082 0 l 1
 147.744961159 1365.65483939 l 1
 261.076711106 1365.65483939 l 1
 275.684573798 1161.73538211 l 1
 461.825503884 1356.8763122 622.998084191 1387.39405312 785.696068654 1387.39405312 c 0
 1020.7334663 1387.39405312 1143.55705438 1229.48417489 1143.55705438 927.962602351 c 2
 1143.55705438 151.87056477 l 2
 1143.55705438 -125.823588075 1102.69798446 -296.12943523 777.917541465 -296.12943523 c 0
EndSplineSet
EndChar

StartChar: Epsilon
Encoding: 917 917 14
Width: 1093
VWidth: 0
Flags: HW
LayerCount: 2
UndoRedoHistory
Layer: 1
Undoes
EndUndoes
Redoes
EndRedoes
EndUndoRedoHistory
Fore
SplineSet
138.348992232 0 m 1
 138.348992232 1347.17449612 l 1
 949.868648961 1347.17449612 l 1
 944.043145077 1226.22913605 l 1
 279.984673525 1226.22913605 l 1
 279.984673525 756.951107495 l 1
 885.996168381 756.951107495 l 1
 885.996168381 636.395968927 l 1
 279.984673525 636.395968927 l 1
 279.984673525 120.945360067 l 1
 947.302015536 120.945360067 l 1
 940.302015536 0 l 1
 138.348992232 0 l 1
EndSplineSet
EndChar

StartChar: Epsilontonos
Encoding: 904 904 15
Width: 463
VWidth: 0
Flags: HW
LayerCount: 2
UndoRedoHistory
Layer: 1
Undoes
EndUndoes
Redoes
EndRedoes
EndUndoRedoHistory
Fore
SplineSet
225.348992232 484.478427462 m 0
 146.523488348 484.478427462 106.219557002 543.303931346 106.219557002 602.607862692 c 0
 106.219557002 661.911794037 146.523488348 720.737297921 225.348992232 720.737297921 c 0
 305.174496116 720.737297921 344.956854923 661.911794037 344.956854923 602.607862692 c 0
 344.956854923 543.303931346 305.174496116 484.478427462 225.348992232 484.478427462 c 0
EndSplineSet
EndChar

StartChar: Eta
Encoding: 919 919 16
Width: 1314
VWidth: 0
Flags: HW
LayerCount: 2
UndoRedoHistory
Layer: 1
Undoes
EndUndoes
Redoes
EndRedoes
EndUndoRedoHistory
Fore
SplineSet
138.131351039 0 m 1
 138.131351039 1347.17449612 l 1
 279.027818602 1347.17449612 l 1
 279.027818602 759.647176149 l 1
 1024.09395339 759.647176149 l 1
 1024.09395339 1347.17449612 l 1
 1165.72963468 1347.17449612 l 1
 1165.72963468 0 l 1
 1024.09395339 0 l 1
 1024.09395339 641.572380852 l 1
 279.027818602 641.572380852 l 1
 279.027818602 0 l 1
 138.131351039 0 l 1
EndSplineSet
EndChar

StartChar: Etatonos
Encoding: 905 905 17
Width: 463
VWidth: 0
Flags: HW
LayerCount: 2
UndoRedoHistory
Layer: 1
Undoes
EndUndoes
Redoes
EndRedoes
EndUndoRedoHistory
Fore
SplineSet
225.348992232 484.478427462 m 0
 146.523488348 484.478427462 106.219557002 543.303931346 106.219557002 602.607862692 c 0
 106.219557002 661.911794037 146.523488348 720.737297921 225.348992232 720.737297921 c 0
 305.174496116 720.737297921 344.956854923 661.911794037 344.956854923 602.607862692 c 0
 344.956854923 543.303931346 305.174496116 484.478427462 225.348992232 484.478427462 c 0
EndSplineSet
EndChar

StartChar: Eth
Encoding: 208 208 18
Width: 1534
VWidth: 0
Flags: HW
LayerCount: 2
UndoRedoHistory
Layer: 1
Undoes
EndUndoes
Redoes
EndRedoes
EndUndoRedoHistory
Fore
SplineSet
389.176411925 125.251207222 m 1
 702.493753937 125.251207222 l 2
 1046.06421898 125.251207222 1253.93861537 303.253123032 1253.93861537 667.521572538 c 0
 1253.93861537 1112.96643397 986.146677514 1239.22913605 609.666334243 1239.22913605 c 2
 389.176411925 1239.22913605 l 1
 389.176411925 753.519656729 l 1
 622.574296662 753.519656729 l 1
 622.574296662 643.962602351 l 1
 389.176411925 643.962602351 l 1
 389.176411925 125.251207222 l 1
256.364318707 -0.478427461684 m 1
 256.364318707 645.137098467 l 1
 150.538814823 645.137098467 l 1
 150.538814823 754.694152845 l 1
 256.364318707 754.694152845 l 1
 256.364318707 1365.87248058 l 1
 588.970265589 1365.87248058 l 2
 1055.9252047 1365.87248058 1399.62127336 1204.39596893 1399.62127336 673.174496116 c 0
 1399.62127336 216.694152845 1113.3624029 -0.478427461684 685.015326475 -0.478427461684 c 2
 256.364318707 -0.478427461684 l 1
EndSplineSet
EndChar

StartChar: F
Encoding: 70 70 19
Width: 1039
VWidth: 0
Flags: HW
LayerCount: 2
UndoRedoHistory
Layer: 1
Undoes
EndUndoes
Redoes
EndRedoes
EndUndoRedoHistory
Fore
SplineSet
198.874396389 0 m 1
 198.874396389 1349.30584716 l 1
 980.511993491 1349.30584716 l 1
 970.729634684 1226.88205963 l 1
 361.208062146 1226.88205963 l 1
 361.208062146 733.213809574 l 1
 925.078626916 733.213809574 l 1
 925.078626916 617.35473966 l 1
 361.208062146 617.35473966 l 1
 361.208062146 0 l 1
 198.874396389 0 l 1
EndSplineSet
EndChar

StartChar: G
Encoding: 71 71 20
Width: 1392
VWidth: 0
Flags: HW
LayerCount: 2
UndoRedoHistory
Layer: 1
Undoes
EndUndoes
Redoes
EndRedoes
EndUndoRedoHistory
Fore
SplineSet
775.219557002 -18 m 0
 351.564717615 -18 132.176411925 276.090121772 132.176411925 672 c 0
 132.176411925 1071.73538211 362.217641193 1368.08820596 790.131351039 1368.08820596 c 0
 946.739213731 1368.08820596 1101.82741969 1336.95877073 1207.65100777 1261.87056477 c 1
 1163.00383162 1141.79385366 l 1
 1102.22530443 1176.48800651 998.96643397 1240.79576947 789.217641193 1242.09970082 c 0
 468.080542725 1244.70756351 291.553222759 997.264617888 291.553222759 672.217641193 c 0
 291.553222759 331.255038841 438.078626916 108.770863951 805.439114004 108.770863951 c 0
 928.786539046 108.770863951 1029.32836729 129.45517575 1093.96834978 149.313510548 c 1
 1093.96834978 561.874396389 l 1
 788.009579047 561.874396389 l 1
 794.662502624 689.300099727 l 1
 1242.65292358 689.300099727 l 1
 1242.65292358 65.7372979215 l 1
 1105.00191581 12.5647176149 959.697984464 -18 775.219557002 -18 c 0
EndSplineSet
EndChar

StartChar: Gamma
Encoding: 915 915 21
Width: 1005
VWidth: 0
Flags: HW
LayerCount: 2
UndoRedoHistory
Layer: 1
Undoes
EndUndoes
Redoes
EndRedoes
EndUndoRedoHistory
Fore
SplineSet
136 0 m 1
 136 1361 l 1
 930 1361 l 1
 916 1220 l 1
 298 1220 l 1
 298 0 l 1
 136 0 l 1
EndSplineSet
EndChar

StartChar: H
Encoding: 72 72 22
Width: 1432
VWidth: 0
Flags: HW
LayerCount: 2
UndoRedoHistory
Layer: 1
Undoes
EndUndoes
Redoes
EndRedoes
EndUndoRedoHistory
Fore
SplineSet
195.917541465 0 m 1
 195.917541465 1349.30584716 l 1
 355.294352299 1349.30584716 l 1
 355.294352299 750.864817342 l 1
 1076.79002204 750.864817342 l 1
 1076.79002204 1349.30584716 l 1
 1236.16683288 1349.30584716 l 1
 1236.16683288 0 l 1
 1076.79002204 0 l 1
 1076.79002204 634.919457275 l 1
 355.294352299 634.919457275 l 1
 355.294352299 0 l 1
 195.917541465 0 l 1
EndSplineSet
EndChar

StartChar: Hbar
Encoding: 294 294 23
Width: 1501
VWidth: 0
Flags: HW
LayerCount: 2
UndoRedoHistory
Layer: 1
Undoes
EndUndoes
Redoes
EndRedoes
EndUndoRedoHistory
Fore
SplineSet
221.621273357 0 m 1
 221.621273357 1037.69223704 l 1
 137.011494856 1037.69223704 l 1
 137.011494856 1122.94727588 l 1
 221.621273357 1122.94727588 l 1
 221.621273357 1366.78619043 l 1
 353.694152845 1366.78619043 l 1
 353.694152845 1122.94727588 l 1
 1140.88972286 1122.94727588 l 1
 1140.88972286 1366.78619043 l 1
 1273.22338862 1366.78619043 l 1
 1273.22338862 1122.94727588 l 1
 1357.09395339 1122.94727588 l 1
 1357.09395339 1037.69223704 l 1
 1273.22338862 1037.69223704 l 1
 1273.22338862 0 l 1
 1140.88972286 0 l 1
 1140.88972286 641.570465043 l 1
 353.694152845 641.570465043 l 1
 353.694152845 0 l 1
 221.621273357 0 l 1
353.694152845 768.041229267 m 1
 1140.88972286 768.041229267 l 1
 1140.88972286 1037.69223704 l 1
 353.694152845 1037.69223704 l 1
 353.694152845 768.041229267 l 1
EndSplineSet
EndChar

StartChar: I
Encoding: 73 73 24
Width: 561
VWidth: 0
Flags: HW
LayerCount: 2
UndoRedoHistory
Layer: 1
Undoes
EndUndoes
Redoes
EndRedoes
EndUndoRedoHistory
Fore
SplineSet
201.395968927 0 m 1
 201.395968927 1349.30584716 l 1
 360.772779761 1349.30584716 l 1
 360.772779761 0 l 1
 201.395968927 0 l 1
EndSplineSet
EndChar

StartChar: IJ
Encoding: 306 306 25
Width: 1115
VWidth: 0
Flags: HW
LayerCount: 2
UndoRedoHistory
Layer: 1
Undoes
EndUndoes
Redoes
EndRedoes
EndUndoRedoHistory
Fore
SplineSet
622.090121772 -176.943444258 m 0
 614.266533697 -176.943444258 588.180243544 -94.6299338652 580.0958692 -92.8044299811 c 0
 558.658671006 -89.8475750577 619.101616628 -33.6040310729 606.534983204 -33.6040310729 c 1
 758.634684023 -35.429534957 765.630852404 50.5368990132 771.628936595 145.156256561 c 1
 806.052724123 145.156256561 813.093953391 991.722811253 813.093953391 1030.05839282 c 1
 879.623189166 1347.17449612 l 1
 954.729634684 548.084453076 l 1
 954.729634684 349.97517321 967.296268108 -58.5445622507 728.530233046 -58.5445622507 c 1
 744.792935125 -135.998084191 687.496667017 -173.247375604 622.090121772 -176.943444258 c 0
138.131351039 0 m 1
 138.131351039 1347.17449612 l 1
 279.027818602 1347.17449612 l 1
 279.027818602 0 l 1
 138.131351039 0 l 1
EndSplineSet
EndChar

StartChar: Iota
Encoding: 921 921 26
Width: 422
VWidth: 0
Flags: HW
LayerCount: 2
UndoRedoHistory
Layer: 1
Undoes
EndUndoes
Redoes
EndRedoes
EndUndoRedoHistory
Fore
SplineSet
138.131351039 0 m 1
 138.131351039 1347.17449612 l 1
 279.027818602 1347.17449612 l 1
 279.027818602 0 l 1
 138.131351039 0 l 1
EndSplineSet
EndChar

StartChar: Iotatonos
Encoding: 906 906 27
Width: 463
VWidth: 0
Flags: HW
LayerCount: 2
UndoRedoHistory
Layer: 1
Undoes
EndUndoes
Redoes
EndRedoes
EndUndoRedoHistory
Fore
SplineSet
225.348992232 484.478427462 m 0
 146.523488348 484.478427462 106.219557002 543.303931346 106.219557002 602.607862692 c 0
 106.219557002 661.911794037 146.523488348 720.737297921 225.348992232 720.737297921 c 0
 305.174496116 720.737297921 344.956854923 661.911794037 344.956854923 602.607862692 c 0
 344.956854923 543.303931346 305.174496116 484.478427462 225.348992232 484.478427462 c 0
EndSplineSet
EndChar

StartChar: K
Encoding: 75 75 28
Width: 1242
VWidth: 0
Flags: HW
LayerCount: 2
UndoRedoHistory
Layer: 1
Undoes
EndUndoes
Redoes
EndRedoes
EndUndoRedoHistory
Fore
SplineSet
198.874396389 0 m 1
 198.874396389 1349.30584716 l 1
 358.251207222 1349.30584716 l 1
 358.251207222 705.502041973 l 1
 978.001915809 1349.30584716 l 1
 1164.37681083 1349.30584716 l 1
 597.057197364 753.525942467 l 1
 1193.41995591 0 l 1
 1005.82741969 0 l 1
 486.227373106 672.890232076 l 1
 358.251207222 555.029357614 l 1
 358.251207222 0 l 1
 198.874396389 0 l 1
EndSplineSet
EndChar

StartChar: L
Encoding: 76 76 29
Width: 1054
VWidth: 0
Flags: HW
LayerCount: 2
UndoRedoHistory
Layer: 1
Undoes
EndUndoes
Redoes
EndRedoes
EndUndoRedoHistory
Fore
SplineSet
198.874396389 0 m 1
 198.874396389 1349.30584716 l 1
 358.251207222 1349.30584716 l 1
 358.251207222 121.380642452 l 1
 993.558970187 121.380642452 l 1
 989.907962419 0 l 1
 198.874396389 0 l 1
EndSplineSet
EndChar

StartChar: Lambda
Encoding: 923 923 30
Width: 1416
VWidth: 0
Flags: HW
LayerCount: 2
UndoRedoHistory
Layer: 1
Undoes
EndUndoes
Redoes
EndRedoes
EndUndoRedoHistory
Fore
SplineSet
121.972181398 0 m 1
 623.842746168 1358.91179404 l 1
 789.493753937 1358.91179404 l 1
 1292.36431871 0 l 1
 1132.54073063 0 l 1
 706.189822591 1195.6567552 l 1
 286.795769473 0 l 1
 121.972181398 0 l 1
EndSplineSet
EndChar

StartChar: M
Encoding: 77 77 31
Width: 1716
VWidth: 0
Flags: HW
LayerCount: 2
UndoRedoHistory
Layer: 1
Undoes
EndUndoes
Redoes
EndRedoes
EndUndoRedoHistory
Fore
SplineSet
198.874396389 0 m 1
 204.090121772 1349.30584716 l 1
 403.080542725 1349.30584716 l 1
 860.670171737 294.747941011 l 1
 1319.47651165 1349.30584716 l 1
 1511.98850514 1349.30584716 l 1
 1517.20423053 0 l 1
 1368.39213731 0 l 1
 1365.78427462 869.173498845 l 1
 1374.33295291 1143.45929784 l 1
 931.166832878 123.557054377 l 1
 789.217641193 123.557054377 l 1
 343.787509276 1158.56050469 l 1
 352.03356603 865.434285114 l 1
 349.425703338 0 l 1
 198.874396389 0 l 1
EndSplineSet
EndChar

StartChar: Mu
Encoding: 924 924 32
Width: 1607
VWidth: 0
Flags: HW
LayerCount: 2
UndoRedoHistory
Layer: 1
Undoes
EndUndoes
Redoes
EndRedoes
EndUndoRedoHistory
Fore
SplineSet
131.302015536 0 m 1
 131.302015536 1347.17449612 l 1
 306.635681293 1347.17449612 l 1
 797.821672265 243.633765484 l 1
 1293.96451816 1347.17449612 l 1
 1462.1236878 1347.17449612 l 1
 1462.1236878 0 l 1
 1336.39788474 0 l 1
 1336.39788474 844.281860172 l 1
 1343.8763122 1169.06613479 l 1
 1303.52540416 1065.01532647 l 1
 869.035481839 81.6078626916 l 1
 734.045060886 81.6078626916 l 1
 287.335581566 1068.53689901 l 1
 247.463100987 1172.8484936 l 1
 259.376810834 839.80343271 l 1
 259.376810834 0 l 1
 131.302015536 0 l 1
EndSplineSet
EndChar

StartChar: N
Encoding: 78 78 33
Width: 1483
VWidth: 0
Flags: HW
LayerCount: 2
UndoRedoHistory
Layer: 1
Undoes
EndUndoes
Redoes
EndRedoes
EndUndoRedoHistory
Fore
SplineSet
198.874396389 0 m 1
 198.874396389 1349.30584716 l 1
 355.814009028 1349.30584716 l 1
 1147.60030293 194.770336294 l 1
 1138.0958692 574.714308209 l 1
 1138.0958692 1349.30584716 l 1
 1284.86290153 1349.30584716 l 1
 1284.86290153 0 l 1
 1122.09778501 0 l 1
 332.828469637 1146.32955155 l 1
 345.641428721 730.557972916 l 1
 345.641428721 0 l 1
 198.874396389 0 l 1
EndSplineSet
EndChar

StartChar: Nu
Encoding: 925 925 34
Width: 1381
VWidth: 0
Flags: HW
LayerCount: 2
UndoRedoHistory
Layer: 1
Undoes
EndUndoes
Redoes
EndRedoes
EndUndoRedoHistory
Fore
SplineSet
138.131351039 0 m 1
 138.131351039 1347.17449612 l 1
 278.157253832 1347.17449612 l 1
 615.238715096 885.905128071 785.843743439 646.420874449 1119.96834978 181.455437749 c 1
 1119.96834978 181.455437749 1117.97026559 444.830332773 1117.97026559 499.400797817 c 2
 1117.97026559 1347.17449612 l 1
 1231.7334663 1347.17449612 l 1
 1231.7334663 0 l 1
 1091.79576947 0 l 1
 756.192735671 462.008581776 585.109279866 702.537896284 253.202314718 1168.24254671 c 1
 253.202314718 1168.24254671 251.633765484 999.194572748 251.633765484 871.008581776 c 2
 251.633765484 0 l 1
 138.131351039 0 l 1
EndSplineSet
EndChar

StartChar: O
Encoding: 79 79 35
Width: 1555
VWidth: 0
Flags: HW
LayerCount: 2
UndoRedoHistory
Layer: 1
Undoes
EndUndoes
Redoes
EndRedoes
EndUndoRedoHistory
Fore
SplineSet
779.043145077 107.988505144 m 0
 1112.75070859 107.988505144 1263.79385366 338.298183918 1263.79385366 666.260786269 c 0
 1263.79385366 1007.35473966 1105.09778501 1241.57812828 779.782358807 1241.57812828 c 0
 455.206146336 1241.57812828 291.553222759 1008.83316712 291.553222759 666.260786269 c 0
 291.553222759 338.298183918 445.335581566 107.988505144 779.043145077 107.988505144 c 0
779.782358807 -18 m 0
 357.953023305 -18 132.176411925 253.262702079 132.176411925 666.782358807 c 0
 132.176411925 1091.69415284 367.345160613 1368.08820596 780.521572538 1368.08820596 c 0
 1184.08820596 1368.08820596 1423.1706645 1088.73729792 1423.1706645 665.303931346 c 0
 1423.1706645 259.915625656 1195.69798446 -18 779.782358807 -18 c 0
EndSplineSet
EndChar

StartChar: OE
Encoding: 338 338 36
Width: 1849
VWidth: 0
Flags: HW
LayerCount: 2
UndoRedoHistory
Layer: 1
Undoes
EndUndoes
Redoes
EndRedoes
EndUndoRedoHistory
Fore
SplineSet
782.441029813 -22.1744961159 m 0
 338 -22.1744961159 127.093953391 271.782358807 127.093953391 707.786190426 c 1
 138.22530443 1104.78619043 393.352823851 1392.56854923 756.74304535 1392.56854923 c 0
 895.744961159 1392.56854923 1013.74687697 1348.26270208 1076.57046504 1287.6097785 c 1
 1076.57046504 1364.61169431 l 1
 1680.89072013 1364.61169431 l 1
 1666.58678879 1239.44677724 l 1
 1211.94919169 1239.44677724 l 1
 1211.94919169 762.51774092 l 1
 1631.71622402 762.51774092 l 1
 1631.71622402 637.395968927 l 1
 1211.94919169 637.395968927 l 1
 1211.94919169 127.425703338 l 1
 1701.71622402 127.425703338 l 1
 1688.89072013 -1.17449611589 l 1
 1076.57046504 -1.17449611589 l 1
 1076.57046504 76.6097785009 l 1
 1048.61935755 36.0019158094 886.352823851 -22.1744961159 782.441029813 -22.1744961159 c 0
784.876312198 101.251207222 m 1
 895.525404157 101.251207222 1037.74687697 162.557054377 1076.57046504 182.553222759 c 1
 1076.57046504 1168.49183813 l 1
 1005.17832773 1224.09970082 897.74304535 1269.40363216 775.223388621 1269.40363216 c 0
 469.87056477 1269.40363216 285.25695465 1041.09970082 276.604031073 709.699900273 c 1
 276.604031073 372.125603611 404.429534957 105.947275877 784.876312198 101.251207222 c 1
EndSplineSet
EndChar

StartChar: Omega
Encoding: 937 937 37
Width: 1511
VWidth: 0
Flags: HW
LayerCount: 2
UndoRedoHistory
Layer: 1
Undoes
EndUndoes
Redoes
EndRedoes
EndUndoRedoHistory
Fore
SplineSet
754 118 m 0
 1072 118 1220 349 1220 667 c 0
 1220 997 1066 1228 755 1228 c 0
 444 1228 288 998 288 667 c 0
 288 349 436 118 754 118 c 0
754 -20 m 0
 339 -20 114 251 114 668 c 0
 114 1095 347 1366 755 1366 c 0
 1156 1366 1395 1092 1395 667 c 0
 1395 257 1164 -20 754 -20 c 0
EndSplineSet
EndChar

StartChar: Omegatonos
Encoding: 911 911 38
Width: 463
VWidth: 0
Flags: HW
LayerCount: 2
UndoRedoHistory
Layer: 1
Undoes
EndUndoes
Redoes
EndRedoes
EndUndoRedoHistory
Fore
SplineSet
225.348992232 484.478427462 m 0
 146.523488348 484.478427462 106.219557002 543.303931346 106.219557002 602.607862692 c 0
 106.219557002 661.911794037 146.523488348 720.737297921 225.348992232 720.737297921 c 0
 305.174496116 720.737297921 344.956854923 661.911794037 344.956854923 602.607862692 c 0
 344.956854923 543.303931346 305.174496116 484.478427462 225.348992232 484.478427462 c 0
EndSplineSet
EndChar

StartChar: Omicron
Encoding: 927 927 39
Width: 1534
VWidth: 0
Flags: HW
LayerCount: 2
UndoRedoHistory
Layer: 1
Undoes
EndUndoes
Redoes
EndRedoes
EndUndoRedoHistory
Fore
SplineSet
758.697984464 96.6826579887 m 0
 1097.62127336 96.6826579887 1255.23488348 338.819756456 1255.23488348 666.782358807 c 0
 1255.23488348 1007.8763122 1089.96834978 1250.23105186 759.697984464 1250.23105186 c 0
 429.906046609 1250.23105186 261.204230527 1009.35473966 261.204230527 666.782358807 c 0
 261.204230527 338.819756456 419.77469557 96.6826579887 758.697984464 96.6826579887 c 0
759.176411925 -21.1744961159 m 0
 337.347076422 -21.1744961159 121.046976695 253.784274617 121.046976695 667.303931346 c 0
 121.046976695 1092.21572538 347 1367.87056477 760.176411925 1367.87056477 c 0
 1163.74304535 1367.87056477 1396.87056477 1088.73729792 1396.87056477 665.825503884 c 0
 1396.87056477 260.958770733 1174.09203758 -21.1744961159 759.176411925 -21.1744961159 c 0
EndSplineSet
EndChar

StartChar: Omicrontonos
Encoding: 908 908 40
Width: 463
VWidth: 0
Flags: HW
LayerCount: 2
UndoRedoHistory
Layer: 1
Undoes
EndUndoes
Redoes
EndRedoes
EndUndoRedoHistory
Fore
SplineSet
225.348992232 484.478427462 m 0
 146.523488348 484.478427462 106.219557002 543.303931346 106.219557002 602.607862692 c 0
 106.219557002 661.911794037 146.523488348 720.737297921 225.348992232 720.737297921 c 0
 305.174496116 720.737297921 344.956854923 661.911794037 344.956854923 602.607862692 c 0
 344.956854923 543.303931346 305.174496116 484.478427462 225.348992232 484.478427462 c 0
EndSplineSet
EndChar

StartChar: Oslash
Encoding: 216 216 41
Width: 1596
VWidth: 0
Flags: HW
LayerCount: 2
UndoRedoHistory
Layer: 1
Undoes
EndUndoes
Redoes
EndRedoes
EndUndoRedoHistory
Fore
SplineSet
520.662502624 -160.519656729 m 1
 404.574296662 -122.911794037 l 1
 470.790022045 46.6078626916 l 1
 241.092037581 162.478427462 130.050808314 411.307762965 130.050808314 714.960686542 c 0
 130.050808314 1165.2665337 362.697984464 1457.57429666 794.050808314 1457.57429666 c 0
 875.790022045 1457.57429666 953.22530443 1446.57429666 1021.26844951 1426.05272412 c 1
 1089.44102981 1600.96451816 l 1
 1210.79002204 1559.92137308 l 1
 1137.44294562 1376.57429666 l 1
 1348.27036532 1259.92137308 1458.96451816 1027.44102981 1458.96451816 715.178327735 c 0
 1458.96451816 291.352823851 1245.3624029 -23.9137098467 795.22530443 -23.9137098467 c 0
 717.268449507 -23.9137098467 647.746876968 -14.1744961159 584.442945623 4.08629015326 c 1
 520.662502624 -160.519656729 l 1
527.046976695 190.772779761 m 1
 967.272281125 1285.5819599 l 1
 914.488006509 1302.27802855 858.0958692 1310.27802855 793.790022045 1310.27802855 c 0
 446.954939114 1310.27802855 275.776611379 1046.96643397 275.776611379 721.178327735 c 0
 275.776611379 488.694152845 358.127519421 288.77469557 527.046976695 190.772779761 c 1
793.790022045 125.253123032 m 0
 1144.32117363 125.253123032 1310.58579152 391.174496116 1310.58579152 725.137098467 c 0
 1310.58579152 942.011494856 1235.1917384 1131.32117363 1081.1428459 1234.27994436 c 1
 640.178327735 144.731550493 l 1
 687.744961159 130.77469557 736.441029813 125.253123032 793.790022045 125.253123032 c 0
EndSplineSet
EndChar

StartChar: P
Encoding: 80 80 42
Width: 1188
VWidth: 0
Flags: HW
LayerCount: 2
UndoRedoHistory
Layer: 1
Undoes
EndUndoes
Redoes
EndRedoes
EndUndoRedoHistory
Fore
SplineSet
198.874396389 0 m 1
 198.874396389 1349.30584716 l 1
 661.519656729 1349.30584716 l 2
 913.949191686 1349.30584716 1099.72771887 1245.61361012 1099.72771887 999.531151585 c 0
 1099.72771887 761.227220239 972.16300126 617.668250052 657.823588075 617.668250052 c 0
 647.490564891 617.668250052 456.376508351 618.425315461 358.251207222 619.477955818 c 1
 358.251207222 0 l 1
 198.874396389 0 l 1
652.521572538 733.572380852 m 2
 860.560885996 733.572380852 940.350908041 813.480343271 940.350908041 998.184075163 c 0
 940.350908041 1169.01341067 826.476511652 1229.48992232 656.605946882 1229.48992232 c 2
 358.251207222 1229.48992232 l 1
 358.251207222 733.572380852 l 1
 652.521572538 733.572380852 l 2
EndSplineSet
EndChar

StartChar: Phi
Encoding: 934 934 43
Width: 1572
VWidth: 0
Flags: HW
LayerCount: 2
UndoRedoHistory
Layer: 1
Undoes
EndUndoes
Redoes
EndRedoes
EndUndoRedoHistory
Fore
SplineSet
702.223388621 0 m 1
 702.223388621 155.478427462 l 1
 316.003831619 182.303931346 115.046976695 409.521572538 115.046976695 702.303931346 c 0
 115.046976695 1000.30393135 329.178327735 1208.82550388 702.223388621 1234.3902215 c 1
 702.223388621 1358.91179404 l 1
 858.74304535 1358.91179404 l 1
 858.74304535 1234.3902215 l 1
 1236.70181608 1209.82550388 1448.70181608 1001.08629015 1448.70181608 702.303931346 c 0
 1448.70181608 408.303931346 1247.2665337 179.825503884 858.74304535 155.478427462 c 1
 858.74304535 0 l 1
 702.223388621 0 l 1
702.223388621 288.909878228 m 1
 702.223388621 1100.95877073 l 1
 423.872480579 1076.17641193 282.827419693 922.609778501 282.827419693 702.303931346 c 0
 282.827419693 489.519656729 412.350908041 315.213809574 702.223388621 288.909878228 c 1
858.74304535 288.909878228 m 1
 1152.79002204 314.213809574 1281.39980055 488.737297921 1281.39980055 702.303931346 c 0
 1281.39980055 922.566633424 1141.61552593 1077.17641193 858.74304535 1100.95877073 c 1
 858.74304535 288.909878228 l 1
EndSplineSet
EndChar

StartChar: Pi
Encoding: 928 928 44
Width: 1351
VWidth: 0
Flags: HW
LayerCount: 2
UndoRedoHistory
Layer: 1
Undoes
EndUndoes
Redoes
EndRedoes
EndUndoRedoHistory
Fore
SplineSet
139.045060886 0 m 1
 139.045060886 1358.91179404 l 1
 1209.0469767 1358.91179404 l 1
 1209.0469767 0 l 1
 1052.74496116 0 l 1
 1052.74496116 1224.6097785 l 1
 296.825503884 1224.6097785 l 1
 296.825503884 0 l 1
 139.045060886 0 l 1
EndSplineSet
EndChar

StartChar: Psi
Encoding: 936 936 45
Width: 463
VWidth: 0
Flags: HW
LayerCount: 2
UndoRedoHistory
Layer: 1
Undoes
EndUndoes
Redoes
EndRedoes
EndUndoRedoHistory
Fore
SplineSet
225.348992232 484.478427462 m 0
 146.523488348 484.478427462 106.219557002 543.303931346 106.219557002 602.607862692 c 0
 106.219557002 661.911794037 146.523488348 720.737297921 225.348992232 720.737297921 c 0
 305.174496116 720.737297921 344.956854923 661.911794037 344.956854923 602.607862692 c 0
 344.956854923 543.303931346 305.174496116 484.478427462 225.348992232 484.478427462 c 0
EndSplineSet
EndChar

StartChar: Q
Encoding: 81 81 46
Width: 1555
VWidth: 0
Flags: HW
LayerCount: 2
UndoRedoHistory
Layer: 1
Undoes
EndUndoes
Redoes
EndRedoes
EndUndoRedoHistory
Fore
SplineSet
1178.48034327 -402.341328994 m 1
 1114.31159458 -342.082458535 971.180243544 -158.739213731 888.266533697 1.74112954021 c 1
 1017.1236878 25.9980841906 l 1
 1065.08054273 -71.1783277346 1184.73538211 -232.307762965 1269.1236878 -318.913709847 c 1
 1178.48034327 -402.341328994 l 1
EndSplineSet
Refer: 35 79 N 1 0 0 1 0 0 2
EndChar

StartChar: Rho
Encoding: 929 929 47
Width: 1133
VWidth: 0
Flags: HW
LayerCount: 2
UndoRedoHistory
Layer: 1
Undoes
EndUndoes
Redoes
EndRedoes
EndUndoRedoHistory
Fore
SplineSet
138.348992232 0 m 1
 138.348992232 1347.17449612 l 1
 530.253123032 1347.17449612 l 2
 776.029734411 1347.17449612 977.331749948 1228.65483939 977.331749948 992.921373084 c 0
 977.331749948 736.876312198 824.633765484 588.446777241 502.902214991 588.446777241 c 0
 445.727718875 588.446777241 349.202314718 596.099700819 279.984673525 602.099700819 c 1
 279.984673525 0 l 1
 138.348992232 0 l 1
521.255038841 705.090121772 m 0
 733.729634684 705.090121772 835.696068654 795.782358807 835.696068654 990.835082931 c 0
 835.696068654 1157.22913605 695.209977955 1218.83699874 524.600199454 1218.83699874 c 2
 279.984673525 1218.83699874 l 1
 279.984673525 717.178327735 l 1
 279.984673525 717.178327735 454.557054377 705.090121772 521.255038841 705.090121772 c 0
EndSplineSet
EndChar

StartChar: S
Encoding: 83 83 48
Width: 1137
VWidth: 0
Flags: HW
LayerCount: 2
UndoRedoHistory
Layer: 1
Undoes
EndUndoes
Redoes
EndRedoes
EndUndoRedoHistory
Fore
SplineSet
567.825503884 -18 m 0
 331.949191686 -18 206.300099727 67.570465043 141.305847155 115.090121772 c 1
 196.215725383 230.557054377 l 1
 283.564717615 166.511993491 402.211893764 107.988505144 574.12943523 107.988505144 c 0
 766.874396389 107.988505144 875.052724123 176.251207222 881.705647701 350.996168381 c 0
 886.880143817 488.394053118 831.880143817 540.829335503 657.262702079 607.572380852 c 1
 434.74112954 690.921373084 l 2
 263.131351039 755.748792778 151 844.137098467 157.652923578 1026.00574743 c 0
 168.001915809 1289.09395339 384.221472811 1368.34899223 607.12943523 1368.34899223 c 0
 761.215725383 1368.34899223 902.345160613 1309.65100777 978.253123032 1253.95685492 c 1
 918.429534957 1145.1428459 l 1
 874.478427462 1169.61935755 755.609778501 1241.83891455 601.127519421 1241.83891455 c 0
 452.604031073 1241.83891455 312.074795297 1194.9252047 306.16108545 1031.00574743 c 0
 301.725803065 915.739213731 349.814009028 870.782358807 483.25695465 818.25695465 c 2
 694.953023305 736.429534957 l 2
 889.296268108 662.125603611 1036.43145077 586.911794037 1026.82167227 352.909878228 c 0
 1015.7334663 83.5177409196 821.343244804 -18 567.825503884 -18 c 0
EndSplineSet
EndChar

StartChar: Sigma
Encoding: 931 931 49
Width: 1093
VWidth: 0
Flags: HW
LayerCount: 2
UndoRedoHistory
Layer: 1
Undoes
EndUndoes
Redoes
EndRedoes
EndUndoRedoHistory
Fore
SplineSet
138.348992232 0 m 1
 138.348992232 1347.17449612 l 1
 949.868648961 1347.17449612 l 1
 944.043145077 1226.22913605 l 1
 279.984673525 1226.22913605 l 1
 279.984673525 756.951107495 l 1
 885.996168381 756.951107495 l 1
 885.996168381 636.395968927 l 1
 279.984673525 636.395968927 l 1
 279.984673525 120.945360067 l 1
 947.302015536 120.945360067 l 1
 940.302015536 0 l 1
 138.348992232 0 l 1
EndSplineSet
EndChar

StartChar: T
Encoding: 84 84 50
Width: 1087
VWidth: 0
Flags: HW
LayerCount: 2
UndoRedoHistory
Layer: 1
Undoes
EndUndoes
Redoes
EndRedoes
EndUndoRedoHistory
Fore
SplineSet
621.945360067 1233.9252047 m 1
 621.945360067 0 l 1
 462.568549234 0 l 1
 462.568549234 1233.9252047 l 1
 55.0431450766 1233.9252047 l 1
 55.0431450766 1349.30584716 l 1
 1032.1236878 1349.30584716 l 1
 1032.1236878 1233.9252047 l 1
 621.945360067 1233.9252047 l 1
EndSplineSet
EndChar

StartChar: Tau
Encoding: 932 932 51
Width: 1191
VWidth: 0
Flags: HW
LayerCount: 2
UndoRedoHistory
Layer: 1
Undoes
EndUndoes
Redoes
EndRedoes
EndUndoRedoHistory
Fore
SplineSet
505.444861432 0 m 1
 505.444861432 1226.22913605 l 1
 85.2214728113 1226.22913605 l 1
 85.2214728113 1347.17449612 l 1
 1064.86864896 1347.17449612 l 1
 1064.86864896 1226.22913605 l 1
 647.080542725 1226.22913605 l 1
 647.080542725 0 l 1
 505.444861432 0 l 1
EndSplineSet
EndChar

StartChar: Tbar
Encoding: 358 358 52
Width: 1131
VWidth: 0
Flags: HW
LayerCount: 2
UndoRedoHistory
Layer: 1
Undoes
EndUndoes
Redoes
EndRedoes
EndUndoRedoHistory
Fore
SplineSet
484 0 m 1
 484 483 l 1
 330 483 l 1
 330 595 l 1
 484 595 l 1
 484 1220 l 1
 77 1220 l 1
 77 1361 l 1
 1053 1361 l 1
 1053 1220 l 1
 645 1220 l 1
 645 595 l 1
 793 595 l 1
 793 483 l 1
 645 483 l 1
 645 0 l 1
 484 0 l 1
EndSplineSet
EndChar

StartChar: Theta
Encoding: 920 920 53
Width: 463
VWidth: 0
Flags: HW
LayerCount: 2
UndoRedoHistory
Layer: 1
Undoes
EndUndoes
Redoes
EndRedoes
EndUndoRedoHistory
Fore
SplineSet
225.348992232 484.478427462 m 0
 146.523488348 484.478427462 106.219557002 543.303931346 106.219557002 602.607862692 c 0
 106.219557002 661.911794037 146.523488348 720.737297921 225.348992232 720.737297921 c 0
 305.174496116 720.737297921 344.956854923 661.911794037 344.956854923 602.607862692 c 0
 344.956854923 543.303931346 305.174496116 484.478427462 225.348992232 484.478427462 c 0
EndSplineSet
EndChar

StartChar: Thorn
Encoding: 222 222 54
Width: 1227
VWidth: 0
Flags: HW
LayerCount: 2
UndoRedoHistory
Layer: 1
Undoes
EndUndoes
Redoes
EndRedoes
EndUndoRedoHistory
Fore
SplineSet
130.823588075 -3.95877073273 m 1
 130.823588075 1368.87439639 l 1
 276.859069914 1368.87439639 l 1
 276.859069914 1102.34516061 l 1
 585.649091959 1102.34516061 l 2
 923.523488348 1102.34516061 1091.9511075 1006.3902215 1091.9511075 720 c 0
 1091.9511075 483.568549234 987.572380852 311.478427462 660.523488348 311.478427462 c 0
 651.87056477 311.478427462 276.859069914 319.87056477 276.859069914 319.87056477 c 1
 276.859069914 -3.95877073273 l 1
 130.823588075 -3.95877073273 l 1
276.380642452 436.253123032 m 1
 643.694152845 436.253123032 l 2
 886.615525929 436.253123032 957.221472811 554.692237035 957.221472811 708.737297921 c 0
 957.221472811 893.088205963 869.570465043 977.786190426 602.431450766 977.786190426 c 2
 276.859069914 977.786190426 l 1
 276.380642452 436.253123032 l 1
EndSplineSet
EndChar

StartChar: U
Encoding: 85 85 55
Width: 1383
VWidth: 0
Flags: HW
LayerCount: 2
UndoRedoHistory
Layer: 1
Undoes
EndUndoes
Redoes
EndRedoes
EndUndoRedoHistory
Fore
SplineSet
691.12943523 -18 m 0
 330.562801806 -18 158.784274617 201.786190426 158.784274617 497.566633424 c 2
 158.784274617 1349.30584716 l 1
 318.16108545 1349.30584716 l 1
 318.16108545 500.303931346 l 2
 318.16108545 245.427619148 430.859069914 108.770863951 691.12943523 108.770863951 c 0
 941.876312198 108.770863951 1065.57621247 244.949191686 1065.57621247 499.825503884 c 2
 1065.57621247 1349.30584716 l 1
 1224.9530233 1349.30584716 l 1
 1224.9530233 495.088205963 l 2
 1224.9530233 200.090121772 1052.91370985 -18 691.12943523 -18 c 0
EndSplineSet
EndChar

StartChar: Upsilon
Encoding: 933 933 56
Width: 1291
VWidth: 0
Flags: HW
LayerCount: 2
UndoRedoHistory
Layer: 1
Undoes
EndUndoes
Redoes
EndRedoes
EndUndoRedoHistory
Fore
SplineSet
560.446777241 0 m 1
 560.446777241 533.478427462 l 1
 90.9232888936 1347.17449612 l 1
 233.472680034 1347.17449612 l 1
 634.266533697 659.594452026 l 1
 1036.06038736 1347.17449612 l 1
 1179.34899223 1347.17449612 l 1
 710.303931346 537.478427462 l 1
 710.303931346 0 l 1
 560.446777241 0 l 1
EndSplineSet
EndChar

StartChar: Upsilontonos
Encoding: 910 910 57
Width: 463
VWidth: 0
Flags: HW
LayerCount: 2
UndoRedoHistory
Layer: 1
Undoes
EndUndoes
Redoes
EndRedoes
EndUndoRedoHistory
Fore
SplineSet
225.348992232 484.478427462 m 0
 146.523488348 484.478427462 106.219557002 543.303931346 106.219557002 602.607862692 c 0
 106.219557002 661.911794037 146.523488348 720.737297921 225.348992232 720.737297921 c 0
 305.174496116 720.737297921 344.956854923 661.911794037 344.956854923 602.607862692 c 0
 344.956854923 543.303931346 305.174496116 484.478427462 225.348992232 484.478427462 c 0
EndSplineSet
EndChar

StartChar: V
Encoding: 86 86 58
Width: 1288
VWidth: 0
Flags: HW
LayerCount: 2
UndoRedoHistory
Layer: 1
Undoes
EndUndoes
Redoes
EndRedoes
EndUndoRedoHistory
Fore
SplineSet
575.876312198 0 m 1
 66.9568549234 1349.30584716 l 1
 231.54939114 1349.30584716 l 1
 540.906046609 485.466932606 l 1
 645.055218381 196.416017874 l 1
 749.476511652 489.423787529 l 1
 1057.79002204 1349.30584716 l 1
 1221.12177199 1349.30584716 l 1
 712.41995591 0 l 1
 575.876312198 0 l 1
EndSplineSet
EndChar

StartChar: W
Encoding: 87 87 59
Width: 1942
VWidth: 0
Flags: HW
LayerCount: 2
UndoRedoHistory
Layer: 1
Undoes
EndUndoes
Redoes
EndRedoes
EndUndoRedoHistory
Fore
SplineSet
470.442945623 0 m 1
 55.6548393869 1348.56663342 l 1
 206.814009028 1348.56663342 l 1
 547.262683468 201.689492429 l 1
 894.964518161 1318.91179404 l 1
 1048.99616838 1318.91179404 l 1
 1394.52204557 200.549000262 l 1
 1733.45060886 1348.56663342 l 1
 1887.30584716 1348.56663342 l 1
 1472.51965673 0 l 1
 1317.3154262 0 l 1
 973.737649056 1135.49599973 l 1
 622.907962419 0 l 1
 470.442945623 0 l 1
EndSplineSet
EndChar

StartChar: Xi
Encoding: 926 926 60
Width: 463
VWidth: 0
Flags: HW
LayerCount: 2
UndoRedoHistory
Layer: 1
Undoes
EndUndoes
Redoes
EndRedoes
EndUndoRedoHistory
Fore
SplineSet
225.348992232 484.478427462 m 0
 146.523488348 484.478427462 106.219557002 543.303931346 106.219557002 602.607862692 c 0
 106.219557002 661.911794037 146.523488348 720.737297921 225.348992232 720.737297921 c 0
 305.174496116 720.737297921 344.956854923 661.911794037 344.956854923 602.607862692 c 0
 344.956854923 543.303931346 305.174496116 484.478427462 225.348992232 484.478427462 c 0
EndSplineSet
EndChar

StartChar: Y
Encoding: 89 89 61
Width: 1174
VWidth: 0
Flags: HW
LayerCount: 2
UndoRedoHistory
Layer: 1
Undoes
EndUndoes
Redoes
EndRedoes
EndUndoRedoHistory
Fore
SplineSet
679.555138568 551.97868396 m 1
 679.555138568 0 l 1
 521.74304535 0 l 1
 521.74304535 548.584010271 l 1
 57.3058471552 1349.30584716 l 1
 213.941528448 1349.30584716 l 1
 599.496273812 668.5553419 l 1
 961.570465043 1349.30584716 l 1
 1117.64142872 1349.30584716 l 1
 679.555138568 551.97868396 l 1
EndSplineSet
EndChar

StartChar: Z
Encoding: 90 90 62
Width: 1148
VWidth: 0
Flags: HW
LayerCount: 2
UndoRedoHistory
Layer: 1
Undoes
EndUndoes
Redoes
EndRedoes
EndUndoRedoHistory
Fore
SplineSet
138.607862692 0 m 1
 138.607862692 113.602115263 l 1
 851.896218785 1229.48992232 l 1
 171.480343271 1229.48992232 l 1
 171.480343271 1349.30584716 l 1
 1022.51582511 1349.30584716 l 1
 1029.16874869 1239.44486143 l 1
 319.286708467 121.380642452 l 1
 1035.9511075 121.380642452 l 1
 1027.81975646 0 l 1
 138.607862692 0 l 1
EndSplineSet
EndChar

StartChar: Zeta
Encoding: 918 918 63
Width: 1188
VWidth: 0
Flags: HW
LayerCount: 2
UndoRedoHistory
Layer: 1
Undoes
EndUndoes
Redoes
EndRedoes
EndUndoRedoHistory
Fore
SplineSet
123.223388621 0 m 1
 123.223388621 112.862901533 l 1
 872.840830359 1224.75070859 l 1
 150.397884737 1224.75070859 l 1
 149.919457275 1347.17449612 l 1
 1040.69415284 1347.17449612 l 1
 1040.69415284 1245.35857128 l 1
 281.900299181 121.684573798 l 1
 1046.69415284 121.684573798 l 1
 1040.99808419 0 l 1
 123.223388621 0 l 1
EndSplineSet
EndChar

StartChar: a
Encoding: 97 97 64
Width: 1074
VWidth: 0
Flags: HW
LayerCount: 2
UndoRedoHistory
Layer: 1
Undoes
EndUndoes
Redoes
EndRedoes
EndUndoRedoHistory
Fore
SplineSet
763.268449507 496.028910604 m 1
 713.292054337 495.295069155 617 494.262702079 617 494.262702079 c 2
 333.378726643 490.350908041 264.684573798 409.913709847 264.684573798 264.823588075 c 0
 264.684573798 147.384474071 345.602115263 95.4707642242 434.037397649 95.4707642242 c 0
 563.355704173 95.4707642242 682.103840733 150.234283384 763.268449507 266.950306029 c 1
 763.268449507 496.028910604 l 1
426.564717615 -15.0431450766 m 0
 247.607862692 -15.0431450766 116.435282385 79.9568549234 116.435282385 263.302015536 c 0
 116.435282385 476.213809574 259.390221499 581.694152845 576.701816082 588.474595843 c 1
 588.726705958 589.877499662 705.089971137 591.588441973 763.529235776 592.77887383 c 1
 763.529235776 679.390221499 l 2
 763.529235776 822.523488348 690.180243544 901.527319966 537.174496116 901.527319966 c 0
 439.825503884 901.527319966 303.827419693 872.744961159 213.784274617 827.395968927 c 1
 206.392137308 843.658671006 179.568549234 916.429534957 173.654839387 933.431450766 c 1
 260.390221499 978.170664497 408.607862692 1014.38830569 530.474595843 1014.38830569 c 0
 764.427619148 1014.38830569 912.082458535 920.347076422 912.082458535 657.043145077 c 2
 912.082458535 2.95685492337 l 1
 803.395968927 2.95685492337 l 1
 781.459797584 150.501079624 l 1
 677.138339366 24.327219549 541.665340944 -15.0431450766 426.564717615 -15.0431450766 c 0
EndSplineSet
EndChar

StartChar: acute
Encoding: 180 180 65
Width: 592
VWidth: 0
Flags: HW
LayerCount: 2
UndoRedoHistory
Layer: 1
Undoes
EndUndoes
Redoes
EndRedoes
EndUndoRedoHistory
Fore
SplineSet
102.384474071 1151.22530443 m 1
 274.951107495 1501.8763122 l 1
 486.376810834 1501.8763122 l 1
 190.637597103 1151.22530443 l 1
 102.384474071 1151.22530443 l 1
EndSplineSet
EndChar

StartChar: alpha
Encoding: 945 945 66
Width: 463
VWidth: 0
Flags: HW
LayerCount: 2
UndoRedoHistory
Layer: 1
Undoes
EndUndoes
Redoes
EndRedoes
EndUndoRedoHistory
Fore
SplineSet
225.348992232 484.478427462 m 0
 146.523488348 484.478427462 106.219557002 543.303931346 106.219557002 602.607862692 c 0
 106.219557002 661.911794037 146.523488348 720.737297921 225.348992232 720.737297921 c 0
 305.174496116 720.737297921 344.956854923 661.911794037 344.956854923 602.607862692 c 0
 344.956854923 543.303931346 305.174496116 484.478427462 225.348992232 484.478427462 c 0
EndSplineSet
EndChar

StartChar: alphatonos
Encoding: 940 940 67
Width: 463
VWidth: 0
Flags: HW
LayerCount: 2
UndoRedoHistory
Layer: 1
Undoes
EndUndoes
Redoes
EndRedoes
EndUndoRedoHistory
Fore
SplineSet
225.348992232 484.478427462 m 0
 146.523488348 484.478427462 106.219557002 543.303931346 106.219557002 602.607862692 c 0
 106.219557002 661.911794037 146.523488348 720.737297921 225.348992232 720.737297921 c 0
 305.174496116 720.737297921 344.956854923 661.911794037 344.956854923 602.607862692 c 0
 344.956854923 543.303931346 305.174496116 484.478427462 225.348992232 484.478427462 c 0
EndSplineSet
EndChar

StartChar: ampersand
Encoding: 38 38 68
Width: 1275
VWidth: 0
Flags: HW
LayerCount: 2
UndoRedoHistory
Layer: 1
Undoes
EndUndoes
Redoes
EndRedoes
EndUndoRedoHistory
Fore
SplineSet
549.300099727 -25.3940531178 m 0
 216.855238295 -25.3940531178 80.2569546504 128.001915809 80.2569546504 352.039313458 c 0
 80.2569546504 549.51774092 200.558970187 667.302015536 391.25887046 760.911794037 c 1
 289.255038841 869.480343271 228.082458535 941.913709847 228.082458535 1061.6097785 c 0
 228.082458535 1237.12751942 359.078626916 1353.82550388 584.431450766 1353.82550388 c 0
 775.347076422 1353.82550388 936.778527189 1261.69415284 936.778527189 1077.6097785 c 0
 936.778527189 920.176411925 801.735382112 815.697984464 619.382558262 733.87056477 c 1
 1006.00191581 326.860985723 l 1
 1059.87248058 382.078626916 1102.219557 456.860985723 1135.48034327 533.427619148 c 1
 1227.60211526 454.735382112 l 1
 1192.77661138 374.996168381 1145.38638988 297.605946882 1087.12560361 229.38830569 c 1
 1243.60019945 32.6059468822 l 1
 1184.46310099 11.9079624186 1179.74687697 4 1119.87056477 -13.0019158094 c 1
 997.348992232 128.825503884 l 1
 885.305847155 36.4333665757 741.87056477 -25.3940531178 549.300099727 -25.3940531178 c 0
558.735382112 107.035481839 m 0
 698.827419693 107.035481839 807.872480579 156.037397649 900.570465043 229.039313458 c 1
 739.209977955 394.660586815 641.442945623 501.860985723 479.125603611 667.699900273 c 1
 330.337497376 594.697984464 222.465016796 500.998084191 222.465016796 362.039313458 c 0
 222.465016796 205.604031073 342.814009028 107.035481839 558.735382112 107.035481839 c 0
532.951107495 820.125603611 m 1
 668 884.38830569 779.872480579 945.823588075 779.872480579 1065.52157254 c 0
 779.872480579 1176.87248058 687.651007768 1231.87439639 586.25695465 1231.87439639 c 0
 467.035481839 1231.87439639 386.16300126 1168.48034327 386.16300126 1059.52157254 c 0
 386.16300126 966.998084191 446.382558262 900.345160613 532.951107495 820.125603611 c 1
EndSplineSet
EndChar

StartChar: approxequal
Encoding: 8776 8776 69
Width: 1185
VWidth: 0
Flags: HW
LayerCount: 2
UndoRedoHistory
Layer: 1
Undoes
EndUndoes
Redoes
EndRedoes
EndUndoRedoHistory
Fore
SplineSet
142.513909301 265.148593324 m 1
 156.558970187 404.859988453 199.009579047 511.336500105 307.673997481 511.336500105 c 1
 384.199401638 539.762203443 461.285691791 528.185990972 551.540730632 494.182159353 c 1
 624.409379593 462.395968927 696.581959899 414.394053118 760.45060886 405.788106236 c 1
 845.799601092 396.399800546 895.668250052 446.842746168 913.882059626 530.373897754 c 1
 931.615525929 530.373897754 1012.22722024 561.41704283 1031.52540416 584.366234516 c 1
 1018.219557 448.350908041 1011.60019945 341.221472811 885.933865211 341.221472811 c 1
 825.931949402 315.403632165 735.326002519 314.022989712 616.023986983 368.724805795 c 0
 544.765116523 401.989423683 483.200398908 434.685492337 423.247375604 446.16008818 c 1
 334.200398908 453.983676254 283.765116523 408.454440479 248.116024564 322.705647701 c 1
 226.992336763 322.705647701 151.119856183 283.925204703 142.513909301 265.148593324 c 1
139.557054377 628.713310938 m 1
 152.862901533 765.467851144 200.488006509 872.683576527 308.413211211 872.683576527 c 1
 378.764119253 901.109279866 446.979844636 896.925204703 552.758371824 850.35473966 c 1
 640.150509133 806.74112954 699.756456015 776.74112954 758.754540206 767.352823851 c 1
 844.625104976 757.442945623 892.45060886 806.711395129 910.925204703 891.720974176 c 1
 928.658671006 891.720974176 1010.27036532 925.460187907 1029.0469767 948.670165862 c 1
 1015.00191581 811.915625656 1005.68648961 705.525404157 884.455437749 705.525404157 c 1
 820.018239555 679.446777241 730.629933865 678.326921058 613.545559521 734.507164602 c 0
 542.286689062 767.77178249 479.982757716 798.989423683 420.29052068 810.464019526 c 1
 330.504330254 818.2876076 280.547475331 774.976013017 247.855238295 689.96643397 c 1
 226.992336763 689.96643397 147.902214991 647.489922318 139.557054377 628.713310938 c 1
EndSplineSet
EndChar

StartChar: asciicircum
Encoding: 94 94 70
Width: 1200
VWidth: 0
Flags: HW
LayerCount: 2
UndoRedoHistory
Layer: 1
Undoes
EndUndoes
Redoes
EndRedoes
EndUndoRedoHistory
Fore
SplineSet
141.358571279 546.441029813 m 1
 541.878228008 1387.6567552 l 1
 625.48225908 1387.6567552 l 1
 1048.30584716 546.441029813 l 1
 942.056555742 546.441029813 l 1
 583.701816082 1246.49758556 l 1
 250.564717615 546.441029813 l 1
 141.358571279 546.441029813 l 1
EndSplineSet
EndChar

StartChar: asciitilde
Encoding: 126 126 71
Width: 1130
VWidth: 0
Flags: HW
LayerCount: 2
UndoRedoHistory
Layer: 1
Undoes
EndUndoes
Redoes
EndRedoes
EndUndoRedoHistory
Fore
SplineSet
132.427619148 463.307762965 m 1
 96.4765116523 548.823588075 l 1
 138.302015536 650.737297921 219.998084191 729.302015536 338.778527189 729.302015536 c 0
 413.082458535 729.302015536 465.253123032 709.215725383 559.733466303 667.345160613 c 1
 649.082458535 629.38830569 724.823588075 592.125603611 781.476511652 592.125603611 c 0
 858.825503884 592.125603611 933.87056477 661.12943523 967.953023305 739.694152845 c 1
 1011.20997796 661.395968927 l 1
 965.427619148 546.262702079 894.302015536 476.264617888 780.043145077 476.264617888 c 0
 716.697984464 476.264617888 649.001915809 501.786190426 572.872480579 536.090121772 c 0
 473.12943523 580.395968927 401.431450766 612.744961159 335.953023305 612.744961159 c 0
 252.778527189 612.744961159 176.558970187 545.092037581 132.427619148 463.307762965 c 1
EndSplineSet
EndChar

StartChar: asterisk
Encoding: 42 42 72
Width: 1115
VWidth: 0
Flags: HW
LayerCount: 2
UndoRedoHistory
Layer: 1
Undoes
EndUndoes
Redoes
EndRedoes
EndUndoRedoHistory
Fore
SplineSet
444.232049129 524.007663237 m 1
 332.106445518 649.337497376 l 1
 467.22530443 816.518659458 l 1
 157.560885996 905.081461264 l 1
 236.023986983 1061.46018791 l 1
 411.252125761 971.268449507 l 1
 402.069966408 1318.80534852 l 1
 576.142845895 1286.46785114 l 1
 541.446777241 1083.92811778 l 1
 854.848493596 1191.85332249 l 1
 871.679744909 1015.91562566 l 1
 688.016323746 988.376810834 l 1
 715.367231787 949.93769683 786.716224018 815.294352299 883.553222759 691.845659248 c 1
 824.588342164 654.992608877 789.650656266 660.772221256 730.825718703 624.167478855 c 1
 726.667575673 638.226822991 635.796766744 818.593454755 635.796766744 818.593454755 c 1
 444.232049129 524.007663237 l 1
730.825718703 624.167478855 m 1
 730.65390956 624.060567914 730.481896648 623.953295417 730.309678774 623.845659248 c 1
 730.975068893 623.005166466 731.125009185 623.15553005 730.825718703 624.167478855 c 1
EndSplineSet
EndChar

StartChar: b
Encoding: 98 98 73
Width: 1176
VWidth: 0
Flags: HW
LayerCount: 2
UndoRedoHistory
Layer: 1
Undoes
EndUndoes
Redoes
EndRedoes
EndUndoRedoHistory
Fore
SplineSet
318.521704734 835.748477763 m 1
 387.252233965 939.614744359 504.227173573 1013.64909196 643.998084191 1013.64909196 c 0
 926.652923578 1013.64909196 1066.30393135 804.954939114 1066.30393135 494.605946882 c 0
 1066.30393135 185.737297921 915.174496116 -18 637.041229267 -18 c 0
 474.449882727 -18 363.370368648 81.0438843527 302.711426456 178.700571738 c 1
 289.123687802 0.260786269158 l 1
 166.439114004 0.260786269158 l 1
 166.439114004 1380.43528239 l 1
 319.688405417 1392.26078627 l 1
 319.688405417 1009.5139093 l 1
 318.521704734 835.748477763 l 1
624.307762965 96.9472758765 m 0
 827.664418434 96.9472758765 915.272281125 250.692237035 915.272281125 495.302015536 c 0
 915.272281125 731.041229267 837.83891455 898.962602351 631.525404157 898.962602351 c 0
 414.123687802 898.962602351 315.949191686 743.694152845 316.166832878 511.476511652 c 0
 316.166832878 237.082458535 434.953023305 96.9472758765 624.307762965 96.9472758765 c 0
EndSplineSet
EndChar

StartChar: backslash
Encoding: 92 92 74
Width: 882
VWidth: 0
Flags: HW
LayerCount: 2
UndoRedoHistory
Layer: 1
Undoes
EndUndoes
Redoes
EndRedoes
EndUndoRedoHistory
Fore
SplineSet
633.619357548 -41.3959689271 m 1
 119.437198194 1349.30584716 l 1
 237.337497376 1349.30584716 l 1
 750.954939114 -41.3959689271 l 1
 633.619357548 -41.3959689271 l 1
EndSplineSet
EndChar

StartChar: bar
Encoding: 124 124 75
Width: 312
VWidth: 0
Flags: HW
LayerCount: 2
UndoRedoHistory
Layer: 1
Undoes
EndUndoes
Redoes
EndRedoes
EndUndoRedoHistory
Fore
SplineSet
99.1610854503 -348.401716355 m 1
 99.1610854503 1456.73921373 l 1
 210.716224018 1456.73921373 l 1
 210.716224018 -348.401716355 l 1
 99.1610854503 -348.401716355 l 1
EndSplineSet
EndChar

StartChar: beta
Encoding: 946 946 76
Width: 463
VWidth: 0
Flags: HW
LayerCount: 2
UndoRedoHistory
Layer: 1
Undoes
EndUndoes
Redoes
EndRedoes
EndUndoRedoHistory
Fore
SplineSet
225.348992232 484.478427462 m 0
 146.523488348 484.478427462 106.219557002 543.303931346 106.219557002 602.607862692 c 0
 106.219557002 661.911794037 146.523488348 720.737297921 225.348992232 720.737297921 c 0
 305.174496116 720.737297921 344.956854923 661.911794037 344.956854923 602.607862692 c 0
 344.956854923 543.303931346 305.174496116 484.478427462 225.348992232 484.478427462 c 0
EndSplineSet
EndChar

StartChar: braceright
Encoding: 125 125 77
Width: 736
VWidth: 0
Flags: HW
LayerCount: 2
UndoRedoHistory
Layer: 1
Undoes
EndUndoes
Redoes
EndRedoes
EndUndoRedoHistory
Fore
SplineSet
107.350908041 -258.305847155 m 1
 107.350908041 -149.011494856 l 1
 240.74304535 -147.011494856 284.615525929 -91.660586815 284.615525929 71.1275194205 c 2
 284.615525929 313.38830569 l 2
 284.615525929 427.996168381 321.917541465 482.125603611 452.615525929 577.305847155 c 1
 327.570465043 614.609778501 284.397884737 727.48417489 284.615525929 832.960686542 c 2
 284.615525929 1073.96068654 l 2
 284.615525929 1231.57429666 243.221472811 1294.09970082 107.350908041 1296.09970082 c 1
 107.350908041 1403.69798446 l 1
 325.651007768 1403.69798446 406.906046609 1290.51774092 406.906046609 1083.30201554 c 2
 406.906046609 909.35473966 l 2
 406.906046609 747.48225908 423.860985723 632.821672265 604.080542725 630.343244804 c 1
 604.080542725 517.137098467 l 1
 429.860985723 517.137098467 406.906046609 397.519656729 406.906046609 237.821672265 c 2
 406.906046609 25.6960686542 l 2
 406.906046609 -155.735382112 306.474595843 -257.566633424 107.350908041 -258.305847155 c 1
EndSplineSet
EndChar

StartChar: bracketleft
Encoding: 91 91 78
Width: 639
VWidth: 0
Flags: HW
LayerCount: 2
UndoRedoHistory
Layer: 1
Undoes
EndUndoes
Redoes
EndRedoes
EndUndoRedoHistory
Fore
SplineSet
130.731550493 -240.319257821 m 1
 130.731550493 1374.86290153 l 1
 538.337497376 1374.86290153 l 1
 538.337497376 1267.30584716 l 1
 263.371063405 1267.30584716 l 1
 263.371063405 -133.979844636 l 1
 538.337497376 -133.979844636 l 1
 538.337497376 -240.319257821 l 1
 130.731550493 -240.319257821 l 1
EndSplineSet
EndChar

StartChar: bracketright
Encoding: 93 93 79
Width: 641
VWidth: 0
Flags: HW
LayerCount: 2
UndoRedoHistory
Layer: 1
Undoes
EndUndoes
Redoes
EndRedoes
EndUndoRedoHistory
Fore
SplineSet
103.823588075 -240.319257821 m 1
 103.823588075 -134.240630905 l 1
 378.790022045 -134.240630905 l 1
 378.790022045 1267.04506089 l 1
 103.823588075 1267.04506089 l 1
 103.823588075 1374.86290153 l 1
 510.690321226 1374.86290153 l 1
 510.690321226 -240.319257821 l 1
 103.823588075 -240.319257821 l 1
EndSplineSet
EndChar

StartChar: breve
Encoding: 728 728 80
Width: 704
VWidth: 0
Flags: HW
LayerCount: 2
UndoRedoHistory
Layer: 1
Undoes
EndUndoes
Redoes
EndRedoes
EndUndoRedoHistory
Fore
SplineSet
350.74304535 1200.3154262 m 0
 250.488006509 1200.3154262 135.96643397 1262.05272412 135.96643397 1417.44294562 c 1
 224.131351039 1417.44294562 l 1
 224.131351039 1324.6567552 287.092037581 1279.95877073 350.74304535 1279.95877073 c 0
 414.394053118 1279.95877073 482.050808314 1324.6567552 482.050808314 1417.44294562 c 1
 568.998084191 1417.44294562 l 1
 568.998084191 1262.53115159 451.998084191 1200.3154262 350.74304535 1200.3154262 c 0
EndSplineSet
EndChar

StartChar: brokenbar
Encoding: 166 166 81
Width: 304
VWidth: 0
Flags: HW
LayerCount: 2
UndoRedoHistory
Layer: 1
Undoes
EndUndoes
Redoes
EndRedoes
EndUndoRedoHistory
Fore
SplineSet
95.2416281755 -368.786190426 m 1
 95.2416281755 271.123687802 l 1
 207.535980474 271.123687802 l 1
 207.535980474 -368.786190426 l 1
 95.2416281755 -368.786190426 l 1
95.2416281755 806.268449507 m 1
 95.2416281755 1443.69990027 l 1
 207.535980474 1443.69990027 l 1
 207.535980474 806.268449507 l 1
 95.2416281755 806.268449507 l 1
EndSplineSet
EndChar

StartChar: bullet
Encoding: 8226 8226 82
Width: 789
VWidth: 0
Flags: HW
LayerCount: 2
UndoRedoHistory
Layer: 1
Undoes
EndUndoes
Redoes
EndRedoes
EndUndoRedoHistory
Fore
SplineSet
394.211893764 391.268449507 m 0
 241.737297921 391.268449507 102.519656729 497.656755196 102.519656729 690.441029813 c 0
 102.519656729 885.442945623 245.519656729 995.831251312 399.211893764 995.831251312 c 0
 551.9041308 995.831251312 692.121771992 888.486090699 692.121771992 694.962602351 c 0
 692.121771992 501.178327735 548.164917069 391.268449507 394.211893764 391.268449507 c 0
EndSplineSet
EndChar

StartChar: c
Encoding: 99 99 83
Width: 939
VWidth: 0
Flags: HW
LayerCount: 2
UndoRedoHistory
Layer: 1
Undoes
EndUndoes
Redoes
EndRedoes
EndUndoRedoHistory
Fore
SplineSet
578.739213731 -18 m 0
 294.088205963 -18 110.61169431 195.133266849 110.61169431 491.605946882 c 0
 110.61169431 802.776611379 307.696068654 1013.64909196 589.131351039 1013.64909196 c 0
 691.433366576 1013.64909196 782.25887046 985.431450766 845.039313458 946.433366576 c 1
 801.302015536 846.050808314 l 1
 723.253123032 889.184075163 649.035481839 897.658671006 609.521572538 897.658671006 c 0
 386.425703338 897.658671006 260.164917069 732.782358807 260.164917069 490.823588075 c 0
 260.164917069 272.041229267 372.511993491 99.8159248373 597.347076422 97.9904209532 c 0
 680.694152845 96.6864896074 763.564717615 123.468848415 813.127519421 151.641428721 c 1
 842.431450766 50.6941528448 l 1
 806.735382112 21.7804429981 709.037397649 -18 578.739213731 -18 c 0
EndSplineSet
EndChar

StartChar: caron
Encoding: 711 711 84
Width: 742
VWidth: 0
Flags: HW
LayerCount: 2
UndoRedoHistory
Layer: 1
Undoes
EndUndoes
Redoes
EndRedoes
EndUndoRedoHistory
Fore
SplineSet
267.303931346 1152.13901428 m 1
 119.83699874 1508.35857128 l 1
 215.12943523 1508.35857128 l 1
 367.305847155 1200.60403107 l 1
 512.87056477 1508.35857128 l 1
 609.206146336 1508.35857128 l 1
 462.478427462 1152.13901428 l 1
 267.303931346 1152.13901428 l 1
EndSplineSet
EndChar

StartChar: cedilla
Encoding: 184 184 85
Width: 550
VWidth: 0
Flags: HW
LayerCount: 2
UndoRedoHistory
Layer: 1
Undoes
EndUndoes
Redoes
EndRedoes
EndUndoRedoHistory
Fore
SplineSet
121.399800546 -390.140930086 m 1
 218.919457275 4.55897018686 l 1
 276.474595843 4.55897018686 l 1
 240.954939114 -390.140930086 l 1
 121.399800546 -390.140930086 l 1
EndSplineSet
EndChar

StartChar: cent
Encoding: 162 162 86
Width: 986
VWidth: 0
Flags: HW
LayerCount: 2
UndoRedoHistory
Layer: 1
Undoes
EndUndoes
Redoes
EndRedoes
EndUndoRedoHistory
Fore
SplineSet
555.441029813 42.4601879068 m 1
 555.441029813 179.319257821 l 1
 268.394053118 203.319257821 121.701816082 445.760287634 121.701816082 698.187906781 c 1
 123.441029813 948.746876968 276.045060886 1199.5819599 555.441029813 1224.49566975 c 1
 555.441029813 1382.79576947 l 1
 637.525404157 1382.79576947 l 1
 637.525404157 1224.71331094 l 1
 737.178327735 1219.40937959 822.266533697 1186.97409721 869.221472811 1139.49566975 c 1
 835.701816082 1045.63468402 l 1
 766.654839387 1091.11502729 699.654839387 1108.76603506 637.525404157 1112.85232522 c 1
 637.525404157 288.962602351 l 1
 716.395968927 295.48417489 785.570465043 328.180243544 835.744961159 363.876312198 c 1
 867.872480579 269.493753937 l 1
 813.917541465 214.840830359 722.176411925 185.101616628 637.525404157 179.319257821 c 1
 637.525404157 42.4601879068 l 1
 555.441029813 42.4601879068 l 1
555.441029813 289.178327735 m 1
 555.441029813 1109.72097418 l 1
 379.651007768 1084.24254671 252.298183918 909.407463783 252.298183918 692.795769473 c 0
 252.298183918 482.315426202 371.651007768 315.48225908 555.441029813 289.178327735 c 1
EndSplineSet
EndChar

StartChar: chi
Encoding: 967 967 87
Width: 1185
VWidth: 0
Flags: HW
LayerCount: 2
UndoRedoHistory
Layer: 1
Undoes
EndUndoes
Redoes
EndRedoes
EndUndoRedoHistory
Fore
SplineSet
131.489922318 0 m 1
 501.491838127 505.215725383 l 1
 144.793853664 993.345160613 l 1
 298.25695465 993.345160613 l 1
 581.395968927 608.164917069 l 1
 864.664418434 993.345160613 l 1
 1029.65100777 993.345160613 l 1
 661.821672265 502.519656729 l 1
 1037.69415284 0 l 1
 881.970265589 0 l 1
 582.874396389 405.266533697 l 1
 285.431450766 0 l 1
 131.489922318 0 l 1
EndSplineSet
EndChar

StartChar: circumflex
Encoding: 710 710 88
Width: 742
VWidth: 0
Flags: HW
LayerCount: 2
UndoRedoHistory
Layer: 1
Undoes
EndUndoes
Redoes
EndRedoes
EndUndoRedoHistory
Fore
SplineSet
117.488006509 1158.83891455 m 1
 268.956854923 1508.35857128 l 1
 462 1508.35857128 l 1
 612.251207222 1158.83891455 l 1
 510.521572538 1158.83891455 l 1
 367.305847155 1419.36815033 l 1
 218.652923578 1158.83891455 l 1
 117.488006509 1158.83891455 l 1
EndSplineSet
EndChar

StartChar: colon
Encoding: 58 58 89
Width: 507
VWidth: 0
Flags: HW
LayerCount: 2
UndoRedoHistory
Layer: 1
Undoes
EndUndoes
Redoes
EndRedoes
EndUndoRedoHistory
Fore
SplineSet
165.866733151 -25.1332668486 m 1
 165.866733151 174.337497376 l 1
 332.42187172 174.337497376 l 1
 332.42187172 -25.1332668486 l 1
 165.866733151 -25.1332668486 l 1
165.866733151 821.615525929 m 1
 165.866733151 1021.17449612 l 1
 332.42187172 1021.17449612 l 1
 332.42187172 821.615525929 l 1
 165.866733151 821.615525929 l 1
EndSplineSet
EndChar

StartChar: comma
Encoding: 44 44 90
Width: 456
VWidth: 0
Flags: HW
LayerCount: 2
UndoRedoHistory
Layer: 1
Undoes
EndUndoes
Redoes
EndRedoes
EndUndoRedoHistory
Fore
SplineSet
136.696068654 -257.394053118 m 1
 156.654839387 -91.0709636784 162.602115263 47.6299338652 172.211893764 205.821672265 c 1
 335.29052068 205.821672265 l 1
 336.204230527 169.302015536 l 1
 294.8082616 12.5887045979 270.082458535 -91.8101774092 208.727718875 -257.394053118 c 1
 136.696068654 -257.394053118 l 1
EndSplineSet
EndChar

StartChar: commaaccentcomb
Encoding: 806 806 91
Width: 333
VWidth: 0
Flags: HW
LayerCount: 2
UndoRedoHistory
Layer: 1
Undoes
EndUndoes
Redoes
EndRedoes
EndUndoRedoHistory
Fore
SplineSet
53.4765116523 -615.262702079 m 1
 135.25695465 -166.570465043 l 1
 264.855238295 -166.570465043 l 1
 142.380642452 -615.262702079 l 1
 53.4765116523 -615.262702079 l 1
EndSplineSet
EndChar

StartChar: copyright
Encoding: 169 169 92
Width: 1711
VWidth: 0
Flags: HW
LayerCount: 2
UndoRedoHistory
Layer: 1
Undoes
EndUndoes
Redoes
EndRedoes
EndUndoRedoHistory
Fore
SplineSet
855.83699874 248.566633424 m 0
 601.791937854 248.566633424 419.617441738 450.090121772 419.617441738 721.874396389 c 0
 419.617441738 995.529235776 596.748792778 1196.26844951 869.621273357 1196.26844951 c 0
 978.621273357 1196.26844951 1075.31734201 1165.35473966 1150.79576947 1113.13709847 c 1
 1094.83891455 1029.53115159 l 1
 1041.18790678 1069.74879278 945.142845895 1092.44486143 854.748792778 1092.44486143 c 0
 628.568549234 1092.44486143 536.092037581 914.656755196 536.092037581 727.048892505 c 0
 536.092037581 518.786190426 636.221472811 349.911794037 876.96834978 349.911794037 c 0
 966.623189166 349.911794037 1074.53881482 383.217641193 1122.01532647 417.521572538 c 1
 1154.01341067 322.566633424 l 1
 1092.3624029 282.958770733 970.011494856 248.566633424 855.83699874 248.566633424 c 0
844.921373084 50.3413289943 m 0
 1277.01915809 50.3413289943 1482.31925782 348.519656729 1482.31925782 712.872480579 c 0
 1482.31925782 1075.74687697 1274.54073063 1379.62127336 840.22530443 1379.62127336 c 0
 432.347076422 1379.62127336 223.829335503 1077.22530443 223.829335503 718.307762965 c 0
 223.829335503 350.737297921 432.347076422 50.3413289943 844.921373084 50.3413289943 c 0
844.921373084 -29.5685492337 m 0
 492.83699874 -29.5685492337 126.701816082 206.643344531 126.701816082 716.090121772 c 0
 126.701816082 1224.79768528 488.140930086 1457.57429666 840.22530443 1457.57429666 c 0
 1218.22530443 1457.57429666 1579.9252047 1222.31925782 1579.9252047 716.090121772 c 0
 1579.9252047 206.643344531 1222.44294562 -29.5685492337 844.921373084 -29.5685492337 c 0
EndSplineSet
EndChar

StartChar: currency
Encoding: 164 164 93
Width: 1228
VWidth: 0
Flags: HW
LayerCount: 2
UndoRedoHistory
Layer: 1
Undoes
EndUndoes
Redoes
EndRedoes
EndUndoRedoHistory
Fore
SplineSet
1026.49183813 211.478427462 m 1
 855.795769473 371.913709847 l 1
 788.621273357 316.303931346 705.489922318 285.825503884 612.140930086 285.825503884 c 0
 518.270365316 285.825503884 434.399800546 315.521572538 366.964518161 372.392137308 c 1
 198.093953391 212.478427462 l 1
 140.011494856 271.996168381 l 1
 310.925204703 433.692237035 l 1
 260.097785009 500.605946882 230.662502624 578.519656729 230.662502624 663.911794037 c 0
 230.662502624 748.303931346 260.315426202 827.913709847 310.925204703 894.392137308 c 1
 139.011494856 1058.56663342 l 1
 198.093953391 1116.12751942 l 1
 366.746876968 956.692237035 l 1
 434.399800546 1013.51965673 519.791937854 1042.99808419 612.140930086 1042.99808419 c 0
 705.011494856 1042.99808419 788.83891455 1011.82358807 855.795769473 955.431450766 c 1
 1026.49183813 1116.12751942 l 1
 1081.31351039 1056.08820596 l 1
 912.617441738 894.392137308 l 1
 963.444861432 824.521572538 992.140930086 745.607862692 992.140930086 663.911794037 c 0
 992.140930086 576.302015536 963.488006509 498.431450766 913.617441738 433.692237035 c 1
 1080.31351039 271.039313458 l 1
 1026.49183813 211.478427462 l 1
612.140930086 374.123687802 m 0
 776.666334243 374.123687802 907.060387361 504.039313458 907.060387361 663.911794037 c 0
 907.060387361 823.784274617 775.666334243 954.699900273 612.140930086 954.699900273 c 0
 448.876312198 954.699900273 317.003831619 824.262702079 317.003831619 663.911794037 c 0
 317.003831619 503.300099727 448.876312198 374.123687802 612.140930086 374.123687802 c 0
EndSplineSet
EndChar

StartChar: d
Encoding: 100 100 94
Width: 1171
VWidth: 0
Flags: HW
LayerCount: 2
UndoRedoHistory
Layer: 1
Undoes
EndUndoes
Redoes
EndRedoes
EndUndoRedoHistory
Fore
SplineSet
539.003831619 -17.7392137308 m 0
 258.784274617 -17.7392137308 110.61169431 188.911794037 110.61169431 503.694152845 c 0
 110.61169431 804.562801806 270.350908041 1013.64909196 536.786190426 1013.64909196 c 0
 714.863606795 1013.64909196 802.681297599 931.045458774 861.640280373 828.341206957 c 1
 853.531151585 1063.08820596 l 1
 853.531151585 1380.43528239 l 1
 1004.56280181 1392.26078627 l 1
 1004.56280181 0 l 1
 879.921373084 0 l 1
 865.896127667 183.481160804 l 1
 810.642183162 75.3007056378 714.046695959 -17.7392137308 539.003831619 -17.7392137308 c 0
550.651007768 96.9472758765 m 0
 768.703731892 96.9472758765 858.0958692 253.694152845 858.617441738 485.911794037 c 0
 858.617441738 754.564717615 746.874396389 898.441029813 558.694152845 898.441029813 c 0
 357.555138568 898.441029813 261.643344531 747.347076422 261.643344531 500.911794037 c 0
 261.643344531 264.651007768 343.686489607 96.9472758765 550.651007768 96.9472758765 c 0
EndSplineSet
EndChar

StartChar: dagger
Encoding: 8224 8224 95
Width: 869
VWidth: 0
Flags: HW
LayerCount: 2
UndoRedoHistory
Layer: 1
Undoes
EndUndoes
Redoes
EndRedoes
EndUndoRedoHistory
Fore
SplineSet
377.874396389 111.609778501 m 1
 377.874396389 971.054639933 l 1
 108.701816082 971.054639933 l 1
 108.701816082 1044.60786269 l 1
 377.874396389 1044.60786269 l 1
 377.874396389 1434.66058682 l 1
 474.255038841 1434.66058682 l 1
 474.255038841 1044.60786269 l 1
 748.078626916 1044.60786269 l 1
 748.078626916 971.054639933 l 1
 476.604031073 971.054639933 l 1
 476.604031073 111.609778501 l 1
 377.874396389 111.609778501 l 1
EndSplineSet
EndChar

StartChar: daggerdbl
Encoding: 8225 8225 96
Width: 935
VWidth: 0
Flags: HW
LayerCount: 2
UndoRedoHistory
Layer: 1
Undoes
EndUndoes
Redoes
EndRedoes
EndUndoRedoHistory
Fore
SplineSet
415.572380852 140.366234516 m 1
 415.572380852 445.142845895 l 1
 127.697984464 445.142845895 l 1
 127.697984464 561.572380852 l 1
 415.572380852 561.572380852 l 1
 415.572380852 987.187906781 l 1
 132.654839387 987.187906781 l 1
 132.654839387 1103.52923578 l 1
 415.572380852 1103.52923578 l 1
 415.572380852 1436.05272412 l 1
 513.431450766 1436.05272412 l 1
 513.431450766 1103.52923578 l 1
 802.045060886 1103.52923578 l 1
 802.045060886 987.187906781 l 1
 513.431450766 987.187906781 l 1
 512.953023305 561.572380852 l 1
 795.348992232 561.572380852 l 1
 795.348992232 445.142845895 l 1
 512.953023305 445.142845895 l 1
 512.953023305 140.366234516 l 1
 415.572380852 140.366234516 l 1
EndSplineSet
EndChar

StartChar: dblgravecmb
Encoding: 783 783 97
Width: 700
VWidth: 0
Flags: HW
LayerCount: 2
UndoRedoHistory
Layer: 1
Undoes
EndUndoes
Redoes
EndRedoes
EndUndoRedoHistory
Fore
SplineSet
309.350908041 1159.87822801 m 1
 102.317342011 1461.18024354 l 1
 198.384474071 1461.18024354 l 1
 378.600199454 1159.87822801 l 1
 309.350908041 1159.87822801 l 1
528.686489607 1159.87822801 m 1
 321.521572538 1461.18024354 l 1
 423.112192946 1461.18024354 l 1
 592.541727903 1159.87822801 l 1
 528.686489607 1159.87822801 l 1
EndSplineSet
EndChar

StartChar: dcroat
Encoding: 273 273 98
Width: 1193
VWidth: 0
Flags: HW
LayerCount: 2
UndoRedoHistory
Layer: 1
Undoes
EndUndoes
Redoes
EndRedoes
EndUndoRedoHistory
Fore
SplineSet
565 -21 m 0
 286 -21 126 198 126 504 c 0
 126 807 304 1019 564 1019 c 0
 696 1019 822 955 888 862 c 1
 884 928 884 991 884 1053 c 2
 884 1417 l 1
 1058 1431 l 1
 1058 0 l 1
 901 0 l 1
 884 163 l 1
 829 45 702 -21 565 -21 c 0
128 1118 m 1
 128 1220 l 1
 591 1220 l 1
 591 1118 l 1
 128 1118 l 1
592 108 m 0
 798 108 884 252 884 482 c 0
 884 741 807 891 592 891 c 0
 401 891 301 738 301 499 c 0
 301 265 398 108 592 108 c 0
EndSplineSet
EndChar

StartChar: degree
Encoding: 176 176 99
Width: 771
VWidth: 0
Flags: HW
LayerCount: 2
UndoRedoHistory
Layer: 1
Undoes
EndUndoes
Redoes
EndRedoes
EndUndoRedoHistory
Fore
SplineSet
381.043145077 921.305847155 m 0
 482.829335503 921.305847155 564.092037581 1007.57046504 564.092037581 1107.44102981 c 0
 564.092037581 1208.26844951 482.829335503 1291.53306739 381.303931346 1291.53306739 c 0
 281.474595843 1291.53306739 198.951107495 1208.26844951 198.951107495 1107.44102981 c 0
 198.951107495 1006.09203758 279.996168381 921.305847155 381.043145077 921.305847155 c 0
380.303931346 816.874396389 m 0
 234.699900273 816.874396389 99.6529235776 944.786190426 99.6529235776 1105.78810624 c 0
 99.6529235776 1265.35473966 234.003831619 1393.35473966 380.303931346 1393.35473966 c 0
 528.778527189 1393.35473966 662.651007768 1265.35473966 662.651007768 1105.78810624 c 0
 662.651007768 950.960686542 532.300099727 816.874396389 380.303931346 816.874396389 c 0
EndSplineSet
EndChar

StartChar: delta
Encoding: 948 948 100
Width: 463
VWidth: 0
Flags: HW
LayerCount: 2
UndoRedoHistory
Layer: 1
Undoes
EndUndoes
Redoes
EndRedoes
EndUndoRedoHistory
Fore
SplineSet
225.348992232 484.478427462 m 0
 146.523488348 484.478427462 106.219557002 543.303931346 106.219557002 602.607862692 c 0
 106.219557002 661.911794037 146.523488348 720.737297921 225.348992232 720.737297921 c 0
 305.174496116 720.737297921 344.956854923 661.911794037 344.956854923 602.607862692 c 0
 344.956854923 543.303931346 305.174496116 484.478427462 225.348992232 484.478427462 c 0
EndSplineSet
EndChar

StartChar: dieresis
Encoding: 168 168 101
Width: 706
VWidth: 0
Flags: HW
LayerCount: 2
UndoRedoHistory
Layer: 1
Undoes
EndUndoes
Redoes
EndRedoes
EndUndoRedoHistory
Fore
SplineSet
119.919457275 1145.61169431 m 1
 119.919457275 1327.03931346 l 1
 245.172580307 1327.03931346 l 1
 245.172580307 1145.61169431 l 1
 119.919457275 1145.61169431 l 1
468.568549234 1145.61169431 m 1
 468.568549234 1327.03931346 l 1
 594.300099727 1327.03931346 l 1
 594.300099727 1145.61169431 l 1
 468.568549234 1145.61169431 l 1
EndSplineSet
EndChar

StartChar: dieresistonos
Encoding: 901 901 102
Width: 430
VWidth: 0
Flags: HW
LayerCount: 2
UndoRedoHistory
Layer: 1
Undoes
EndUndoes
Redoes
EndRedoes
EndUndoRedoHistory
Fore
SplineSet
216.478427462 484.478427462 m 0
 137.652923578 484.478427462 97.3489922318 543.303931346 97.3489922318 602.607862692 c 0
 97.3489922318 661.911794037 137.652923578 720.737297921 216.478427462 720.737297921 c 0
 296.303931346 720.737297921 335.347076422 661.911794037 335.347076422 602.607862692 c 0
 335.347076422 543.303931346 296.303931346 484.478427462 216.478427462 484.478427462 c 0
EndSplineSet
EndChar

StartChar: divide
Encoding: 247 247 103
Width: 1070
VWidth: 0
Flags: HW
LayerCount: 2
UndoRedoHistory
Layer: 1
Undoes
EndUndoes
Redoes
EndRedoes
EndUndoRedoHistory
Fore
SplineSet
442.860985723 20.2176411925 m 1
 442.860985723 215.427619148 l 1
 589.761284904 215.427619148 l 1
 589.761284904 20.2176411925 l 1
 442.860985723 20.2176411925 l 1
85.2531230317 483.178327735 m 1
 85.2531230317 607.823588075 l 1
 973.459269368 607.823588075 l 1
 973.459269368 483.178327735 l 1
 85.2531230317 483.178327735 l 1
442.860985723 867.22530443 m 1
 442.860985723 1064.00191581 l 1
 627.329834138 1064.00191581 l 1
 627.329834138 867.22530443 l 1
 442.860985723 867.22530443 l 1
EndSplineSet
EndChar

StartChar: dotaccent
Encoding: 729 729 104
Width: 344
VWidth: 0
Flags: HW
LayerCount: 2
UndoRedoHistory
Layer: 1
Undoes
EndUndoes
Redoes
EndRedoes
EndUndoRedoHistory
Fore
SplineSet
103.953023305 1192.57238085 m 1
 103.953023305 1365.65483939 l 1
 243.555138568 1365.65483939 l 1
 243.555138568 1192.57238085 l 1
 103.953023305 1192.57238085 l 1
EndSplineSet
EndChar

StartChar: dotlessi
Encoding: 305 305 105
Width: 393
VWidth: 0
Flags: HW
LayerCount: 2
UndoRedoHistory
Layer: 1
Undoes
EndUndoes
Redoes
EndRedoes
EndUndoRedoHistory
Fore
SplineSet
136.350908041 0 m 1
 136.350908041 995.302015536 l 1
 262.859069914 995.302015536 l 1
 262.859069914 0 l 1
 136.350908041 0 l 1
EndSplineSet
EndChar

StartChar: e
Encoding: 101 101 106
Width: 1085
VWidth: 0
Flags: HW
LayerCount: 2
UndoRedoHistory
Layer: 1
Undoes
EndUndoes
Redoes
EndRedoes
EndUndoRedoHistory
Fore
SplineSet
840.032423831 572.343244804 m 1
 830.208996616 788.101234025 746.626480587 901.309678774 582.564717615 901.309678774 c 0
 412.877829829 901.309678774 284.121450012 772.645114512 264.095475838 572.343244804 c 1
 840.032423831 572.343244804 l 1
591.953023305 -18 m 0
 310.956854923 -18 110.61169431 174.12943523 110.61169431 492.041229267 c 0
 110.61169431 816.694152845 323.350908041 1013.38830569 578.347076422 1013.64909196 c 0
 828.51774092 1013.64909196 972.341328994 830.390221499 972.341328994 552.086290153 c 0
 972.341328994 526.737297921 966.819756456 476.829335503 966.819756456 476.829335503 c 1
 258.490632417 476.829335503 l 1
 268.145572238 206.725013416 416.345253861 97.1217719924 604.864817342 97.1217719924 c 0
 719.076711106 97.1217719924 818.074795297 123.814009028 914.776611379 170.9041308 c 1
 949.037397649 69.2607862692 l 1
 854.51582511 14.9137098467 739.082458535 -18 591.953023305 -18 c 0
EndSplineSet
EndChar

StartChar: eight
Encoding: 56 56 107
Width: 1156
VWidth: 0
Flags: HW
LayerCount: 2
UndoRedoHistory
Layer: 1
Undoes
EndUndoes
Redoes
EndRedoes
EndUndoRedoHistory
Fore
SplineSet
579.037397649 -18 m 0
 338.907962419 -18 141.38830569 99.7372979215 141.38830569 337.605946882 c 0
 141.38830569 527 244.911794037 641.739213731 427.874396389 704.260786269 c 1
 280.652923578 751.433366576 170.084374344 865.652923578 170.084374344 1032.43719819 c 0
 170.084374344 1245.21764119 338.558970187 1368.08820596 579.51582511 1368.08820596 c 0
 819.51582511 1368.08820596 985.468848415 1245.21764119 985.468848415 1032.43719819 c 0
 985.468848415 864.956854923 884.378726643 760.086290153 731.8082616 706.478427462 c 1
 906.03165022 651.827419693 1015.38255826 512.433366576 1015.38255826 337.345160613 c 0
 1015.38255826 99.954939114 820.862901533 -18 579.037397649 -18 c 0
579.037397649 93.384474071 m 0
 781.913709847 93.384474071 878.437198194 175.298183918 878.437198194 344.911794037 c 0
 878.437198194 504.001915809 751.651007768 605.525404157 579.037397649 642.003831619 c 1
 407.641428721 605.525404157 276.159169641 510.915625656 276.159169641 344.651007768 c 0
 276.159169641 181.951107495 381.596367835 93.384474071 579.037397649 93.384474071 c 0
579.037397649 753.562801806 m 1
 756.12943523 791.954939114 844.260786269 889.435282385 844.260786269 1036.61169431 c 0
 844.260786269 1171.8763122 739.737297921 1254.87822801 579.037397649 1254.87822801 c 0
 419.815924837 1254.87822801 310.814009028 1171.8763122 310.814009028 1036.61169431 c 0
 310.814009028 889.435282385 403.16300126 791.954939114 579.037397649 753.562801806 c 1
EndSplineSet
EndChar

StartChar: ellipsis
Encoding: 8230 8230 108
Width: 1354
VWidth: 0
Flags: HW
LayerCount: 2
UndoRedoHistory
Layer: 1
Undoes
EndUndoes
Redoes
EndRedoes
EndUndoRedoHistory
Fore
SplineSet
228 -11 m 0
 148 -11 107 49 107 109 c 0
 107 169 147 229 228 229 c 0
 309 229 349 169 349 109 c 0
 349 49 309 -11 228 -11 c 0
678 -11 m 0
 598 -11 557 49 557 109 c 0
 557 169 597 229 678 229 c 0
 759 229 799 169 799 109 c 0
 799 49 759 -11 678 -11 c 0
1127 -11 m 0
 1047 -11 1006 49 1006 109 c 0
 1006 169 1046 229 1127 229 c 0
 1208 229 1249 169 1249 109 c 0
 1249 49 1208 -11 1127 -11 c 0
EndSplineSet
EndChar

StartChar: emdash
Encoding: 8212 8212 109
Width: 2259
VWidth: 0
Flags: HW
LayerCount: 2
UndoRedoHistory
Layer: 1
Undoes
EndUndoes
Redoes
EndRedoes
EndUndoRedoHistory
Fore
SplineSet
129.142845895 493.660586815 m 1
 129.142845895 616.305847155 l 1
 2120.33075268 616.305847155 l 1
 2120.33075268 493.660586815 l 1
 129.142845895 493.660586815 l 1
EndSplineSet
EndChar

StartChar: endash
Encoding: 8211 8211 110
Width: 1181
VWidth: 0
Flags: HW
LayerCount: 2
UndoRedoHistory
Layer: 1
Undoes
EndUndoes
Redoes
EndRedoes
EndUndoRedoHistory
Fore
SplineSet
113.395968927 493.660586815 m 1
 113.395968927 616.305847155 l 1
 1054.86864896 616.305847155 l 1
 1054.86864896 493.660586815 l 1
 113.395968927 493.660586815 l 1
EndSplineSet
EndChar

StartChar: eng
Encoding: 331 331 111
Width: 1111
VWidth: 0
Flags: HW
LayerCount: 2
UndoRedoHistory
Layer: 1
Undoes
EndUndoes
Redoes
EndRedoes
EndUndoRedoHistory
Fore
SplineSet
591.131351039 -261.77469557 m 1
 584.350908041 -124.737297921 l 1
 617 -124.737297921 l 2
 780.350908041 -124.737297921 796.829335503 -97.9117940374 796.829335503 104.266533697 c 2
 796.829335503 625.305847155 l 2
 796.568549234 794.264617888 759.176411925 899.441029813 597.694152845 899.441029813 c 0
 416.902214991 899.441029813 343.03356603 803.784274617 314.425703338 679.735382112 c 1
 311.035481839 639.737297921 308.035481839 600.480343271 308.035481839 557.35473966 c 2
 308.035481839 0 l 1
 157.003831619 0 l 1
 157.003831619 993.823588075 l 1
 288.125603611 993.823588075 l 1
 305.472680034 844.341328994 l 1
 375.123687802 959.041229267 479.558970187 1014.38830569 622.776611379 1014.38830569 c 0
 851.123687802 1014.38830569 947.860985723 877.694152845 947.860985723 605.996168381 c 2
 947.860985723 153.48417489 l 2
 947.600199454 -122.166832878 911.255038841 -261.77469557 654.87056477 -261.77469557 c 2
 591.131351039 -261.77469557 l 1
EndSplineSet
EndChar

StartChar: epsilon
Encoding: 949 949 112
Width: 463
VWidth: 0
Flags: HW
LayerCount: 2
UndoRedoHistory
Layer: 1
Undoes
EndUndoes
Redoes
EndRedoes
EndUndoRedoHistory
Fore
SplineSet
225.348992232 484.478427462 m 0
 146.523488348 484.478427462 106.219557002 543.303931346 106.219557002 602.607862692 c 0
 106.219557002 661.911794037 146.523488348 720.737297921 225.348992232 720.737297921 c 0
 305.174496116 720.737297921 344.956854923 661.911794037 344.956854923 602.607862692 c 0
 344.956854923 543.303931346 305.174496116 484.478427462 225.348992232 484.478427462 c 0
EndSplineSet
EndChar

StartChar: epsilontonos
Encoding: 941 941 113
Width: 463
VWidth: 0
Flags: HW
LayerCount: 2
UndoRedoHistory
Layer: 1
Undoes
EndUndoes
Redoes
EndRedoes
EndUndoRedoHistory
Fore
SplineSet
225.348992232 484.478427462 m 0
 146.523488348 484.478427462 106.219557002 543.303931346 106.219557002 602.607862692 c 0
 106.219557002 661.911794037 146.523488348 720.737297921 225.348992232 720.737297921 c 0
 305.174496116 720.737297921 344.956854923 661.911794037 344.956854923 602.607862692 c 0
 344.956854923 543.303931346 305.174496116 484.478427462 225.348992232 484.478427462 c 0
EndSplineSet
EndChar

StartChar: equal
Encoding: 61 61 114
Width: 1165
VWidth: 0
Flags: HW
LayerCount: 2
UndoRedoHistory
Layer: 1
Undoes
EndUndoes
Redoes
EndRedoes
EndUndoRedoHistory
Fore
SplineSet
143.305847155 346.697984464 m 1
 143.305847155 461.819756456 l 1
 1010.560886 461.819756456 l 1
 1010.560886 346.697984464 l 1
 143.305847155 346.697984464 l 1
141.827419693 737.658671006 m 1
 141.827419693 852.909878228 l 1
 1010.560886 852.909878228 l 1
 1010.560886 737.658671006 l 1
 141.827419693 737.658671006 l 1
EndSplineSet
EndChar

StartChar: eta
Encoding: 951 951 115
Width: 463
VWidth: 0
Flags: HW
LayerCount: 2
UndoRedoHistory
Layer: 1
Undoes
EndUndoes
Redoes
EndRedoes
EndUndoRedoHistory
Fore
SplineSet
225.348992232 484.478427462 m 0
 146.523488348 484.478427462 106.219557002 543.303931346 106.219557002 602.607862692 c 0
 106.219557002 661.911794037 146.523488348 720.737297921 225.348992232 720.737297921 c 0
 305.174496116 720.737297921 344.956854923 661.911794037 344.956854923 602.607862692 c 0
 344.956854923 543.303931346 305.174496116 484.478427462 225.348992232 484.478427462 c 0
EndSplineSet
EndChar

StartChar: etatonos
Encoding: 942 942 116
Width: 463
VWidth: 0
Flags: HW
LayerCount: 2
UndoRedoHistory
Layer: 1
Undoes
EndUndoes
Redoes
EndRedoes
EndUndoRedoHistory
Fore
SplineSet
225.348992232 484.478427462 m 0
 146.523488348 484.478427462 106.219557002 543.303931346 106.219557002 602.607862692 c 0
 106.219557002 661.911794037 146.523488348 720.737297921 225.348992232 720.737297921 c 0
 305.174496116 720.737297921 344.956854923 661.911794037 344.956854923 602.607862692 c 0
 344.956854923 543.303931346 305.174496116 484.478427462 225.348992232 484.478427462 c 0
EndSplineSet
EndChar

StartChar: eth
Encoding: 240 240 117
Width: 1190
VWidth: 0
Flags: HW
LayerCount: 2
UndoRedoHistory
Layer: 1
Undoes
EndUndoes
Redoes
EndRedoes
EndUndoRedoHistory
Fore
SplineSet
591.003831619 -24.3921373084 m 0
 285.480343271 -24.3921373084 127.397884737 198.786190426 127.397884737 444.088205963 c 0
 127.397884737 710.958770733 300.223388621 890.090121772 563.048892505 890.090121772 c 0
 706.495669746 890.090121772 795.630852404 832.041229267 853.285691791 788.037397649 c 1
 810.111195675 873.737297921 720.154340752 998.87056477 541.790022045 1170.62510498 c 1
 287.003831619 1066.10161663 l 1
 254.093953391 1175.22530443 l 1
 466.795769473 1256.96643397 l 1
 244.0958692 1460.53115159 l 1
 421.474595843 1460.53115159 l 1
 561.696068654 1310.44102981 l 1
 832.003831619 1414.35473966 l 1
 867.652923578 1309.40554797 l 1
 635.647176149 1221.62127336 l 1
 790.348992232 1057.35473966 895.697984464 928.178327735 961.045060886 811.395968927 c 1
 1026.65483939 688.305847155 1054.04506089 579.176411925 1054.30584716 453.568549234 c 0
 1054.30584716 188.874396389 904.223388621 -24.3921373084 591.003831619 -24.3921373084 c 0
596.525404157 87.3374973756 m 0
 803.617441738 87.3374973756 917.793853664 240.300099727 917.793853664 430 c 0
 917.793853664 598.262702079 803.574296662 773.748792778 590.525404157 773.748792778 c 0
 389.303931346 773.748792778 272.431450766 619.307762965 272.431450766 442.87056477 c 0
 272.431450766 262.823588075 376.823588075 87.3374973756 596.525404157 87.3374973756 c 0
EndSplineSet
EndChar

StartChar: exclam
Encoding: 33 33 118
Width: 447
VWidth: 0
Flags: HW
LayerCount: 2
UndoRedoHistory
Layer: 1
Undoes
EndUndoes
Redoes
EndRedoes
EndUndoRedoHistory
Fore
SplineSet
197.339413185 391.38830569 m 1
 143.688405417 1255.62318917 l 1
 143.688405417 1366.78619043 l 1
 305.984673525 1366.78619043 l 1
 305.984673525 1255.62318917 l 1
 257.116024564 391.38830569 l 1
 197.339413185 391.38830569 l 1
226.380642452 -12.1744961159 m 0
 147.555138568 -12.1744961159 113.384474071 46.2157253832 113.384474071 102.039313458 c 0
 113.384474071 158.123687802 147.555138568 215.77469557 226.380642452 215.77469557 c 0
 307.16300126 215.77469557 339.855238295 158.123687802 339.855238295 102.039313458 c 0
 339.855238295 46.2157253832 307.16300126 -12.1744961159 226.380642452 -12.1744961159 c 0
EndSplineSet
EndChar

StartChar: exclamdown
Encoding: 161 161 119
Width: 509
VWidth: 0
Flags: HW
LayerCount: 2
UndoRedoHistory
Layer: 1
Undoes
EndUndoes
Redoes
EndRedoes
EndUndoRedoHistory
Fore
SplineSet
170.313510393 3.39213730842 m 1
 170.313510393 115.03356603 l 1
 217.790022045 979.529235776 l 1
 277.827419693 979.529235776 l 1
 332.87056477 115.03356603 l 1
 332.87056477 3.39213730842 l 1
 170.313510393 3.39213730842 l 1
252.266533697 1153.9252047 m 0
 172.701816082 1153.9252047 139.270365316 1212.3154262 139.270365316 1267.66058682 c 0
 139.270365316 1323.2665337 172.223388621 1382.35282385 252.266533697 1382.35282385 c 0
 331.570465043 1382.35282385 366.480343271 1323.74496116 366.480343271 1267.66058682 c 0
 366.480343271 1212.3154262 331.570465043 1153.9252047 252.266533697 1153.9252047 c 0
EndSplineSet
EndChar

StartChar: f
Encoding: 102 102 120
Width: 713
VWidth: 0
Flags: HW
LayerCount: 2
UndoRedoHistory
Layer: 1
Undoes
EndUndoes
Redoes
EndRedoes
EndUndoRedoHistory
Fore
SplineSet
405.513909301 898.137098467 m 1
 405.513909301 0 l 1
 254.48225908 0 l 1
 254.48225908 898.137098467 l 1
 72.2607862692 898.137098467 l 1
 77.2607862692 977.302015536 l 1
 254.48225908 993.345270448 l 1
 254.48225908 1061 l 2
 254.48225908 1310.82167227 359.086290153 1394.12751942 531.909878228 1394.12751942 c 0
 601.998084191 1394.12751942 663.25887046 1382.21380957 680.731550493 1378.82358807 c 1
 669.558970187 1271.57238085 l 1
 661.735382112 1272.8763122 603.125603611 1281.83316712 560.168748688 1281.83316712 c 0
 464.862901533 1281.83316712 405.513909301 1258.65867101 405.513909301 1067.34707642 c 2
 405.513909301 993.823588075 l 1
 639.427619148 993.823588075 l 1
 639.427619148 898.137098467 l 1
 405.513909301 898.137098467 l 1
EndSplineSet
EndChar

StartChar: five
Encoding: 53 53 121
Width: 1146
VWidth: 0
Flags: HW
LayerCount: 2
UndoRedoHistory
Layer: 1
Undoes
EndUndoes
Redoes
EndRedoes
EndUndoRedoHistory
Fore
SplineSet
535.037397649 -18.7392137308 m 0
 390.131351039 -18.7392137308 244.266533697 35.5589701869 153.519656729 92.2588704598 c 1
 204.819756456 200.337497376 l 1
 284.87056477 150.159169641 403.868648961 102.511993491 520.125603611 102.511993491 c 0
 716.302015536 102.511993491 863.527319966 218.078626916 863.527319966 428.521572538 c 0
 863.527319966 589.697984464 784.180243544 724.964518161 582.38830569 724.964518161 c 0
 488.776611379 724.964518161 393.382558262 687.093953391 335.600199454 624.572380852 c 1
 212.215725383 638.788106236 l 1
 256.607862692 1349.30584716 l 1
 958.513909301 1349.30584716 l 1
 946.688405417 1229.53306739 l 1
 384.465016796 1229.53306739 l 1
 383.943444258 1217.01532647 351.376810834 785.860985723 350.855238295 769.431450766 c 1
 431.902214991 820.521572538 509.511993491 843.911794037 594.037397649 843.911794037 c 0
 869.25695465 843.911794037 1016.64526034 658.302015536 1016.64526034 431.696068654 c 0
 1016.64526034 139.127519421 804.16300126 -18.7392137308 535.037397649 -18.7392137308 c 0
EndSplineSet
EndChar

StartChar: four
Encoding: 52 52 122
Width: 1152
VWidth: 0
Flags: HW
LayerCount: 2
UndoRedoHistory
Layer: 1
Undoes
EndUndoes
Redoes
EndRedoes
EndUndoRedoHistory
Fore
SplineSet
747.872480579 0 m 1
 747.872480579 347.744961159 l 1
 121.737297921 347.744961159 l 1
 121.737297921 478.174496116 l 1
 740.660586815 1349.30584716 l 1
 890.990420953 1349.30584716 l 1
 890.990420953 463.996168381 l 1
 1059.38255826 463.996168381 l 1
 1048.33941318 347.744961159 l 1
 890.990420953 347.744961159 l 1
 890.990420953 0 l 1
 747.872480579 0 l 1
271.333665757 464.431450766 m 1
 747.133266849 464.431450766 l 1
 747.133266849 1159.96834978 l 1
 271.333665757 464.431450766 l 1
EndSplineSet
EndChar

StartChar: fraction
Encoding: 8260 8260 123
Width: 1087
VWidth: 0
Flags: HW
LayerCount: 2
UndoRedoHistory
Layer: 1
Undoes
EndUndoes
Redoes
EndRedoes
EndUndoRedoHistory
Fore
SplineSet
106.313510393 0 m 1
 901.22530443 1421.66058682 l 1
 996.474595843 1421.66058682 l 1
 201.605946882 0 l 1
 106.313510393 0 l 1
EndSplineSet
EndChar

StartChar: g
Encoding: 103 103 124
Width: 1186
VWidth: 0
Flags: HW
LayerCount: 2
UndoRedoHistory
Layer: 1
Undoes
EndUndoes
Redoes
EndRedoes
EndUndoRedoHistory
Fore
SplineSet
522.911794037 -408.692237035 m 0
 435.788106236 -408.692237035 345.140930086 -399.215725383 281.699900273 -391.041229267 c 1
 272.178327735 -274.397884737 l 1
 339.22530443 -280.397884737 426.219557002 -286.527319966 497.172580307 -286.527319966 c 0
 809.052724123 -286.527319966 878.054639933 -188.092037581 878.054639933 73.3528238505 c 2
 877.911050455 176.983750044 l 1
 818.158744781 80.6115244511 706.121884142 -1.42108547152e-14 549.309678774 0 c 0
 242.739213731 0 110.61169431 257.352823851 110.61169431 490.909878228 c 0
 110.61169431 763.076711106 243.474595843 1013.64909196 562.005747428 1013.64909196 c 0
 714.22926339 1013.64909196 819.278388355 946.663393596 880.682820887 840.064832312 c 1
 890.923288894 994.084374344 l 1
 1029.21764119 994.084374344 l 1
 1029.21764119 104.647176149 l 2
 1029.21764119 -204.692237035 945.786190426 -408.692237035 522.911794037 -408.692237035 c 0
561.521572538 115.164917069 m 0
 788.441029813 115.164917069 880.533067394 281.604031073 881.054639933 457.733466303 c 2
 881.054639933 544.87056477 l 2
 881.054639933 737.435282385 788.486090699 897.919457275 563.433366576 898.441029813 c 0
 331.643344531 898.441029813 261.643344531 667.951107495 261.643344531 499.38830569 c 0
 261.643344531 330.433366576 337.121771992 115.164917069 561.521572538 115.164917069 c 0
EndSplineSet
EndChar

StartChar: gamma
Encoding: 947 947 125
Width: 463
VWidth: 0
Flags: HW
LayerCount: 2
UndoRedoHistory
Layer: 1
Undoes
EndUndoes
Redoes
EndRedoes
EndUndoRedoHistory
Fore
SplineSet
225.348992232 484.478427462 m 0
 146.523488348 484.478427462 106.219557002 543.303931346 106.219557002 602.607862692 c 0
 106.219557002 661.911794037 146.523488348 720.737297921 225.348992232 720.737297921 c 0
 305.174496116 720.737297921 344.956854923 661.911794037 344.956854923 602.607862692 c 0
 344.956854923 543.303931346 305.174496116 484.478427462 225.348992232 484.478427462 c 0
EndSplineSet
EndChar

StartChar: grave
Encoding: 96 96 126
Width: 625
VWidth: 0
Flags: HW
LayerCount: 2
UndoRedoHistory
Layer: 1
Undoes
EndUndoes
Redoes
EndRedoes
EndUndoRedoHistory
Fore
SplineSet
394.489922318 1151.22530443 m 1
 105.666334243 1501.8763122 l 1
 313.003831619 1501.8763122 l 1
 478.176411925 1151.22530443 l 1
 394.489922318 1151.22530443 l 1
EndSplineSet
EndChar

StartChar: greater
Encoding: 62 62 127
Width: 1132
VWidth: 0
Flags: HW
LayerCount: 2
UndoRedoHistory
Layer: 1
Undoes
EndUndoes
Redoes
EndRedoes
EndUndoRedoHistory
Fore
SplineSet
136.739213731 130.343244804 m 1
 136.739213731 259.594452026 l 1
 870.101616628 586.731550493 l 1
 138.956854923 949.303931346 l 1
 138.956854923 1077.42570334 l 1
 1011.21764119 621.772779761 l 1
 1011.21764119 541.429534957 l 1
 136.739213731 130.343244804 l 1
EndSplineSet
EndChar

StartChar: greaterequal
Encoding: 8805 8805 128
Width: 1123
VWidth: 0
Flags: HW
LayerCount: 2
UndoRedoHistory
Layer: 1
Undoes
EndUndoes
Redoes
EndRedoes
EndUndoRedoHistory
Fore
SplineSet
149.697984464 217.176411925 m 1
 149.697984464 340.037397649 l 1
 870.189822591 696.262702079 l 1
 153.654839387 1076.83699874 l 1
 153.654839387 1200.65483939 l 1
 980.174496116 732.086290153 l 1
 980.174496116 660.960686542 l 1
 149.697984464 217.176411925 l 1
120.043145077 7.91370984674 m 1
 120.043145077 120.821672265 l 1
 999.697984464 121.300099727 l 1
 999.697984464 7.91370984674 l 1
 120.043145077 7.91370984674 l 1
EndSplineSet
EndChar

StartChar: guillemotleft
Encoding: 171 171 129
Width: 939
VWidth: 0
Flags: HW
LayerCount: 2
UndoRedoHistory
Layer: 1
Undoes
EndUndoes
Redoes
EndRedoes
EndUndoRedoHistory
Fore
SplineSet
367.654839387 139.958770733 m 1
 132.921373084 466.300099727 l 1
 106.221472811 509.300099727 l 1
 370.654839387 875.125603611 l 1
 479.731550493 847.519656729 l 1
 230.253123032 509.390221499 l 1
 473.77469557 167.086290153 l 1
 367.654839387 139.958770733 l 1
706.868648961 139.958770733 m 1
 437.305847155 516 l 1
 708.868648961 875.125603611 l 1
 799.725803065 847.519656729 l 1
 569.206146336 509.390221499 l 1
 797.204230527 167.086290153 l 1
 706.868648961 139.958770733 l 1
EndSplineSet
EndChar

StartChar: guillemotright
Encoding: 187 187 130
Width: 940
VWidth: 0
Flags: HW
LayerCount: 2
UndoRedoHistory
Layer: 1
Undoes
EndUndoes
Redoes
EndRedoes
EndUndoRedoHistory
Fore
SplineSet
214.860985723 139.958770733 m 1
 123.525404157 167.086290153 l 1
 354.045060886 509.390221499 l 1
 124.046976695 847.519656729 l 1
 215.860985723 875.125603611 l 1
 487.16300126 499.823588075 l 1
 214.860985723 139.958770733 l 1
564.553222759 139.958770733 m 1
 458.954939114 167.086290153 l 1
 704.954939114 509.390221499 l 1
 463.694152845 847.519656729 l 1
 567.553222759 875.125603611 l 1
 821.853322486 499.823588075 l 1
 564.553222759 139.958770733 l 1
EndSplineSet
EndChar

StartChar: guilsinglleft
Encoding: 8249 8249 131
Width: 574
VWidth: 0
Flags: HW
LayerCount: 2
UndoRedoHistory
Layer: 1
Undoes
EndUndoes
Redoes
EndRedoes
EndUndoRedoHistory
Fore
SplineSet
324.178327735 168.305847155 m 1
 117.139014277 532.87056477 l 1
 327.221472811 892.825503884 l 1
 433.123687802 892.825503884 l 1
 230.345160613 532.87056477 l 1
 427.123687802 168.305847155 l 1
 324.178327735 168.305847155 l 1
EndSplineSet
EndChar

StartChar: guilsinglright
Encoding: 8250 8250 132
Width: 581
VWidth: 0
Flags: HW
LayerCount: 2
UndoRedoHistory
Layer: 1
Undoes
EndUndoes
Redoes
EndRedoes
EndUndoRedoHistory
Fore
SplineSet
137.793853664 168.305847155 m 1
 339.572380852 533.87056477 l 1
 142.315426202 892.825503884 l 1
 247.478427462 892.825503884 l 1
 451.604031073 533.87056477 l 1
 242.956854923 168.305847155 l 1
 137.793853664 168.305847155 l 1
EndSplineSet
EndChar

StartChar: h
Encoding: 104 104 133
Width: 1135
VWidth: 0
Flags: HW
LayerCount: 2
UndoRedoHistory
Layer: 1
Undoes
EndUndoes
Redoes
EndRedoes
EndUndoRedoHistory
Fore
SplineSet
166.439114004 0 m 1
 166.439114004 1380.43528239 l 1
 317.470764224 1392.26078627 l 1
 317.470764224 1048.03739765 l 1
 312.574522247 853.204834663 l 1
 384.439882084 957.563625205 502.230082842 1013.64909196 644.823588075 1013.64909196 c 0
 863.25887046 1013.64909196 978.604031073 868.472680034 978.604031073 614.38830569 c 2
 978.604031073 0 l 1
 827.572380852 0 l 1
 827.572380852 609.12943523 l 2
 827.572380852 802.350908041 772.570465043 898.701816082 618.392137308 898.701816082 c 0
 376.907962419 898.701816082 316.688405417 718.219557002 316.688405417 547.180243544 c 2
 316.688405417 0 l 1
 166.439114004 0 l 1
EndSplineSet
EndChar

StartChar: hbar
Encoding: 295 295 134
Width: 1155
VWidth: 0
Flags: HW
LayerCount: 2
UndoRedoHistory
Layer: 1
Undoes
EndUndoes
Redoes
EndRedoes
EndUndoRedoHistory
Fore
SplineSet
226.493753937 0 m 1
 226.493753937 1167.13709847 l 1
 143.146677514 1167.13709847 l 1
 143.146677514 1263.78427462 l 1
 226.493753937 1263.78427462 l 1
 226.493753937 1352.73729792 l 1
 352.001915809 1370.73729792 l 1
 352.001915809 1263.78427462 l 1
 600.174496116 1263.78427462 l 1
 600.174496116 1167.13709847 l 1
 352.001915809 1167.13709847 l 1
 352.001915809 851.470764224 l 1
 438.872480579 959.735382112 562.092037581 1020.69415284 722.313510393 1020.69415284 c 0
 935.489922318 1020.69415284 1014.74304535 853.253123032 1014.74304535 601.694152845 c 2
 1014.74304535 0 l 1
 889.234883477 0 l 1
 889.234883477 551.037397649 l 2
 889.234883477 790.480343271 858.538814823 903.137098467 673.96643397 903.137098467 c 0
 505.525404157 903.137098467 371.825503884 776.913709847 352.001915809 680.086290153 c 1
 352.001915809 0 l 1
 226.493753937 0 l 1
EndSplineSet
EndChar

StartChar: hungarumlaut
Encoding: 733 733 135
Width: 706
VWidth: 0
Flags: HW
LayerCount: 2
UndoRedoHistory
Layer: 1
Undoes
EndUndoes
Redoes
EndRedoes
EndUndoRedoHistory
Fore
SplineSet
114.12943523 1168.70947932 m 1
 279.600199454 1465.83508293 l 1
 393.239712366 1465.83508293 l 1
 189.860985723 1168.70947932 l 1
 114.12943523 1168.70947932 l 1
309.03356603 1168.70947932 m 1
 475.8082616 1465.83508293 l 1
 585.794850934 1465.83508293 l 1
 386.461185177 1168.70947932 l 1
 309.03356603 1168.70947932 l 1
EndSplineSet
EndChar

StartChar: hyphen
Encoding: 45 45 136
Width: 688
VWidth: 0
Flags: HW
LayerCount: 2
UndoRedoHistory
Layer: 1
Undoes
EndUndoes
Redoes
EndRedoes
EndUndoRedoHistory
Fore
SplineSet
116.876312198 462.180243544 m 1
 116.876312198 581.605946882 l 1
 559.652923578 581.605946882 l 1
 559.652923578 462.180243544 l 1
 116.876312198 462.180243544 l 1
EndSplineSet
EndChar

StartChar: i
Encoding: 105 105 137
Width: 483
VWidth: 0
Flags: HW
LayerCount: 2
UndoRedoHistory
Layer: 1
Undoes
EndUndoes
Redoes
EndRedoes
EndUndoRedoHistory
Fore
SplineSet
168.786190426 0 m 1
 168.786190426 993.823588075 l 1
 319.817840647 993.823588075 l 1
 319.817840647 0 l 1
 168.786190426 0 l 1
168.786190426 1195.439114 m 1
 168.786190426 1359.47651165 l 1
 319.817840647 1359.47651165 l 1
 319.817840647 1195.439114 l 1
 168.786190426 1195.439114 l 1
EndSplineSet
EndChar

StartChar: infinity
Encoding: 8734 8734 138
Width: 1622
VWidth: 0
Flags: HW
LayerCount: 2
UndoRedoHistory
Layer: 1
Undoes
EndUndoes
Redoes
EndRedoes
EndUndoRedoHistory
Fore
SplineSet
432 231 m 0
 225 231 106 401 106 600 c 0
 106 781 249 925 428 925 c 0
 584 925 699 827 811 678 c 1
 916 822 1031 925 1190 925 c 0
 1397 925 1511 782 1511 584 c 0
 1511 376 1369 231 1188 231 c 0
 1050 231 935 313 811 478 c 1
 702 334 584 231 432 231 c 0
434 347 m 0
 555 347 660 453 746 579 c 1
 661 713 558 813 427 813 c 0
 292 813 209 706 209 581 c 0
 209 463 299 347 434 347 c 0
1190 347 m 0
 1332 347 1399 461 1399 605 c 0
 1399 718 1310 813 1186 813 c 0
 1060 813 958 701 877 581 c 1
 989 428 1074 347 1190 347 c 0
EndSplineSet
EndChar

StartChar: integral
Encoding: 8747 8747 139
Width: 672
VWidth: 0
Flags: HW
LayerCount: 2
UndoRedoHistory
Layer: 1
Undoes
EndUndoes
Redoes
EndRedoes
EndUndoRedoHistory
Fore
SplineSet
148 -390 m 0
 102 -390 75 -383 38 -372 c 1
 37 -246 l 1
 58 -256 90 -258 122 -258 c 0
 231 -258 253 -184 253 -46 c 2
 253 1229 l 2
 253 1440 311 1598 492 1598 c 0
 538 1598 565 1588 602 1577 c 1
 603 1451 l 1
 582 1461 548 1465 516 1465 c 0
 407 1465 384 1393 384 1255 c 2
 384 -23 l 2
 384 -234 329 -390 148 -390 c 0
EndSplineSet
EndChar

StartChar: iota
Encoding: 953 953 140
Width: 463
VWidth: 0
Flags: HW
LayerCount: 2
UndoRedoHistory
Layer: 1
Undoes
EndUndoes
Redoes
EndRedoes
EndUndoRedoHistory
Fore
SplineSet
225.348992232 484.478427462 m 0
 146.523488348 484.478427462 106.219557002 543.303931346 106.219557002 602.607862692 c 0
 106.219557002 661.911794037 146.523488348 720.737297921 225.348992232 720.737297921 c 0
 305.174496116 720.737297921 344.956854923 661.911794037 344.956854923 602.607862692 c 0
 344.956854923 543.303931346 305.174496116 484.478427462 225.348992232 484.478427462 c 0
EndSplineSet
EndChar

StartChar: iotadieresis
Encoding: 970 970 141
Width: 782
VWidth: 0
Flags: HW
LayerCount: 2
UndoRedoHistory
Layer: 1
Undoes
EndUndoes
Redoes
EndRedoes
EndUndoRedoHistory
Fore
SplineSet
145.981760445 1145.61169431 m 1
 145.981760445 1327.03931346 l 1
 270.495669746 1327.03931346 l 1
 270.495669746 1145.61169431 l 1
 145.981760445 1145.61169431 l 1
447.113111484 484.478427462 m 0
 368.2876076 484.478427462 327.983676254 543.303931346 327.983676254 602.607862692 c 0
 327.983676254 661.911794037 368.2876076 720.737297921 447.113111484 720.737297921 c 0
 526.938615368 720.737297921 565.981760445 661.911794037 565.981760445 602.607862692 c 0
 565.981760445 543.303931346 526.938615368 484.478427462 447.113111484 484.478427462 c 0
494.630852404 1145.61169431 m 1
 494.630852404 1327.03931346 l 1
 619.623189166 1327.03931346 l 1
 619.623189166 1145.61169431 l 1
 494.630852404 1145.61169431 l 1
EndSplineSet
EndChar

StartChar: iotadieresistonos
Encoding: 912 912 142
Width: 549
VWidth: 0
Flags: HW
LayerCount: 2
UndoRedoHistory
Layer: 1
Undoes
EndUndoes
Redoes
EndRedoes
EndUndoRedoHistory
Fore
SplineSet
297.791937854 484.478427462 m 0
 218.96643397 484.478427462 178.662502624 543.303931346 178.662502624 602.607862692 c 0
 178.662502624 661.911794037 218.96643397 720.737297921 297.791937854 720.737297921 c 0
 377.617441738 720.737297921 417.399800546 661.911794037 417.399800546 602.607862692 c 0
 417.399800546 543.303931346 377.617441738 484.478427462 297.791937854 484.478427462 c 0
234.001915809 1028.37014487 m 0
 155.176411925 1028.37014487 114.872480579 1087.19564875 114.872480579 1146.4995801 c 0
 114.872480579 1205.80351144 155.176411925 1265.36822906 234.001915809 1265.36822906 c 0
 313.827419693 1265.36822906 352.87056477 1205.80351144 352.87056477 1146.4995801 c 0
 352.87056477 1087.19564875 313.827419693 1028.37014487 234.001915809 1028.37014487 c 0
EndSplineSet
EndChar

StartChar: iotatonos
Encoding: 943 943 143
Width: 463
VWidth: 0
Flags: HW
LayerCount: 2
UndoRedoHistory
Layer: 1
Undoes
EndUndoes
Redoes
EndRedoes
EndUndoRedoHistory
Fore
SplineSet
225.348992232 484.478427462 m 0
 146.523488348 484.478427462 106.219557002 543.303931346 106.219557002 602.607862692 c 0
 106.219557002 661.911794037 146.523488348 720.737297921 225.348992232 720.737297921 c 0
 305.174496116 720.737297921 344.956854923 661.911794037 344.956854923 602.607862692 c 0
 344.956854923 543.303931346 305.174496116 484.478427462 225.348992232 484.478427462 c 0
EndSplineSet
EndChar

StartChar: j
Encoding: 106 106 144
Width: 516
VWidth: 0
Flags: HW
LayerCount: 2
UndoRedoHistory
Layer: 1
Undoes
EndUndoes
Redoes
EndRedoes
EndUndoRedoHistory
Fore
SplineSet
33.6999002729 -402.654839387 m 1
 16.5273199664 -272.748792778 l 1
 60.0469766954 -272.748792778 l 2
 202.525404157 -272.748792778 206.654839387 -238.444861432 206.654839387 -63.1370984674 c 2
 206.654839387 994.084374344 l 1
 358.382558262 994.084374344 l 1
 358.382558262 -92.3192578207 l 2
 358.382558262 -327.96643397 305.253123032 -402.654839387 78.1764119253 -402.654839387 c 2
 33.6999002729 -402.654839387 l 1
206.654839387 1195.439114 m 1
 206.654839387 1359.47651165 l 1
 358.382558262 1359.47651165 l 1
 358.382558262 1195.439114 l 1
 206.654839387 1195.439114 l 1
EndSplineSet
EndChar

StartChar: k
Encoding: 107 107 145
Width: 1041
VWidth: 0
Flags: HW
LayerCount: 2
UndoRedoHistory
Layer: 1
Undoes
EndUndoes
Redoes
EndRedoes
EndUndoRedoHistory
Fore
SplineSet
166.439114004 0 m 1
 166.439114004 1380.43528239 l 1
 317.470764224 1392 l 1
 317.470764224 690.380642452 l 1
 312.150914082 494.210964974 l 1
 817.139014277 993.823588075 l 1
 999.688405417 993.823588075 l 1
 537.431724587 535.072293899 l 1
 1010.38255826 0 l 1
 834.309678774 0 l 1
 432.230618394 459.709113279 l 1
 317.470764224 354.994924967 l 1
 317.470764224 0 l 1
 166.439114004 0 l 1
EndSplineSet
EndChar

StartChar: l
Encoding: 108 108 146
Width: 589
VWidth: 0
Flags: HW
LayerCount: 2
UndoRedoHistory
Layer: 1
Undoes
EndUndoes
Redoes
EndRedoes
EndUndoRedoHistory
Fore
SplineSet
445.821672265 -10.7823588075 m 0
 283.399800546 -10.7823588075 166.439114004 53.0354818392 166.439114004 283.465016796 c 2
 166.439114004 1380.43528239 l 1
 317.470764224 1392.26078627 l 1
 317.470764224 276.855238295 l 2
 317.470764224 139.949191686 356.164917069 96.6864896074 469.994252572 96.6864896074 c 0
 516.735382112 96.6864896074 570.821672265 103.208062146 582.951107495 104.468848415 c 1
 582.951107495 2.08629015326 l 1
 566.341328994 -0.913709846735 512.690321226 -10.7823588075 445.821672265 -10.7823588075 c 0
EndSplineSet
EndChar

StartChar: lambda
Encoding: 955 955 147
Width: 463
VWidth: 0
Flags: HW
LayerCount: 2
UndoRedoHistory
Layer: 1
Undoes
EndUndoes
Redoes
EndRedoes
EndUndoRedoHistory
Fore
SplineSet
225.348992232 484.478427462 m 0
 146.523488348 484.478427462 106.219557002 543.303931346 106.219557002 602.607862692 c 0
 106.219557002 661.911794037 146.523488348 720.737297921 225.348992232 720.737297921 c 0
 305.174496116 720.737297921 344.956854923 661.911794037 344.956854923 602.607862692 c 0
 344.956854923 543.303931346 305.174496116 484.478427462 225.348992232 484.478427462 c 0
EndSplineSet
EndChar

StartChar: ldot
Encoding: 320 320 148
Width: 1062
VWidth: 0
Flags: HW
LayerCount: 2
UndoRedoHistory
Layer: 1
Undoes
EndUndoes
Redoes
EndRedoes
EndUndoRedoHistory
Fore
SplineSet
401 -18 m 0
 244 -18 135 45 135 305 c 2
 135 1417 l 1
 309 1431 l 1
 309 360 l 2
 309 163 313 116 445 116 c 0
 471 116 513 118 542 122 c 1
 551 -3 l 1
 485 -14 427 -18 401 -18 c 0
802 511 m 1
 802 691 l 1
 955 691 l 1
 955 511 l 1
 802 511 l 1
EndSplineSet
EndChar

StartChar: less
Encoding: 60 60 149
Width: 1122
VWidth: 0
Flags: HW
LayerCount: 2
UndoRedoHistory
Layer: 1
Undoes
EndUndoes
Redoes
EndRedoes
EndUndoRedoHistory
Fore
SplineSet
975.652923578 124.647176149 m 1
 104.131351039 542.907962419 l 1
 104.131351039 622.772779761 l 1
 977.87056477 1071.25120722 l 1
 977.87056477 942.390221499 l 1
 242.029734411 586.731550493 l 1
 975.87056477 253.159169641 l 2
 976.131351039 252.898383372 975.652923578 124.647176149 975.652923578 124.647176149 c 1
EndSplineSet
EndChar

StartChar: lessequal
Encoding: 8804 8804 150
Width: 1125
VWidth: 0
Flags: HW
LayerCount: 2
UndoRedoHistory
Layer: 1
Undoes
EndUndoes
Redoes
EndRedoes
EndUndoRedoHistory
Fore
SplineSet
972.956854923 214.697984464 m 1
 150.350908041 658.48225908 l 1
 150.350908041 732.086290153 l 1
 972.956854923 1198.17641193 l 1
 972.956854923 1073.66250262 l 1
 258.857154105 700.958770733 l 1
 972.956854923 338.558970187 l 1
 972.956854923 214.697984464 l 1
115.521572538 7.91370984674 m 1
 115.521572538 121.300099727 l 1
 1000.87248058 120.821672265 l 1
 1000.87248058 7.91370984674 l 1
 115.521572538 7.91370984674 l 1
EndSplineSet
EndChar

StartChar: logicalnot
Encoding: 172 172 151
Width: 1127
VWidth: 0
Flags: HW
LayerCount: 2
UndoRedoHistory
Layer: 1
Undoes
EndUndoes
Redoes
EndRedoes
EndUndoRedoHistory
Fore
SplineSet
897.919457275 238.609778501 m 1
 897.919457275 628.788106236 l 1
 103.868648961 628.788106236 l 1
 103.868648961 746.605946882 l 1
 1001.43145077 746.605946882 l 1
 1001.43145077 238.609778501 l 1
 897.919457275 238.609778501 l 1
EndSplineSet
EndChar

StartChar: lozenge
Encoding: 9674 9674 152
Width: 1091
VWidth: 0
Flags: HW
LayerCount: 2
UndoRedoHistory
Layer: 1
Undoes
EndUndoes
Redoes
EndRedoes
EndUndoRedoHistory
Fore
SplineSet
489.652923578 -44.6960686542 m 1
 106.872480579 703.699900273 l 1
 495.174496116 1455.35665547 l 1
 589.127519421 1455.35665547 l 1
 970.951107495 706.178327735 l 1
 581.605946882 -44.6960686542 l 1
 489.652923578 -44.6960686542 l 1
533.651007768 80.0335660298 m 1
 646.827419693 286.733466303 761.046976695 496.086290153 874.701816082 703.960686542 c 1
 764.046976695 910.356655469 653.305847155 1117.01341067 544.868648961 1325.40937959 c 1
 430.474595843 1120.70947932 317.255038841 912.835082931 203.600199454 705.699900273 c 1
 315.733466303 497.825503884 420.25695465 283.255038841 533.651007768 80.0335660298 c 1
EndSplineSet
EndChar

StartChar: macron
Encoding: 175 175 153
Width: 1014
VWidth: 0
Flags: HW
LayerCount: 2
UndoRedoHistory
Layer: 1
Undoes
EndUndoes
Redoes
EndRedoes
EndUndoRedoHistory
Fore
SplineSet
130.395968927 1377.23296767 m 1
 130.395968927 1497.05463993 l 1
 882.146677514 1497.05463993 l 1
 882.146677514 1377.23296767 l 1
 130.395968927 1377.23296767 l 1
EndSplineSet
EndChar

StartChar: middot
Encoding: 65537 -1 154
Width: 372
VWidth: 0
Flags: HW
LayerCount: 2
UndoRedoHistory
Layer: 1
Undoes
EndUndoes
Redoes
EndRedoes
EndUndoRedoHistory
Fore
SplineSet
107 511 m 1
 107 691 l 1
 260 691 l 1
 260 511 l 1
 107 511 l 1
EndSplineSet
EndChar

StartChar: minus
Encoding: 8722 8722 155
Width: 1089
VWidth: 0
Flags: HW
LayerCount: 2
UndoRedoHistory
Layer: 1
Undoes
EndUndoes
Redoes
EndRedoes
EndUndoRedoHistory
Fore
SplineSet
89.9060466093 499.660586815 m 1
 89.9060466093 623.784274617 l 1
 987.725803065 623.784274617 l 1
 987.725803065 499.660586815 l 1
 89.9060466093 499.660586815 l 1
EndSplineSet
EndChar

StartChar: mu
Encoding: 956 956 156
Width: 451
VWidth: 0
Flags: HW
LayerCount: 2
UndoRedoHistory
Layer: 1
Undoes
EndUndoes
Redoes
EndRedoes
EndUndoRedoHistory
Fore
SplineSet
223 484 m 0
 143 484 102 544 102 604 c 0
 102 664 143 724 223 724 c 0
 304 724 344 664 344 604 c 0
 344 544 304 484 223 484 c 0
EndSplineSet
EndChar

StartChar: multiply
Encoding: 215 215 157
Width: 828
VWidth: 0
Flags: HW
LayerCount: 2
UndoRedoHistory
Layer: 1
Undoes
EndUndoes
Redoes
EndRedoes
EndUndoRedoHistory
Fore
SplineSet
164.541727903 172.874396389 m 1
 76.1553380223 248.823588075 l 1
 335.633765484 552.784274617 l 1
 76.1553380223 856.570465043 l 1
 161.584872979 932.215725383 l 1
 406.886888516 642.51774092 l 1
 652.145758975 932.215725383 l 1
 736.400797817 857.048892505 l 1
 477.618439009 552.784274617 l 1
 458.348073693 567.619357548 736.400797817 248.345160613 736.400797817 248.345160613 c 1
 648.71047659 172.874396389 l 1
 406.886888516 462.050808314 l 1
 164.541727903 172.874396389 l 1
EndSplineSet
EndChar

StartChar: n
Encoding: 110 110 158
Width: 1140
VWidth: 0
Flags: HW
LayerCount: 2
UndoRedoHistory
Layer: 1
Undoes
EndUndoes
Redoes
EndRedoes
EndUndoRedoHistory
Fore
SplineSet
166.439114004 0 m 1
 166.439114004 993.823588075 l 1
 298.300099727 993.823588075 l 1
 315.15488359 854.660085593 l 1
 382.529038768 950.994059539 490.461031422 1013.64909196 652.080542725 1013.64909196 c 0
 880.427619148 1013.64909196 983.817840647 877.694152845 983.817840647 605.996168381 c 2
 983.817840647 0 l 1
 832.786190426 0 l 1
 832.786190426 625.305847155 l 2
 833.264617888 794.264617888 788.480343271 898.701816082 626.998084191 898.701816082 c 0
 383.949191686 898.701816082 317.470764224 735.61169431 317.470764224 557.35473966 c 2
 317.470764224 0 l 1
 166.439114004 0 l 1
EndSplineSet
EndChar

StartChar: notequal
Encoding: 8800 8800 159
Width: 1104
VWidth: 0
Flags: HW
LayerCount: 2
UndoRedoHistory
Layer: 1
Undoes
EndUndoes
Redoes
EndRedoes
EndUndoRedoHistory
Fore
SplineSet
335.729634684 45.3921373084 m 1
 250.825503884 61.5215725383 l 1
 358.825503884 327.178327735 l 1
 120.172580307 327.178327735 l 1
 113.868648961 431.605946882 l 1
 410.996168381 431.605946882 l 1
 561.219557002 726.660586815 l 1
 120.172580307 726.660586815 l 1
 113.347076422 833.217641193 l 1
 608.172580307 833.217641193 l 1
 738.521572538 1105.6567552 l 1
 825.425703338 1093.2665337 l 1
 718.208062146 833.217641193 l 1
 973.77469557 833.217641193 l 1
 980.860985723 727.139014277 l 1
 671.733466303 727.139014277 l 1
 516.553222759 431.345160613 l 1
 976.253123032 431.345160613 l 1
 980.860985723 327.178327735 l 1
 470.557054377 327.178327735 l 1
 335.729634684 45.3921373084 l 1
EndSplineSet
EndChar

StartChar: nu
Encoding: 957 957 160
Width: 463
VWidth: 0
Flags: HW
LayerCount: 2
UndoRedoHistory
Layer: 1
Undoes
EndUndoes
Redoes
EndRedoes
EndUndoRedoHistory
Fore
SplineSet
225.348992232 484.478427462 m 0
 146.523488348 484.478427462 106.219557002 543.303931346 106.219557002 602.607862692 c 0
 106.219557002 661.911794037 146.523488348 720.737297921 225.348992232 720.737297921 c 0
 305.174496116 720.737297921 344.956854923 661.911794037 344.956854923 602.607862692 c 0
 344.956854923 543.303931346 305.174496116 484.478427462 225.348992232 484.478427462 c 0
EndSplineSet
EndChar

StartChar: numbersign
Encoding: 35 35 161
Width: 1132
VWidth: 0
Flags: HW
LayerCount: 2
UndoRedoHistory
Layer: 1
Undoes
EndUndoes
Redoes
EndRedoes
EndUndoRedoHistory
Fore
SplineSet
238.651007768 -22.6097785009 m 1
 305.651007768 374.174496116 l 1
 156.480343271 374.174496116 l 1
 165.480343271 474.557054377 l 1
 321.909878228 474.557054377 l 1
 379.476511652 854.570465043 l 1
 226.001915809 854.570465043 l 1
 234.480343271 953.039313458 l 1
 399.649091959 953.039313458 l 1
 477.780442998 1328.60786269 l 1
 601.511993491 1328.60786269 l 1
 527.380642452 953.039313458 l 1
 759.651007768 953.039313458 l 1
 823.172580307 1328.60786269 l 1
 919.510077682 1328.60786269 l 1
 860.902214991 953.039313458 l 1
 975.331749948 953.039313458 l 1
 963.331749948 855.570465043 l 1
 843.9041308 855.570465043 l 1
 779.380642452 474.557054377 l 1
 902.114108755 474.557054377 l 1
 893.114108755 374.174496116 l 1
 767.382558262 374.174496116 l 1
 686.03356603 -22.6097785009 l 1
 565.25887046 -22.6097785009 l 1
 643.12943523 374.174496116 l 1
 409.16300126 374.174496116 l 1
 336.206146336 -22.6097785009 l 1
 238.651007768 -22.6097785009 l 1
427.857154105 474.557054377 m 1
 662.127519421 474.557054377 l 1
 741.174496116 855.570465043 l 1
 507.425703338 855.570465043 l 1
 427.857154105 474.557054377 l 1
EndSplineSet
EndChar

StartChar: o
Encoding: 111 111 162
Width: 1154
VWidth: 0
Flags: HW
LayerCount: 2
UndoRedoHistory
Layer: 1
Undoes
EndUndoes
Redoes
EndRedoes
EndUndoRedoHistory
Fore
SplineSet
578.086290153 96.6864896074 m 0
 794.615525929 96.6864896074 895.268449507 266.823588075 895.268449507 493.519656729 c 0
 895.268449507 726.303931346 792.658671006 898.701816082 578.086290153 898.701816082 c 0
 368.470764224 898.701816082 260.9041308 727.043145077 260.9041308 494.25887046 c 0
 260.9041308 267.345160613 367.949191686 96.6864896074 578.086290153 96.6864896074 c 0
578.086290153 -18 m 0
 290.478427462 -18 111.350908041 197.392137308 111.350908041 495.737297921 c 0
 111.350908041 800.125603611 287.088205963 1013.64909196 578.086290153 1013.64909196 c 0
 872.12943523 1013.64909196 1044.82167227 801.735382112 1044.82167227 495.737297921 c 0
 1044.82167227 198.305847155 856.51774092 -18 578.086290153 -18 c 0
EndSplineSet
EndChar

StartChar: ogonek
Encoding: 731 731 163
Width: 545
VWidth: 0
Flags: HW
LayerCount: 2
UndoRedoHistory
Layer: 1
Undoes
EndUndoes
Redoes
EndRedoes
EndUndoRedoHistory
Fore
SplineSet
281.12943523 -390.266533697 m 0
 184.521572538 -390.266533697 110.523488348 -334.048892505 110.523488348 -231.876312198 c 0
 110.523488348 -138.444861432 192.825503884 -61.9664339702 284.523488348 -9.13901427672 c 1
 387.827419693 -5.18024354398 l 1
 286.476511652 -78.4429456225 206.427619148 -146.878228008 206.427619148 -210.748792778 c 0
 206.427619148 -261.750708587 254.604031073 -294.533067394 291.125603611 -294.533067394 c 0
 339.429534957 -294.533067394 360.729634684 -287.013410666 417.082458535 -265.011494856 c 1
 416.604031073 -265.011494856 414.733466303 -363.137098467 414.733466303 -363.137098467 c 1
 385.605946882 -376.744961159 326.823588075 -390.266533697 281.12943523 -390.266533697 c 0
EndSplineSet
EndChar

StartChar: omega
Encoding: 969 969 164
Width: 463
VWidth: 0
Flags: HW
LayerCount: 2
UndoRedoHistory
Layer: 1
Undoes
EndUndoes
Redoes
EndRedoes
EndUndoRedoHistory
Fore
SplineSet
225.348992232 484.478427462 m 0
 146.523488348 484.478427462 106.219557002 543.303931346 106.219557002 602.607862692 c 0
 106.219557002 661.911794037 146.523488348 720.737297921 225.348992232 720.737297921 c 0
 305.174496116 720.737297921 344.956854923 661.911794037 344.956854923 602.607862692 c 0
 344.956854923 543.303931346 305.174496116 484.478427462 225.348992232 484.478427462 c 0
EndSplineSet
EndChar

StartChar: omegatonos
Encoding: 974 974 165
Width: 463
VWidth: 0
Flags: HW
LayerCount: 2
UndoRedoHistory
Layer: 1
Undoes
EndUndoes
Redoes
EndRedoes
EndUndoRedoHistory
Fore
SplineSet
225.348992232 484.478427462 m 0
 146.523488348 484.478427462 106.219557002 543.303931346 106.219557002 602.607862692 c 0
 106.219557002 661.911794037 146.523488348 720.737297921 225.348992232 720.737297921 c 0
 305.174496116 720.737297921 344.956854923 661.911794037 344.956854923 602.607862692 c 0
 344.956854923 543.303931346 305.174496116 484.478427462 225.348992232 484.478427462 c 0
EndSplineSet
EndChar

StartChar: omicron
Encoding: 959 959 166
Width: 1175
VWidth: 0
Flags: HW
LayerCount: 2
UndoRedoHistory
Layer: 1
Undoes
EndUndoes
Redoes
EndRedoes
EndUndoRedoHistory
Fore
SplineSet
582.525404157 97.4257033382 m 0
 806.446777241 97.4257033382 893.013410666 275.302015536 893.013410666 493.519656729 c 0
 893.013410666 716.694152845 804.96834978 895.744961159 583.003831619 895.744961159 c 0
 360.082458535 895.744961159 272.255038841 716.433366576 272.255038841 493.998084191 c 0
 272.255038841 275.302015536 359.082458535 97.4257033382 582.525404157 97.4257033382 c 0
584.178327735 -21.6960686542 m 0
 301.744961159 -21.6960686542 120.048892505 200 120.048892505 495.737297921 c 0
 120.048892505 797.51774092 290.352823851 1014.38830569 581.350908041 1014.38830569 c 0
 875.394053118 1014.38830569 1045.48034327 799.127519421 1045.48034327 495.737297921 c 0
 1045.48034327 200.913709847 861.87056477 -21.6960686542 584.178327735 -21.6960686542 c 0
EndSplineSet
EndChar

StartChar: omicrontonos
Encoding: 972 972 167
Width: 463
VWidth: 0
Flags: HW
LayerCount: 2
UndoRedoHistory
Layer: 1
Undoes
EndUndoes
Redoes
EndRedoes
EndUndoRedoHistory
Fore
SplineSet
225.348992232 484.478427462 m 0
 146.523488348 484.478427462 106.219557002 543.303931346 106.219557002 602.607862692 c 0
 106.219557002 661.911794037 146.523488348 720.737297921 225.348992232 720.737297921 c 0
 305.174496116 720.737297921 344.956854923 661.911794037 344.956854923 602.607862692 c 0
 344.956854923 543.303931346 305.174496116 484.478427462 225.348992232 484.478427462 c 0
EndSplineSet
EndChar

StartChar: ordfeminine
Encoding: 170 170 168
Width: 777
VWidth: 0
Flags: HW
LayerCount: 2
UndoRedoHistory
Layer: 1
Undoes
EndUndoes
Redoes
EndRedoes
EndUndoRedoHistory
Fore
SplineSet
345.139014277 766.574296662 m 0
 227.964518161 766.574296662 145.748792778 848.619357548 145.748792778 972.227220239 c 0
 145.748792778 1142.57238085 288.87056477 1172.87822801 520.617441738 1186.44294562 c 1
 520.617441738 1201.26844951 l 1
 517.399800546 1311.44486143 492.0958692 1360.1428459 397.701816082 1360.1428459 c 0
 328.874396389 1360.1428459 267.701816082 1357.23105186 207.791937854 1273.92137308 c 1
 149.964518161 1334.95877073 l 1
 213.266533697 1433.66058682 296.525404157 1460.87822801 399.395968927 1460.87822801 c 0
 512.219557002 1460.87822801 610.478427462 1392.26844951 610.478427462 1222.52923578 c 1
 607.521572538 912.054639933 l 2
 607.521572538 897.96643397 607.303931346 889.456356288 613.956854923 787.444861432 c 1
 516.352823851 787.444861432 l 1
 515.919457275 861.054639933 l 1
 482.050808314 804.227220239 428.662502624 766.574296662 345.139014277 766.574296662 c 0
142.048892505 599.099700819 m 1
 142.048892505 687.878228008 l 1
 631.480343271 687.878228008 l 1
 631.480343271 599.099700819 l 1
 142.048892505 599.099700819 l 1
362.139014277 861.788106236 m 0
 485.885891245 861.788106236 527.623189166 976.840830359 520.617441738 1097.49950136 c 1
 520.617441738 1107.62127336 l 1
 415.83891455 1097.49183813 238.219557002 1107.32117363 238.219557002 970.227220239 c 0
 238.219557002 891.658671006 287.917541465 861.788106236 362.139014277 861.788106236 c 0
EndSplineSet
EndChar

StartChar: ordmasculine
Encoding: 186 186 169
Width: 788
VWidth: 0
Flags: HW
LayerCount: 2
UndoRedoHistory
Layer: 1
Undoes
EndUndoes
Redoes
EndRedoes
EndUndoRedoHistory
Fore
SplineSet
396 856 m 0
 510 856 571 967 571 1095 c 0
 571 1230 508 1340 392 1340 c 0
 280 1340 217 1229 217 1098 c 0
 217 962 277 856 396 856 c 0
396 752 m 0
 203 752 103 904 103 1101 c 0
 103 1294 209 1447 394 1447 c 0
 580 1447 683 1292 683 1097 c 0
 683 905 580 752 396 752 c 0
EndSplineSet
EndChar

StartChar: oslash
Encoding: 248 248 170
Width: 1193
VWidth: 0
Flags: HW
LayerCount: 2
UndoRedoHistory
Layer: 1
Undoes
EndUndoes
Redoes
EndRedoes
EndUndoRedoHistory
Fore
SplineSet
305.568549234 -260.658671006 m 1
 244.395968927 -227.833167122 l 1
 356.790022045 35.6078626916 l 1
 206.964518161 122.825503884 124.964518161 299 124.964518161 495.215725383 c 0
 124.964518161 777.300099727 297.139014277 1020.69415284 596.572380852 1020.69415284 c 0
 656.615525929 1020.69415284 713.790022045 1009.73729792 762.093953391 992.998084191 c 1
 872.96643397 1259.05272412 l 1
 940.399800546 1230.35665547 l 1
 827.048892505 962.433366576 l 1
 977.527319966 875.694152845 1052.57046504 696.605946882 1052.57046504 497.433366576 c 0
 1052.57046504 225.305847155 890.266533697 -25.0882059626 594.790022045 -25.0882059626 c 0
 531.093953391 -25.0882059626 472.919457275 -14.8705647701 421.701816082 5.30393134579 c 1
 305.568549234 -260.658671006 l 1
403.046976695 147.466932606 m 1
 718.619357548 885.744961159 l 1
 682.748792778 899.48417489 642.399800546 906.962602351 595.050808314 906.962602351 c 0
 360.519656729 906.962602351 258.996168381 692.039313458 258.996168381 490.127519421 c 0
 258.996168381 357.125603611 304.954939114 223.468848415 403.046976695 147.466932606 c 1
596.790022045 89.339413185 m 0
 832.32117363 89.339413185 919.017242284 294.696068654 919.017242284 497.782358807 c 0
 919.017242284 641.61169431 880.493753937 779.660586815 781.488006509 854.444861432 c 1
 465.176411925 113.731550493 l 1
 502.74304535 97.5570543775 547.527319966 89.339413185 596.790022045 89.339413185 c 0
EndSplineSet
EndChar

StartChar: p
Encoding: 112 112 171
Width: 1171
VWidth: 0
Flags: HW
LayerCount: 2
UndoRedoHistory
Layer: 1
Undoes
EndUndoes
Redoes
EndRedoes
EndUndoRedoHistory
Fore
SplineSet
167.221472811 -438.307762965 m 1
 167.221472811 993.823588075 l 1
 292.123687802 993.823588075 l 1
 307.714234236 815.613016701 l 1
 375.508390896 936.404051843 492.170868266 1013.64909196 641.25695465 1013.64909196 c 0
 918.086290153 1013.64909196 1061.17258031 801.564717615 1061.17258031 493.041229267 c 0
 1061.17258031 192.954939114 907.607862692 -18 641.694152845 -18 c 0
 480.791128281 -18 372.818614061 71.5434990617 311.20361814 173.339905781 c 1
 318.253123032 -63.7881062356 l 1
 318.253123032 -429.003831619 l 1
 167.221472811 -438.307762965 l 1
618.827419693 96.9472758765 m 0
 820.227220239 96.9472758765 910.140930086 253.300099727 910.140930086 495.041229267 c 0
 910.140930086 729.737297921 831.272281125 898.701816082 626.654839387 898.701816082 c 0
 409.341328994 898.701816082 316.035481839 740.954939114 315.513909301 511.519656729 c 0
 315.513909301 251.127519421 427.51774092 96.9472758765 618.827419693 96.9472758765 c 0
EndSplineSet
EndChar

StartChar: paragraph
Encoding: 182 182 172
Width: 1039
VWidth: 0
Flags: HW
LayerCount: 2
UndoRedoHistory
Layer: 1
Undoes
EndUndoes
Redoes
EndRedoes
EndUndoRedoHistory
Fore
SplineSet
465.315426202 -146.566633424 m 1
 465.315426202 785.574296662 l 1
 256.964518161 786.833167122 106.874396389 957.83699874 106.874396389 1118.05272412 c 0
 106.874396389 1259.73729792 191.511993491 1434.66058682 494.429534957 1434.66058682 c 2
 931.827419693 1434.66058682 l 1
 931.827419693 1326.23296767 l 1
 865.480343271 1326.23296767 l 1
 865.480343271 -146.566633424 l 1
 778.793853664 -146.566633424 l 1
 778.793853664 1326.23296767 l 1
 557.956854923 1326.23296767 l 1
 557.956854923 -146.566633424 l 1
 465.315426202 -146.566633424 l 1
EndSplineSet
EndChar

StartChar: parenleft
Encoding: 40 40 173
Width: 631
VWidth: 0
Flags: HW
LayerCount: 2
UndoRedoHistory
Layer: 1
Undoes
EndUndoes
Redoes
EndRedoes
EndUndoRedoHistory
Fore
SplineSet
383.125603611 -219.0958692 m 1
 229.38638988 -4.57429666177 139.431450766 314.564717615 139.431450766 646.088205963 c 0
 139.431450766 947.347076422 226.341328994 1228.3902215 381.38638988 1454.35090804 c 1
 524.463100987 1454.35090804 l 1
 354.673078942 1192.46884841 287.29052068 932.302015536 287.29052068 650.305847155 c 0
 287.29052068 352.088205963 349.241628176 54.0824585345 523.463100987 -219.0958692 c 1
 383.125603611 -219.0958692 l 1
EndSplineSet
EndChar

StartChar: parenright
Encoding: 41 41 174
Width: 648
VWidth: 0
Flags: HW
LayerCount: 2
UndoRedoHistory
Layer: 1
Undoes
EndUndoes
Redoes
EndRedoes
EndUndoRedoHistory
Fore
SplineSet
119.046976695 -219.0958692 m 1
 284.401716355 32.4371981944 355.480343271 350.262702079 355.480343271 653.696068654 c 0
 355.480343271 930.476511652 297.22530443 1170.82358807 118.568549234 1454.35090804 c 1
 261.123687802 1454.35090804 l 1
 419.298183918 1221.34899223 503.339413185 950.998084191 503.339413185 650.521572538 c 0
 503.339413185 318.215725383 410.51582511 -11.615525929 259.906046609 -219.0958692 c 1
 119.046976695 -219.0958692 l 1
EndSplineSet
EndChar

StartChar: partialdiff
Encoding: 8706 8706 175
Width: 1105
VWidth: 0
Flags: HW
LayerCount: 2
UndoRedoHistory
Layer: 1
Undoes
EndUndoes
Redoes
EndRedoes
EndUndoRedoHistory
Fore
SplineSet
476 -25 m 0
 225 -25 115 165 115 411 c 0
 115 733 300 980 563 980 c 0
 688 980 784 923 846 820 c 1
 846 837 847 867 847 892 c 0
 847 1188 741 1371 544 1371 c 0
 451 1371 359 1330 286 1279 c 1
 274 1413 l 1
 350 1465 454 1503 566 1503 c 0
 837 1503 985 1293 985 834 c 0
 985 412 835 -25 476 -25 c 0
477 108 m 0
 674 108 805 349 834 642 c 1
 802 752 717 851 586 851 c 0
 397 851 249 648 249 410 c 0
 249 228 338 108 477 108 c 0
EndSplineSet
EndChar

StartChar: percent
Encoding: 37 37 176
Width: 1657
VWidth: 0
Flags: HW
LayerCount: 2
UndoRedoHistory
Layer: 1
Undoes
EndUndoes
Redoes
EndRedoes
EndUndoRedoHistory
Fore
SplineSet
352 768 m 0
 468 768 526 878 526 1005 c 0
 526 1138 465 1254 352 1254 c 0
 236 1254 179 1133 179 1005 c 0
 179 871 238 768 352 768 c 0
352 662 m 0
 174 662 64 808 64 1005 c 0
 64 1203 175 1355 352 1355 c 0
 530 1355 643 1206 643 1005 c 0
 643 808 529 662 352 662 c 0
335 -4 m 1
 1058 1330 l 1
 1206 1330 l 1
 458 -4 l 1
 335 -4 l 1
1272 89 m 0
 1408 89 1478 208 1478 336 c 0
 1478 469 1407 582 1272 582 c 0
 1136 582 1067 464 1067 336 c 0
 1067 203 1137 89 1272 89 c 0
1272 -14 m 0
 1062 -14 952 139 952 336 c 0
 952 534 1065 686 1272 686 c 0
 1483 686 1593 537 1593 336 c 0
 1593 139 1480 -14 1272 -14 c 0
EndSplineSet
EndChar

StartChar: period
Encoding: 46 46 177
Width: 463
VWidth: 0
Flags: HW
LayerCount: 2
UndoRedoHistory
Layer: 1
Undoes
EndUndoes
Redoes
EndRedoes
EndUndoRedoHistory
Fore
SplineSet
232.951107495 -14.0019158094 m 0
 153.647176149 -14.0019158094 119.694152845 44.6059468822 119.694152845 99.9511074953 c 0
 119.694152845 156.035481839 152.647176149 214.425703338 232.951107495 214.425703338 c 0
 312.994252572 214.425703338 346.425703338 156.035481839 346.425703338 99.9511074953 c 0
 346.425703338 44.1275194205 312.994252572 -14.0019158094 232.951107495 -14.0019158094 c 0
EndSplineSet
EndChar

StartChar: periodcentered
Encoding: 183 183 178
Width: 372
VWidth: 0
Flags: HW
LayerCount: 2
UndoRedoHistory
Layer: 1
Undoes
EndUndoes
Redoes
EndRedoes
EndUndoRedoHistory
Fore
SplineSet
107 511 m 1
 107 691 l 1
 260 691 l 1
 260 511 l 1
 107 511 l 1
EndSplineSet
EndChar

StartChar: perthousand
Encoding: 8240 8240 179
Width: 2129
VWidth: 0
Flags: HW
LayerCount: 2
UndoRedoHistory
Layer: 1
Undoes
EndUndoes
Redoes
EndRedoes
EndUndoRedoHistory
Fore
SplineSet
381 836 m 0
 482 836 532 946 532 1072 c 0
 532 1206 483 1309 378 1309 c 0
 275 1309 226 1200 226 1074 c 0
 226 940 275 836 381 836 c 0
378 724 m 0
 205 724 108 865 108 1074 c 0
 108 1273 204 1419 379 1419 c 0
 556 1419 649 1283 649 1070 c 0
 649 873 550 724 378 724 c 0
246 -20 m 1
 1025 1408 l 1
 1168 1408 l 1
 369 -20 l 1
 246 -20 l 1
1017 85 m 0
 1138 85 1198 197 1198 322 c 0
 1198 455 1141 555 1016 555 c 0
 895 555 836 448 836 322 c 0
 836 188 896 85 1017 85 c 0
1015 -27 m 0
 815 -27 717 113 717 322 c 0
 717 520 813 669 1017 669 c 0
 1221 669 1315 531 1315 320 c 0
 1315 123 1216 -27 1015 -27 c 0
1722 85 m 0
 1843 85 1904 195 1904 322 c 0
 1904 452 1840 555 1720 555 c 0
 1596 555 1536 448 1536 322 c 0
 1536 188 1597 85 1722 85 c 0
1717 -27 m 0
 1519 -27 1421 113 1421 322 c 0
 1421 520 1519 669 1722 669 c 0
 1922 669 2018 535 2018 320 c 0
 2018 123 1918 -27 1717 -27 c 0
EndSplineSet
EndChar

StartChar: phi
Encoding: 966 966 180
Width: 463
VWidth: 0
Flags: HW
LayerCount: 2
UndoRedoHistory
Layer: 1
Undoes
EndUndoes
Redoes
EndRedoes
EndUndoRedoHistory
Fore
SplineSet
225.348992232 484.478427462 m 0
 146.523488348 484.478427462 106.219557002 543.303931346 106.219557002 602.607862692 c 0
 106.219557002 661.911794037 146.523488348 720.737297921 225.348992232 720.737297921 c 0
 305.174496116 720.737297921 344.956854923 661.911794037 344.956854923 602.607862692 c 0
 344.956854923 543.303931346 305.174496116 484.478427462 225.348992232 484.478427462 c 0
EndSplineSet
EndChar

StartChar: plus
Encoding: 43 43 181
Width: 1057
VWidth: 0
Flags: HW
LayerCount: 2
UndoRedoHistory
Layer: 1
Undoes
EndUndoes
Redoes
EndRedoes
EndUndoRedoHistory
Fore
SplineSet
474.092037581 141.088205963 m 1
 474.092037581 536.003831619 l 1
 113.092037581 536.003831619 l 1
 113.092037581 643.951107495 l 1
 475.092037581 643.951107495 l 1
 475.092037581 1033.21380957 l 1
 580.125603611 1033.21380957 l 1
 580.125603611 643.951107495 l 1
 933.472680034 643.951107495 l 1
 933.472680034 536.003831619 l 1
 579.125603611 536.003831619 l 1
 579.125603611 141.088205963 l 1
 474.092037581 141.088205963 l 1
EndSplineSet
EndChar

StartChar: plusminus
Encoding: 177 177 182
Width: 1124
VWidth: 0
Flags: HW
LayerCount: 2
UndoRedoHistory
Layer: 1
Undoes
EndUndoes
Redoes
EndRedoes
EndUndoRedoHistory
Fore
SplineSet
506.568549234 205.51774092 m 1
 506.568549234 592.001915809 l 1
 116.127519421 592.001915809 l 1
 116.127519421 706.253123032 l 1
 505.829335503 706.253123032 l 1
 505.829335503 1095.82550388 l 1
 607.906046609 1095.82550388 l 1
 607.906046609 706.253123032 l 1
 1002.30393135 706.253123032 l 1
 1002.30393135 592.001915809 l 1
 610.384474071 592.001915809 l 1
 610.384474071 205.51774092 l 1
 506.568549234 205.51774092 l 1
116.127519421 0 m 1
 116.127519421 119.341328994 l 1
 1004.52157254 119.341328994 l 1
 1004.52157254 0 l 1
 116.127519421 0 l 1
EndSplineSet
EndChar

StartChar: product
Encoding: 8719 8719 183
Width: 1335
VWidth: 0
Flags: HW
LayerCount: 2
UndoRedoHistory
Layer: 1
Undoes
EndUndoes
Redoes
EndRedoes
EndUndoRedoHistory
Fore
SplineSet
136 0 m 1
 136 1361 l 1
 1200 1361 l 1
 1200 0 l 1
 1039 0 l 1
 1039 1221 l 1
 298 1221 l 1
 298 0 l 1
 136 0 l 1
EndSplineSet
EndChar

StartChar: psi
Encoding: 968 968 184
Width: 463
VWidth: 0
Flags: HW
LayerCount: 2
UndoRedoHistory
Layer: 1
Undoes
EndUndoes
Redoes
EndRedoes
EndUndoRedoHistory
Fore
SplineSet
225.348992232 484.478427462 m 0
 146.523488348 484.478427462 106.219557002 543.303931346 106.219557002 602.607862692 c 0
 106.219557002 661.911794037 146.523488348 720.737297921 225.348992232 720.737297921 c 0
 305.174496116 720.737297921 344.956854923 661.911794037 344.956854923 602.607862692 c 0
 344.956854923 543.303931346 305.174496116 484.478427462 225.348992232 484.478427462 c 0
EndSplineSet
EndChar

StartChar: q
Encoding: 113 113 185
Width: 1202
VWidth: 0
Flags: HW
LayerCount: 2
UndoRedoHistory
Layer: 1
Undoes
EndUndoes
Redoes
EndRedoes
EndUndoRedoHistory
Fore
SplineSet
886.056555742 -438.307762965 m 1
 886.056555742 -71.2272202393 l 1
 890.78979079 173.231667396 l 1
 830.747889356 66.7913454944 726.809694701 -18 547.960686542 -18 c 0
 287.48225908 -18 110.61169431 194.607862692 110.61169431 489.345160613 c 0
 110.61169431 796.302015536 269.74304535 1013.64909196 550.61361012 1013.64909196 c 0
 715.863151202 1013.64909196 820.321284769 935.876186602 882.197331201 827.540654812 c 1
 898.576212471 993.823588075 l 1
 1035.6097785 993.823588075 l 1
 1035.6097785 -429.960686542 l 1
 886.056555742 -438.307762965 l 1
571.045060886 96.4257033382 m 0
 808.360487088 96.4257033382 884.185990972 255.607862692 882.750708587 520.872480579 c 1
 882.750708587 746 795.83699874 898.441029813 571.74112954 898.441029813 c 0
 357.513909301 898.441029813 260.164917069 731.433366576 260.164917069 497.694152845 c 0
 260.164917069 256.38830569 362.64526034 96.4257033382 571.045060886 96.4257033382 c 0
EndSplineSet
EndChar

StartChar: question
Encoding: 63 63 186
Width: 883
VWidth: 0
Flags: HW
LayerCount: 2
UndoRedoHistory
Layer: 1
Undoes
EndUndoes
Redoes
EndRedoes
EndUndoRedoHistory
Fore
SplineSet
374.54939114 386.778527189 m 1
 356.069047869 520.576212471 544.929036322 796.389224228 544.929036322 939.057474281 c 1
 552.056555742 1106.39497166 535.378726643 1182.55797292 437.802514172 1223.76220344 c 1
 360.663499895 1249.05847155 278.704729162 1229.48417489 222.71047659 1211.74304535 c 1
 192.720055637 1211.74304535 160.376810834 1271.75454021 146.815924837 1263.40937959 c 1
 202.996168381 1313.67591329 281.795769473 1367.53306739 331.323089439 1367.53306739 c 1
 512.246378333 1383.18024354 610.02873714 1310.51582511 648.103532438 1183.37106341 c 1
 690.350908041 986.000997271 604.363400168 853.257951921 502.351905312 553.248372874 c 1
 502.351905312 495.875393659 409.233964938 456.669247323 374.54939114 386.778527189 c 1
396.64526034 -12.1744961159 m 0
 317.123687802 -12.1744961159 282.909878228 46.6941528448 282.909878228 102.039313458 c 0
 282.909878228 158.123687802 316.862901533 215.77469557 396.64526034 215.77469557 c 0
 478.123687802 215.77469557 512.251207222 158.123687802 512.251207222 102.039313458 c 0
 512.251207222 46.2157253832 478.123687802 -12.1744961159 396.64526034 -12.1744961159 c 0
EndSplineSet
EndChar

StartChar: quotedbl
Encoding: 34 34 187
Width: 606
VWidth: 0
Flags: HW
LayerCount: 2
UndoRedoHistory
Layer: 1
Undoes
EndUndoes
Redoes
EndRedoes
EndUndoRedoHistory
Fore
SplineSet
131.347076422 939.750708587 m 1
 114.87056477 1377.39596893 l 1
 228.684573798 1377.39596893 l 1
 201.423787529 939.750708587 l 1
 131.347076422 939.750708587 l 1
396.247375604 936.793853664 m 1
 379.770863951 1377.39596893 l 1
 492.845659248 1377.39596893 l 1
 467.802514172 936.793853664 l 1
 396.247375604 936.793853664 l 1
EndSplineSet
EndChar

StartChar: quotedblbase
Encoding: 8222 8222 188
Width: 668
VWidth: 0
Flags: HW
LayerCount: 2
UndoRedoHistory
Layer: 1
Undoes
EndUndoes
Redoes
EndRedoes
EndUndoRedoHistory
Fore
SplineSet
79.5589701869 -233.696068654 m 1
 155.686489607 190.039313458 l 1
 278.414208482 190.039313458 l 1
 167.288604871 -233.696068654 l 1
 79.5589701869 -233.696068654 l 1
359.729634684 -233.696068654 m 1
 434.204230527 190.039313458 l 1
 560.845659248 190.039313458 l 1
 445.80634579 -233.696068654 l 1
 359.729634684 -233.696068654 l 1
EndSplineSet
EndChar

StartChar: quotedblleft
Encoding: 8220 8220 189
Width: 729
VWidth: 0
Flags: HW
LayerCount: 2
UndoRedoHistory
Layer: 1
Undoes
EndUndoes
Redoes
EndRedoes
EndUndoRedoHistory
Fore
SplineSet
163.51774092 844.51582511 m 1
 165.231051858 1415.14667751 l 1
 304.48417489 1624.67974491 l 1
 304.951107495 1056.30967877 l 1
 163.51774092 844.51582511 l 1
444.519656729 844.51582511 m 1
 454.493753937 1415.14667751 l 1
 585.007663237 1624.94053118 l 1
 595.649091959 1056.30967877 l 1
 444.519656729 844.51582511 l 1
EndSplineSet
EndChar

StartChar: quotedblright
Encoding: 8221 8221 190
Width: 644
VWidth: 0
Flags: HW
LayerCount: 2
UndoRedoHistory
Layer: 1
Undoes
EndUndoes
Redoes
EndRedoes
EndUndoRedoHistory
Fore
SplineSet
94.5589701869 1024.79576947 m 1
 174.860985723 1444.52923578 l 1
 301.286689062 1444.52923578 l 1
 182.506246063 1024.79576947 l 1
 94.5589701869 1024.79576947 l 1
354.427619148 1026.40554797 m 1
 433.860985723 1444.52923578 l 1
 562.633765484 1444.52923578 l 1
 444.202314718 1026.40554797 l 1
 354.427619148 1026.40554797 l 1
EndSplineSet
EndChar

StartChar: quoteleft
Encoding: 8216 8216 191
Width: 444
VWidth: 0
Flags: HW
LayerCount: 2
UndoRedoHistory
Layer: 1
Undoes
EndUndoes
Redoes
EndRedoes
EndUndoRedoHistory
Fore
SplineSet
163.51774092 844.776611379 m 1
 167.448693051 1415.14667751 l 1
 299.788106236 1624.67974491 l 1
 309.472680034 1055.57046504 l 1
 163.51774092 844.776611379 l 1
EndSplineSet
EndChar

StartChar: quoteright
Encoding: 8217 8217 192
Width: 437
VWidth: 0
Flags: HW
LayerCount: 2
UndoRedoHistory
Layer: 1
Undoes
EndUndoes
Redoes
EndRedoes
EndUndoRedoHistory
Fore
SplineSet
125.0958692 1022.01149486 m 1
 205.615525929 1444.52923578 l 1
 327.25695465 1444.52923578 l 1
 212.521572538 1022.01149486 l 1
 125.0958692 1022.01149486 l 1
EndSplineSet
EndChar

StartChar: quotesinglbase
Encoding: 8218 8218 193
Width: 414
VWidth: 0
Flags: HW
LayerCount: 2
UndoRedoHistory
Layer: 1
Undoes
EndUndoes
Redoes
EndRedoes
EndUndoRedoHistory
Fore
SplineSet
90.8255038841 -233.696068654 m 1
 170.127519421 190.039313458 l 1
 294.986589334 190.039313458 l 1
 180.251207222 -233.696068654 l 1
 90.8255038841 -233.696068654 l 1
EndSplineSet
EndChar

StartChar: quotesingle
Encoding: 39 39 194
Width: 319
VWidth: 0
Flags: HW
LayerCount: 2
UndoRedoHistory
Layer: 1
Undoes
EndUndoes
Redoes
EndRedoes
EndUndoRedoHistory
Fore
SplineSet
113.035481839 899.529235776 m 1
 97.2981839177 1354.30584716 l 1
 219.331749948 1354.30584716 l 1
 203.202314718 899.529235776 l 1
 113.035481839 899.529235776 l 1
EndSplineSet
EndChar

StartChar: r
Encoding: 114 114 195
Width: 763
VWidth: 0
Flags: HW
LayerCount: 2
UndoRedoHistory
Layer: 1
Undoes
EndUndoes
Redoes
EndRedoes
EndUndoRedoHistory
Fore
SplineSet
166.960686542 0 m 1
 166.960686542 993.823588075 l 1
 286.862901533 993.823588075 l 1
 303.653106871 793.46719251 l 1
 385.951410072 941.668034299 506.704159527 1003.99808419 618.862901533 1003.99808419 c 0
 647.037397649 1003.99808419 673.211893764 1002.51965673 695.037397649 998.737297921 c 1
 688.080542725 875.878228008 l 1
 664.690321226 881.139014277 640.429534957 883.139014277 619.604031073 883.139014277 c 0
 445.38638988 883.139014277 317.992336763 737.307762965 317.992336763 563.566633424 c 2
 317.992336763 0 l 1
 166.960686542 0 l 1
EndSplineSet
EndChar

StartChar: radical
Encoding: 8730 8730 196
Width: 1160
VWidth: 0
Flags: HW
LayerCount: 2
UndoRedoHistory
Layer: 1
Undoes
EndUndoes
Redoes
EndRedoes
EndUndoRedoHistory
Fore
SplineSet
558 -151 m 1
 255 676 l 1
 116 648 l 1
 102 758 l 1
 339 809 l 1
 558 209 l 1
 612 40 l 1
 735 548 858 1055 982 1563 c 1
 1085 1563 l 1
 684 -151 l 1
 558 -151 l 1
EndSplineSet
EndChar

StartChar: registered
Encoding: 174 174 197
Width: 1713
VWidth: 0
Flags: HW
LayerCount: 2
UndoRedoHistory
Layer: 1
Undoes
EndUndoes
Redoes
EndRedoes
EndUndoRedoHistory
Fore
SplineSet
571.270365316 279.090121772 m 1
 571.270365316 1171.48417489 l 1
 856.791937854 1171.48417489 l 2
 1112.49566975 1171.48417489 1220.53689901 1082.30776296 1220.53689901 925.048892505 c 0
 1220.53689901 809.137098467 1161.44869305 694.958770733 969.050808314 675.003831619 c 1
 1061.48992232 610.395968927 1068.1236878 535.597286374 1231.48992232 279.090121772 c 1
 1106.84274617 279.090121772 l 1
 1029.22530443 410.670165862 960.236799286 588.521572538 862.96834978 659.178327735 c 1
 682.092037581 659.178327735 l 1
 682.092037581 279.090121772 l 1
 571.270365316 279.090121772 l 1
682.570465043 770.480343271 m 1
 865.970265589 770.480343271 l 2
 1004.01532647 770.480343271 1079.14667751 798.307762965 1079.14667751 916.395968927 c 0
 1079.14667751 1039.44102981 1014.18982259 1058.96451816 856.491838127 1058.96451816 c 2
 682.570465043 1058.96451816 l 1
 682.570465043 770.480343271 l 1
845.399800546 50.3413289943 m 0
 1277.71522675 50.3413289943 1483.49375394 348.519656729 1483.49375394 712.872480579 c 0
 1483.49375394 1075.74687697 1274.75837182 1379.62127336 839.964518161 1379.62127336 c 0
 432.825503884 1379.62127336 223.829335503 1077.22530443 223.829335503 718.307762965 c 0
 223.829335503 350.737297921 432.347076422 50.3413289943 845.399800546 50.3413289943 c 0
845.399800546 -29.5685492337 m 0
 493.315426202 -29.5685492337 126.701816082 206.643344531 126.701816082 716.090121772 c 0
 126.701816082 1224.79768528 488.619357548 1457.57429666 839.964518161 1457.57429666 c 0
 1218.44294562 1457.57429666 1580.62127336 1222.31925782 1580.62127336 716.090121772 c 0
 1580.62127336 206.643344531 1223.13901428 -29.5685492337 845.399800546 -29.5685492337 c 0
EndSplineSet
EndChar

StartChar: rho
Encoding: 961 961 198
Width: 1195
VWidth: 0
Flags: HW
LayerCount: 2
UndoRedoHistory
Layer: 1
Undoes
EndUndoes
Redoes
EndRedoes
EndUndoRedoHistory
Fore
SplineSet
130 -438.307762965 m 1
 130 993.345160613 l 1
 269.9041308 993.345160613 l 1
 285.251207222 818.772779761 l 1
 339.076711106 947.909878228 467.425703338 1014.38830569 607.253123032 1014.38830569 c 0
 895.170664497 1014.38830569 1059.65100777 798.607862692 1059.65100777 489.345160613 c 0
 1059.65100777 193.694152845 875.082458535 -21.6960686542 615.082458535 -21.6960686542 c 0
 477.906046609 -21.6960686542 342.510077682 46.480343271 276.988505144 144.092037581 c 1
 280.727718875 73.9587707327 281.988505144 5.60786269158 281.988505144 -63.7881062356 c 2
 281.988505144 -429.003831619 l 1
 130 -438.307762965 l 1
592.954939114 91.0335660298 m 0
 803.22530443 91.0335660298 907.923288894 254.039313458 907.923288894 496.519656729 c 0
 907.923288894 731.215725383 809.0958692 900.180243544 594.868648961 900.180243544 c 0
 368.684573798 900.180243544 281.988505144 743.911794037 282.206146336 512.998084191 c 0
 282.206146336 252.605946882 356.553222759 91.0335660298 592.954939114 91.0335660298 c 0
EndSplineSet
EndChar

StartChar: ring
Encoding: 730 730 199
Width: 574
VWidth: 0
Flags: HW
LayerCount: 2
UndoRedoHistory
Layer: 1
Undoes
EndUndoes
Redoes
EndRedoes
EndUndoRedoHistory
Fore
SplineSet
288.868648961 1225.74879278 m 0
 332.780442998 1225.74879278 377.825503884 1271.96643397 377.825503884 1329.61935755 c 0
 377.825503884 1386.75070859 337.954939114 1436.44677724 288.868648961 1436.44677724 c 0
 245.478427462 1436.44677724 197.954939114 1387.22913605 197.954939114 1329.61935755 c 0
 197.954939114 1266.53115159 233.347076422 1225.74879278 288.868648961 1225.74879278 c 0
291.825503884 1167.62318917 m 0
 207.178327735 1167.62318917 120.568549234 1223.66250262 120.568549234 1329.61935755 c 0
 120.568549234 1438.53306739 208.395968927 1504.66058682 288.868648961 1504.66058682 c 0
 373.298183918 1504.66058682 457.907962419 1431.61935755 457.907962419 1329.61935755 c 0
 457.907962419 1223.66250262 370.558970187 1167.62318917 291.825503884 1167.62318917 c 0
EndSplineSet
EndChar

StartChar: s
Encoding: 115 115 200
Width: 910
VWidth: 0
Flags: HW
LayerCount: 2
UndoRedoHistory
Layer: 1
Undoes
EndUndoes
Redoes
EndRedoes
EndUndoRedoHistory
Fore
SplineSet
460.302015536 -17.7392137308 m 0
 310.394053118 -17.7392137308 181.656755196 34.2118937644 147.61169431 52.429534957 c 1
 181.523488348 157.986589334 l 1
 238.782358807 131.641428721 335.907962419 93.0354818392 465.476511652 93.8178406467 c 0
 611.003831619 94.6001994541 671.876312198 149.298183918 672.397884737 252.823588075 c 0
 672.397884737 346.652923578 631.791937854 392.046976695 460.046976695 450.568549234 c 2
 378.478427462 478.046976695 l 1
 195.694152845 540.784274617 135.696068654 628.135182658 134.696068654 744.303931346 c 1
 134.696068654 894.907962419 256.12943523 1013.64909196 475.694152845 1013.64909196 c 0
 594.737297921 1013.64909196 673.690321226 993.911794037 760.427619148 954.478427462 c 1
 723.125603611 846.790022045 l 1
 660.213809574 875.658671006 587.739213731 901.309678774 486.911794037 901.309678774 c 0
 344.731550493 901.309678774 267.076711106 838.827419693 267.076711106 756.172580307 c 0
 267.076711106 666.864817342 317.772779761 630.427619148 449.686489607 586.733466303 c 1
 526.862901533 560.255038841 l 1
 743.651007768 487.211893764 806.472680034 409.080542725 806.472680034 260.168748688 c 1
 802.776611379 78.3020155364 676.864817342 -17.7392137308 460.302015536 -17.7392137308 c 0
EndSplineSet
EndChar

StartChar: section
Encoding: 167 167 201
Width: 927
VWidth: 0
Flags: HW
LayerCount: 2
UndoRedoHistory
Layer: 1
Undoes
EndUndoes
Redoes
EndRedoes
EndUndoRedoHistory
Fore
SplineSet
408 -26 m 0
 299 -26 207 -10 134 27 c 1
 134 168 l 1
 219 124 324 99 410 99 c 0
 562 99 647 156 647 242 c 0
 647 328 582 355 424 420 c 1
 223 497 130 575 130 725 c 0
 130 833 192 918 281 964 c 1
 196 1018 147 1081 147 1189 c 0
 147 1361 300 1443 523 1443 c 0
 611 1443 681 1425 763 1392 c 1
 755 1347 747 1305 739 1260 c 1
 653 1299 576 1316 499 1316 c 0
 371 1316 291 1279 291 1193 c 0
 291 1117 346 1075 521 1006 c 1
 707 930 802 852 802 718 c 0
 802 610 741 522 656 468 c 1
 741 420 792 355 792 253 c 0
 792 74 637 -26 408 -26 c 0
533 526 m 1
 605 570 663 626 663 699 c 0
 663 806 552 849 399 905 c 1
 327 874 268 817 268 740 c 0
 268 653 331 607 481 548 c 1
 533 526 l 1
EndSplineSet
EndChar

StartChar: semicolon
Encoding: 59 59 202
Width: 497
VWidth: 0
Flags: HW
LayerCount: 2
UndoRedoHistory
Layer: 1
Undoes
EndUndoes
Redoes
EndRedoes
EndUndoRedoHistory
Fore
SplineSet
139.994252572 -281.086290153 m 1
 191.472680034 163.729634684 l 1
 340.072879488 163.729634684 l 1
 226.29052068 -281.086290153 l 1
 139.994252572 -281.086290153 l 1
178.170664497 823.180243544 m 1
 178.170664497 1023.47842746 l 1
 344.465016796 1023.47842746 l 1
 344.465016796 823.180243544 l 1
 178.170664497 823.180243544 l 1
EndSplineSet
EndChar

StartChar: seven
Encoding: 55 55 203
Width: 1103
VWidth: 0
Flags: HW
LayerCount: 2
UndoRedoHistory
Layer: 1
Undoes
EndUndoes
Redoes
EndRedoes
EndUndoRedoHistory
Fore
SplineSet
323.791937854 0.739213730842 m 1
 804.885891245 1231.05463993 l 1
 184.270365316 1231.05463993 l 1
 168.180243544 1349.30584716 l 1
 959.348992232 1349.30584716 l 1
 959.348992232 1244.44294562 l 1
 473.472680034 0.739213730842 l 1
 323.791937854 0.739213730842 l 1
EndSplineSet
EndChar

StartChar: sigma
Encoding: 963 963 204
Width: 463
VWidth: 0
Flags: HW
LayerCount: 2
UndoRedoHistory
Layer: 1
Undoes
EndUndoes
Redoes
EndRedoes
EndUndoRedoHistory
Fore
SplineSet
225.348992232 484.478427462 m 0
 146.523488348 484.478427462 106.219557002 543.303931346 106.219557002 602.607862692 c 0
 106.219557002 661.911794037 146.523488348 720.737297921 225.348992232 720.737297921 c 0
 305.174496116 720.737297921 344.956854923 661.911794037 344.956854923 602.607862692 c 0
 344.956854923 543.303931346 305.174496116 484.478427462 225.348992232 484.478427462 c 0
EndSplineSet
EndChar

StartChar: sigmafinal
Encoding: 962 962 205
Width: 484
VWidth: 0
Flags: HW
LayerCount: 2
UndoRedoHistory
Layer: 1
Undoes
EndUndoes
Redoes
EndRedoes
EndUndoRedoHistory
Fore
SplineSet
229 485 m 0
 152 485 113 542 113 600 c 0
 113 658 152 715 229 715 c 0
 307 715 346 658 346 600 c 0
 346 542 307 485 229 485 c 0
EndSplineSet
EndChar

StartChar: six
Encoding: 54 54 206
Width: 1211
VWidth: 0
Flags: HW
LayerCount: 2
UndoRedoHistory
Layer: 1
Undoes
EndUndoes
Redoes
EndRedoes
EndUndoRedoHistory
Fore
SplineSet
599.909878228 -18 m 0
 308.692237035 -18 160.090121772 189.264617888 160.090121772 430.87056477 c 0
 160.090121772 642.352823851 224.131351039 770.309678774 431.534983204 1021.54073063 c 0
 525.673997481 1136.20323326 709.61361012 1349.30584716 709.61361012 1349.30584716 c 1
 885.902214991 1349.30584716 l 1
 376.149590594 760.209977955 l 1
 444.720055637 797.25695465 562.121771992 837.260786269 647.562801806 837.260786269 c 0
 868.819756456 837.260786269 1044.81784065 657.390221499 1044.81784065 406.651007768 c 0
 1044.81784065 168.045060886 877.909878228 -18 599.909878228 -18 c 0
596.562801806 100.164917069 m 0
 793.654839387 100.164917069 899.831251312 242.953023305 899.831251312 403.390221499 c 0
 899.831251312 576.219557002 804.915625656 712.833167122 613.607862692 712.833167122 c 0
 400.558970187 712.833167122 287.29243649 571.958770733 287.29243649 411.739213731 c 0
 287.29243649 250.562801806 398.296268108 100.164917069 596.562801806 100.164917069 c 0
EndSplineSet
EndChar

StartChar: slash
Encoding: 47 47 207
Width: 919
VWidth: 0
Flags: HW
LayerCount: 2
UndoRedoHistory
Layer: 1
Undoes
EndUndoes
Redoes
EndRedoes
EndUndoRedoHistory
Fore
SplineSet
88.525404157 -204.699900273 m 1
 721.360487088 1327.03931346 l 1
 830.392137308 1327.03931346 l 1
 195.296268108 -204.699900273 l 1
 88.525404157 -204.699900273 l 1
EndSplineSet
EndChar

StartChar: summation
Encoding: 8721 8721 209
Width: 1203
VWidth: 0
Flags: HW
LayerCount: 2
UndoRedoHistory
Layer: 1
Undoes
EndUndoes
Redoes
EndRedoes
EndUndoRedoHistory
Fore
SplineSet
93.570465043 -329.786190426 m 1
 93.570465043 -247.442945623 l 1
 665.574296662 546.654839387 l 1
 114.527319966 1322.31734201 l 1
 114.527319966 1407.44294562 l 1
 1070.04506089 1407.44294562 l 1
 1070.04506089 1279.31925782 l 1
 277.729634684 1279.31925782 l 1
 842.045060886 554.394053118 l 1
 255.208062146 -192.96643397 l 1
 1105.34899223 -192.96643397 l 1
 1105.34899223 -329.786190426 l 1
 93.570465043 -329.786190426 l 1
EndSplineSet
EndChar

StartChar: t
Encoding: 116 116 210
Width: 767
VWidth: 0
Flags: HW
LayerCount: 2
UndoRedoHistory
Layer: 1
Undoes
EndUndoes
Redoes
EndRedoes
EndUndoRedoHistory
Fore
SplineSet
508.166832878 -10.7823588075 m 0
 327.654839387 -10.7823588075 222.784274617 83.1256036112 222.523488348 295.16300126 c 2
 222.523488348 901.788106236 l 1
 78.525404157 901.788106236 l 1
 82.1764119253 984.041229267 l 1
 236.143796819 993.273446563 l 1
 270.651007768 1243.60594688 l 1
 373.555138568 1247.30201554 l 1
 373.555138568 993.823588075 l 1
 669.253123032 993.823588075 l 1
 669.253123032 901.527319966 l 1
 373.555138568 901.527319966 l 1
 373.555138568 296.555138568 l 2
 373.555138568 136.251207222 437.772779761 95.1217719924 536.03356603 95.1217719924 c 0
 600.208062146 95.1217719924 676.684573798 106.686489607 677.988505144 107.468848415 c 1
 677.988505144 8.91179403737 l 1
 675.902214991 8.1294352299 606.992336763 -10.7823588075 508.166832878 -10.7823588075 c 0
EndSplineSet
EndChar

StartChar: tau
Encoding: 964 964 211
Width: 463
VWidth: 0
Flags: HW
LayerCount: 2
UndoRedoHistory
Layer: 1
Undoes
EndUndoes
Redoes
EndRedoes
EndUndoRedoHistory
Fore
SplineSet
225.348992232 484.478427462 m 0
 146.523488348 484.478427462 106.219557002 543.303931346 106.219557002 602.607862692 c 0
 106.219557002 661.911794037 146.523488348 720.737297921 225.348992232 720.737297921 c 0
 305.174496116 720.737297921 344.956854923 661.911794037 344.956854923 602.607862692 c 0
 344.956854923 543.303931346 305.174496116 484.478427462 225.348992232 484.478427462 c 0
EndSplineSet
EndChar

StartChar: tbar
Encoding: 359 359 212
Width: 815
VWidth: 0
Flags: HW
LayerCount: 2
UndoRedoHistory
Layer: 1
Undoes
EndUndoes
Redoes
EndRedoes
EndUndoRedoHistory
Fore
SplineSet
528 -18 m 0
 285 -18 266 101 266 405 c 2
 266 581 l 1
 125 581 l 1
 125 695 l 1
 266 695 l 1
 266 892 l 1
 114 892 l 1
 126 999 l 1
 266 999 l 1
 306 1225 l 1
 419 1233 l 1
 419 999 l 1
 683 999 l 1
 683 892 l 1
 419 892 l 1
 419 695 l 1
 609 695 l 1
 609 581 l 1
 419 581 l 1
 419 334 l 2
 419 147 441 107 563 107 c 0
 580 107 617 112 687 117 c 1
 701 -6 l 1
 587 -16 559 -18 528 -18 c 0
EndSplineSet
EndChar

StartChar: theta
Encoding: 952 952 213
Width: 463
VWidth: 0
Flags: HW
LayerCount: 2
UndoRedoHistory
Layer: 1
Undoes
EndUndoes
Redoes
EndRedoes
EndUndoRedoHistory
Fore
SplineSet
225.348992232 484.478427462 m 0
 146.523488348 484.478427462 106.219557002 543.303931346 106.219557002 602.607862692 c 0
 106.219557002 661.911794037 146.523488348 720.737297921 225.348992232 720.737297921 c 0
 305.174496116 720.737297921 344.956854923 661.911794037 344.956854923 602.607862692 c 0
 344.956854923 543.303931346 305.174496116 484.478427462 225.348992232 484.478427462 c 0
EndSplineSet
EndChar

StartChar: three
Encoding: 51 51 214
Width: 1137
VWidth: 0
Flags: HW
LayerCount: 2
UndoRedoHistory
Layer: 1
Undoes
EndUndoes
Redoes
EndRedoes
EndUndoRedoHistory
Fore
SplineSet
520.823588075 -18 m 0
 351.821672265 -18 192.255038841 61.6999002729 157.564717615 89.5647176149 c 1
 207.953023305 196.686489607 l 1
 259.125603611 160.209977955 392.735382112 101.990420953 521.823588075 101.990420953 c 0
 714.656755196 101.990420953 838.531151585 187.9041308 838.531151585 366.433366576 c 0
 838.531151585 609.005747428 648.176411925 653.876312198 412.782358807 658.876312198 c 0
 392.823588075 658.876312198 392.699900273 658.876312198 373.480343271 658.876312198 c 1
 373.480343271 780.519656729 l 1
 414.260786269 780.519656729 l 1
 606.435282385 786.694152845 806.399800546 809.25887046 806.399800546 1020.09203758 c 0
 806.399800546 1172.9252047 673.87056477 1248.35857128 512.476511652 1248.35857128 c 0
 398.476511652 1248.35857128 280.953023305 1213.61935755 190.690321226 1156.00957905 c 1
 142.562801806 1263.91370985 l 1
 251.954939114 1331.34899223 383.521572538 1368.08820596 521.909878228 1368.08820596 c 0
 752.647176149 1368.08820596 947.431450766 1249.6567552 947.431450766 1033.91754147 c 0
 947.431450766 850.347076422 848.906046609 762.217641193 689.16300126 723.262702079 c 1
 861.77469557 688.872480579 982.692237035 565.61361012 982.692237035 366.260786269 c 0
 982.692237035 125.609778501 802.696068654 -18 520.823588075 -18 c 0
EndSplineSet
EndChar

StartChar: threequarters
Encoding: 190 190 215
Width: 1544
VWidth: 0
Flags: HW
LayerCount: 2
UndoRedoHistory
Layer: 1
Undoes
EndUndoes
Redoes
EndRedoes
EndUndoRedoHistory
Fore
SplineSet
318.131351039 576.784274617 m 0
 243.045060886 576.784274617 178.003831619 611.394053118 130.223388621 676.656755196 c 1
 175.874396389 764.174496116 l 1
 224.223388621 708.737297921 264.001915809 680.127519421 313.348992232 680.127519421 c 0
 390.305847155 680.127519421 462.178327735 737.521572538 462.178327735 824.784274617 c 0
 462.178327735 927.962602351 389.480343271 962.876312198 280.87056477 962.876312198 c 1
 247.701816082 963.35473966 l 1
 247.701816082 1073.30776296 l 1
 275.956854923 1073.30776296 l 2
 365.825503884 1073.30776296 441.917541465 1102.87248058 441.917541465 1199.92137308 c 0
 441.917541465 1283.09970082 388.045060886 1317.79576947 322.045060886 1317.79576947 c 0
 265.697984464 1317.79576947 221.527319966 1283.44677724 172.221472811 1233.05272412 c 1
 132.572380852 1323.83316712 l 1
 177.092037581 1382.74687697 247.219557002 1428.05272412 319.521572538 1428.05272412 c 0
 428.780442998 1428.05272412 553.823588075 1341.35473966 553.823588075 1200.74687697 c 0
 553.823588075 1111.78235881 508.602115263 1052.87248058 448.25695465 1017.78619043 c 1
 528.694152845 980.61169431 571.823588075 918.568549234 571.823588075 820.566633424 c 0
 571.823588075 672.090121772 445.651007768 576.784274617 318.131351039 576.784274617 c 0
1241.09395339 44.8724805795 m 1
 1241.09395339 232.962602351 l 1
 883.615525929 232.962602351 l 1
 883.615525929 311.086290153 l 1
 1228.8763122 822.217641193 l 1
 1320.780443 822.217641193 l 1
 1320.780443 331.305847155 l 1
 1402.82167227 331.305847155 l 1
 1412.9530233 232.962602351 l 1
 1319.780443 232.962602351 l 1
 1319.51965673 44.8724805795 l 1
 1241.09395339 44.8724805795 l 1
337.011494856 -4.65483938694 m 1
 1149 1421.66058682 l 1
 1260.51199349 1421.66058682 l 1
 435.303931346 -4.65483938694 l 1
 337.011494856 -4.65483938694 l 1
994.605946882 331.305847155 m 1
 1237.61552593 331.305847155 l 1
 1238.35473966 496.150509133 1239.83316712 572.043145077 1242.05080831 674.054639933 c 1
 994.605946882 331.305847155 l 1
EndSplineSet
EndChar

StartChar: tilde
Encoding: 732 732 216
Width: 839
VWidth: 0
Flags: HW
LayerCount: 2
UndoRedoHistory
Layer: 1
Undoes
EndUndoes
Redoes
EndRedoes
EndUndoRedoHistory
Fore
SplineSet
164.25887046 1186.53115159 m 1
 164.25887046 1307.02298971 194.670165862 1319.97984464 237.544562251 1319.97984464 c 1
 316.640431451 1344.49375394 447.436200924 1317.64909196 469.03065295 1317.64909196 c 0
 536.068050598 1320.60594688 568.317342011 1311.74496116 580.097785009 1358.3154262 c 1
 585.313510393 1358.57621247 635.013410666 1380.48225908 635.013410666 1380.48225908 c 1
 635.013410666 1227.4650168 627.560885996 1254.07671111 585.425703338 1254.07671111 c 0
 535.159169641 1254.07671111 344.791019316 1255.27802855 337.980841906 1255.27802855 c 0
 285.029734411 1253.79960109 235.560885996 1275.79193785 217 1214.43719819 c 1
 211.523488348 1214.43719819 164.25887046 1186.53115159 164.25887046 1186.53115159 c 1
EndSplineSet
EndChar

StartChar: tonos
Encoding: 900 900 217
Width: 430
VWidth: 0
Flags: HW
LayerCount: 2
UndoRedoHistory
Layer: 1
Undoes
EndUndoes
Redoes
EndRedoes
EndUndoRedoHistory
Fore
SplineSet
216.478427462 484.478427462 m 0
 137.652923578 484.478427462 97.3489922318 543.303931346 97.3489922318 602.607862692 c 0
 97.3489922318 661.911794037 137.652923578 720.737297921 216.478427462 720.737297921 c 0
 296.303931346 720.737297921 335.347076422 661.911794037 335.347076422 602.607862692 c 0
 335.347076422 543.303931346 296.303931346 484.478427462 216.478427462 484.478427462 c 0
EndSplineSet
EndChar

StartChar: trademark
Encoding: 8482 8482 218
Width: 1691
VWidth: 0
Flags: HW
LayerCount: 2
UndoRedoHistory
Layer: 1
Undoes
EndUndoes
Redoes
EndRedoes
EndUndoRedoHistory
Fore
SplineSet
784.313510393 544.733466303 m 1
 784.313510393 1364.48034327 l 1
 908.043145077 1364.48034327 l 1
 1169.92137308 724.506246063 l 1
 1444.49566975 1364.48034327 l 1
 1561.61744174 1364.48034327 l 1
 1561.61744174 544.733466303 l 1
 1476.49566975 544.733466303 l 1
 1476.49566975 1269.24254671 l 1
 1198.44102981 621.088205963 l 1
 1127.92328889 621.088205963 l 1
 866.521572538 1271.33075268 l 1
 866.521572538 544.733466303 l 1
 784.313510393 544.733466303 l 1
320.178327735 544.733466303 m 1
 320.178327735 1287.3154262 l 1
 81.3940531178 1287.3154262 l 1
 81.8724805795 1364.48034327 l 1
 651.694152845 1364.48034327 l 1
 651.694152845 1287.3154262 l 1
 405.604031073 1287.3154262 l 1
 405.604031073 544.733466303 l 1
 320.178327735 544.733466303 l 1
EndSplineSet
EndChar

StartChar: underscore
Encoding: 95 95 220
Width: 1008
VWidth: 0
Flags: HW
LayerCount: 2
UndoRedoHistory
Layer: 1
Undoes
EndUndoes
Redoes
EndRedoes
EndUndoRedoHistory
Fore
SplineSet
80.7861904262 -252.617441738 m 1
 80.7861904262 -142.668250052 l 1
 918.647176149 -142.668250052 l 1
 918.647176149 -252.617441738 l 1
 80.7861904262 -252.617441738 l 1
EndSplineSet
EndChar

StartChar: uni00AD
Encoding: 173 173 223
Width: 921
VWidth: 0
Flags: HW
LayerCount: 2
UndoRedoHistory
Layer: 1
Undoes
EndUndoes
Redoes
EndRedoes
EndUndoRedoHistory
Fore
SplineSet
109.048892505 184.894551753 m 1
 109.048892505 305.58104136 l 1
 814.240630905 305.58104136 l 1
 814.240630905 184.894551753 l 1
 109.048892505 184.894551753 l 1
EndSplineSet
EndChar

StartChar: uni00B2
Encoding: 178 178 224
Width: 683
VWidth: 0
Flags: HW
LayerCount: 2
UndoRedoHistory
Layer: 1
Undoes
EndUndoes
Redoes
EndRedoes
EndUndoRedoHistory
Fore
SplineSet
120 592 m 1
 120 700 l 1
 315 919 457 1077 457 1186 c 0
 457 1252 416 1296 344 1296 c 0
 275 1296 228 1248 196 1167 c 1
 128 1244 l 1
 164 1350 248 1411 350 1411 c 0
 469 1411 560 1324 560 1188 c 0
 560 1021 431 878 268 708 c 1
 558 708 l 1
 558 592 l 1
 120 592 l 1
EndSplineSet
EndChar

StartChar: uni01C4
Encoding: 452 452 225
Width: 2621
VWidth: 0
Flags: HW
LayerCount: 2
UndoRedoHistory
Layer: 1
Undoes
EndUndoes
Redoes
EndRedoes
EndUndoRedoHistory
Fore
SplineSet
1535.46884841 0 m 1
 1535.46884841 112.862901533 l 1
 2263.44102981 1225.79385366 l 1
 1560.20997796 1225.79385366 l 1
 1559.47076422 1345.6097785 l 1
 2439.33558157 1345.6097785 l 1
 2439.33558157 1245.35857128 l 1
 1706.62035482 120.641428721 l 1
 2447.59636784 120.641428721 l 1
 2440.94344426 0 l 1
 1535.46884841 0 l 1
1971.56280181 1555.87822801 m 1
 1824.83508293 1912.83699874 l 1
 1919.38830569 1912.83699874 l 1
 2071.56471761 1602.86481734 l 1
 2216.3902215 1912.83699874 l 1
 2313.4650168 1912.83699874 l 1
 2166.73729792 1555.87822801 l 1
 1971.56280181 1555.87822801 l 1
297.804429981 116.945360067 m 1
 539.423787529 116.945360067 l 2
 908.519656729 116.945360067 1108.39596893 302.339413185 1108.39596893 669.521572538 c 0
 1108.39596893 1072.57429666 886.474595843 1228.75070859 513.423787529 1228.75070859 c 2
 297.804429981 1228.75070859 l 1
 297.804429981 116.945360067 l 1
156.907962419 0 m 1
 156.907962419 1345.6097785 l 1
 523.121771992 1345.6097785 l 2
 961.772779761 1345.6097785 1250.51007768 1144.78427462 1250.51007768 673.782358807 c 0
 1250.51007768 226.911794037 988.382558262 0 550.557054377 0 c 2
 156.907962419 0 l 1
EndSplineSet
EndChar

StartChar: uni01F1
Encoding: 497 497 226
Width: 2621
VWidth: 0
Flags: HW
LayerCount: 2
UndoRedoHistory
Layer: 1
Undoes
EndUndoes
Redoes
EndRedoes
EndUndoRedoHistory
Fore
SplineSet
1535.46884841 0 m 1
 1535.46884841 112.862901533 l 1
 2263.44102981 1225.79385366 l 1
 1560.20997796 1225.79385366 l 1
 1559.47076422 1345.6097785 l 1
 2439.33558157 1345.6097785 l 1
 2439.33558157 1245.35857128 l 1
 1706.62035482 120.641428721 l 1
 2447.59636784 120.641428721 l 1
 2440.94344426 0 l 1
 1535.46884841 0 l 1
297.804429981 116.945360067 m 1
 539.423787529 116.945360067 l 2
 908.519656729 116.945360067 1108.39596893 302.339413185 1108.39596893 669.521572538 c 0
 1108.39596893 1072.57429666 886.474595843 1228.75070859 513.423787529 1228.75070859 c 2
 297.804429981 1228.75070859 l 1
 297.804429981 116.945360067 l 1
156.907962419 0 m 1
 156.907962419 1345.6097785 l 1
 523.121771992 1345.6097785 l 2
 961.772779761 1345.6097785 1250.51007768 1144.78427462 1250.51007768 673.782358807 c 0
 1250.51007768 226.911794037 988.382558262 0 550.557054377 0 c 2
 156.907962419 0 l 1
EndSplineSet
EndChar

StartChar: uni0237
Encoding: 567 567 227
Width: 404
VWidth: 0
Flags: HW
LayerCount: 2
UndoRedoHistory
Layer: 1
Undoes
EndUndoes
Redoes
EndRedoes
EndUndoRedoHistory
Fore
SplineSet
-57.480343271 -415.140930086 m 1
 -81.6999002729 -286.670165862 l 1
 -31.8293355028 -286.670165862 l 2
 140.696068654 -286.670165862 115.474595843 -232.146677514 115.474595843 -77.2329676674 c 2
 115.474595843 1000.56663342 l 1
 274.03165022 1000.56663342 l 1
 274.03165022 -105.762203443 l 2
 274.03165022 -341.1917384 223.511993491 -415.140930086 -8.045060886 -415.140930086 c 2
 -57.480343271 -415.140930086 l 1
EndSplineSet
EndChar

StartChar: uni02BC
Encoding: 700 700 228
Width: 494
VWidth: 0
Flags: HW
LayerCount: 2
UndoRedoHistory
Layer: 1
Undoes
EndUndoes
Redoes
EndRedoes
EndUndoRedoHistory
Fore
SplineSet
130.178327735 1031.49566975 m 1
 241.713310938 1448.66250262 l 1
 367.574296662 1448.66250262 l 1
 224.172580307 1031.49566975 l 1
 130.178327735 1031.49566975 l 1
EndSplineSet
EndChar

StartChar: uni0307
Encoding: 775 775 229
Width: 318
VWidth: 0
Flags: HW
LayerCount: 2
UndoRedoHistory
Layer: 1
Undoes
EndUndoes
Redoes
EndRedoes
EndUndoRedoHistory
Fore
SplineSet
85.4726800336 1200.70756351 m 1
 85.4726800336 1373.52923578 l 1
 225.074795297 1373.52923578 l 1
 225.074795297 1200.70756351 l 1
 85.4726800336 1200.70756351 l 1
EndSplineSet
EndChar

StartChar: uni0311
Encoding: 785 785 230
Width: 654
VWidth: 0
Flags: HW
LayerCount: 2
UndoRedoHistory
Layer: 1
Undoes
EndUndoes
Redoes
EndRedoes
EndUndoRedoHistory
Fore
SplineSet
108.876312198 1195.92137308 m 1
 108.876312198 1354.05272412 215.568549234 1433.44486143 321.478427462 1433.44486143 c 0
 428.345160613 1433.44486143 540.429534957 1353.57429666 540.429534957 1195.92137308 c 1
 452.74304535 1195.92137308 l 1
 452.74304535 1288.9252047 392.394053118 1333.40554797 322.652923578 1333.40554797 c 0
 251.694152845 1333.40554797 194.823588075 1289.40363216 194.823588075 1195.92137308 c 1
 108.876312198 1195.92137308 l 1
EndSplineSet
EndChar

StartChar: uni0403
Encoding: 1027 1027 232
Width: 1047
VWidth: 0
Flags: HW
LayerCount: 2
UndoRedoHistory
Layer: 1
Undoes
EndUndoes
Redoes
EndRedoes
EndUndoRedoHistory
Fore
SplineSet
160 0 m 1
 160 1346 l 1
 1008 1346 l 1
 995 1205 l 1
 334 1205 l 1
 334 0 l 1
 160 0 l 1
EndSplineSet
EndChar

StartChar: uni0405
Encoding: 1029 1029 233
Width: 1248
VWidth: 0
Flags: HW
LayerCount: 2
UndoRedoHistory
Layer: 1
Undoes
EndUndoes
Redoes
EndRedoes
EndUndoRedoHistory
Fore
SplineSet
637.319257821 -20.6960686542 m 0
 382.223388621 -20.6960686542 207.654839387 45.5685492337 133.790022045 93.0882059626 c 1
 177.352823851 204.641428721 l 1
 311.097785009 141.596367835 460.617441738 96.9002991812 647.319257821 96.9002991812 c 0
 855.587707327 96.9002991812 971.15817237 191.035481839 971.15817237 388.696068654 c 0
 971.15817237 504.656755196 926.507164602 582.964518161 731.1917384 629.748792778 c 2
 451.011494856 696.835082931 l 2
 257.22530443 742.442945623 132.527319966 838.962602351 132.527319966 1016.39596893 c 0
 132.527319966 1284.65867101 331.744961159 1367.6097785 638.923288894 1367.6097785 c 0
 807.793853664 1367.6097785 958.795769473 1338.78427462 1043.57429666 1283.09012177 c 1
 1007.66633424 1178.84083036 l 1
 911.970265589 1226.23296767 797.013410666 1250.70947932 641.791937854 1250.70947932 c 0
 400.127519421 1250.70947932 269.208062146 1192.70756351 269.208062146 1028.78810624 c 0
 269.208062146 913.521572538 346.125603611 852.302015536 498.048892505 817.51774092 c 1
 768.142845895 758.605946882 l 2
 963.22530443 716.088205963 1106.66441843 618.697984464 1106.66441843 395.784274617 c 0
 1106.66441843 107.911794037 912.274196935 -20.6960686542 637.319257821 -20.6960686542 c 0
EndSplineSet
EndChar

StartChar: uni0406
Encoding: 1030 1030 234
Width: 432
VWidth: 0
Flags: HW
LayerCount: 2
UndoRedoHistory
Layer: 1
Undoes
EndUndoes
Redoes
EndRedoes
EndUndoRedoHistory
Fore
SplineSet
136 0 m 1
 136 1362 l 1
 297 1362 l 1
 297 0 l 1
 136 0 l 1
EndSplineSet
EndChar

StartChar: uni0408
Encoding: 1032 1032 235
Width: 654
VWidth: 0
Flags: HW
LayerCount: 2
UndoRedoHistory
Layer: 1
Undoes
EndUndoes
Redoes
EndRedoes
EndUndoRedoHistory
Fore
SplineSet
161.619357548 -176.943444258 m 0
 153.795769473 -176.943444258 127.70947932 -94.6299338652 119.625104976 -92.8044299811 c 0
 97.4486930506 -89.8475750577 158.630852404 -33.6040310729 146.06421898 -33.6040310729 c 1
 297.424706068 -35.429534957 305.16008818 50.5368990132 311.15817237 145.156256561 c 1
 345.581959899 145.156256561 352.623189166 991.722811253 352.623189166 1030.05839282 c 1
 418.413211211 1347.17449612 l 1
 493.519656729 548.084453076 l 1
 493.519656729 349.97517321 506.086290153 -58.5445622507 267.320255091 -58.5445622507 c 1
 284.322170901 -135.998084191 227.025902792 -173.247375604 161.619357548 -176.943444258 c 0
EndSplineSet
EndChar

StartChar: uni0409
Encoding: 1033 1033 236
Width: 1784
VWidth: 0
Flags: HW
LayerCount: 2
UndoRedoHistory
Layer: 1
Undoes
EndUndoes
Redoes
EndRedoes
EndUndoRedoHistory
Fore
SplineSet
87.1783277346 -25.8705647701 m 1
 87.1783277346 106.731550493 l 1
 118.347076422 105.77469557 l 1
 291.350908041 105.078626916 297.523488348 210.737297921 297.523488348 345.519656729 c 2
 298.480343271 1350.39405312 l 1
 987.519656729 1350.39405312 l 1
 987.519656729 788.823588075 l 1
 1249.09778501 788.823588075 l 2
 1489.0488925 788.823588075 1642.90796242 671.38830569 1642.90796242 385.041229267 c 0
 1642.90796242 127.392137308 1493.22147281 -0.913709846735 1247.44486143 -0.913709846735 c 2
 823.654839387 -0.913709846735 l 1
 831.876312198 1224.9252047 l 1
 453.427619148 1224.9252047 l 1
 450.382558262 392.390221499 l 1
 450.382558262 114.478427462 418.605946882 -25.8705647701 103.303931346 -25.8705647701 c 2
 87.1783277346 -25.8705647701 l 1
982.604031073 124.337497376 m 1
 1242.96451816 124.337497376 l 2
 1384.0469767 124.337497376 1483.00191581 220.862901533 1483.00191581 386.909878228 c 0
 1483.00191581 553.174496116 1389.69990027 661.266533697 1242.96451816 661.266533697 c 2
 982.604031073 661.266533697 l 1
 982.604031073 124.337497376 l 1
EndSplineSet
EndChar

StartChar: uni040A
Encoding: 1034 1034 237
Width: 1853
VWidth: 0
Flags: HW
LayerCount: 2
UndoRedoHistory
Layer: 1
Undoes
EndUndoes
Redoes
EndRedoes
EndUndoRedoHistory
Fore
SplineSet
160 0 m 1
 160 1346 l 1
 334 1346 l 1
 334 768 l 1
 946 768 l 1
 946 1346 l 1
 1120 1346 l 1
 1120 779 l 1
 1340 779 l 2
 1664 779 1792 628 1792 393 c 0
 1792 155 1664 0 1334 0 c 2
 946 0 l 1
 946 630 l 1
 334 630 l 1
 334 0 l 1
 160 0 l 1
1120 129 m 1
 1343 129 l 2
 1529 129 1627 212 1627 392 c 0
 1627 573 1527 653 1335 653 c 2
 1120 653 l 1
 1120 129 l 1
EndSplineSet
EndChar

StartChar: uni040F
Encoding: 1039 1039 239
Width: 1327
VWidth: 0
Flags: HW
LayerCount: 2
UndoRedoHistory
Layer: 1
Undoes
EndUndoes
Redoes
EndRedoes
EndUndoRedoHistory
Fore
SplineSet
601 -275 m 1
 601 0 l 1
 160 0 l 1
 160 1346 l 1
 334 1346 l 1
 334 138 l 1
 993 138 l 1
 993 1346 l 1
 1167 1346 l 1
 1167 0 l 1
 760 0 l 1
 760 -275 l 1
 601 -275 l 1
EndSplineSet
EndChar

StartChar: uni0411
Encoding: 1041 1041 240
Width: 1183
VWidth: 0
Flags: HW
LayerCount: 2
UndoRedoHistory
Layer: 1
Undoes
EndUndoes
Redoes
EndRedoes
EndUndoRedoHistory
Fore
SplineSet
175.050808314 0 m 1
 175.050808314 1348.30584716 l 1
 965.300099727 1348.30584716 l 1
 965.300099727 1231.53306739 l 1
 323.907962419 1231.53306739 l 1
 323.647176149 774.605946882 l 1
 641.654839387 774.605946882 l 2
 982.793853664 774.605946882 1083.99808419 614.078626916 1083.99808419 391.607862692 c 0
 1083.99808419 163.788106236 985.83891455 0 640.092037581 0 c 2
 175.050808314 0 l 1
323.647176149 112.076711106 m 1
 647.917541465 112.076711106 l 2
 844.488006509 112.076711106 933.488006509 199.949191686 933.488006509 389.433366576 c 0
 933.488006509 581.352823851 842.748792778 665.050808314 638.046976695 665.050808314 c 2
 323.647176149 665.050808314 l 1
 323.647176149 112.076711106 l 1
EndSplineSet
EndChar

StartChar: uni0413
Encoding: 1043 1043 242
Width: 976
VWidth: 0
Flags: HW
LayerCount: 2
UndoRedoHistory
Layer: 1
Undoes
EndUndoes
Redoes
EndRedoes
EndUndoRedoHistory
Fore
SplineSet
175.050808314 0 m 1
 175.050808314 1348.30584716 l 1
 1022.57238085 1348.30584716 l 1
 1011.92137308 1220.96643397 l 1
 323.647176149 1220.96643397 l 1
 323.647176149 0 l 1
 175.050808314 0 l 1
EndSplineSet
EndChar

StartChar: uni0414
Encoding: 1044 1044 243
Width: 1368
VWidth: 0
Flags: HW
LayerCount: 2
UndoRedoHistory
Layer: 1
Undoes
EndUndoes
Redoes
EndRedoes
EndUndoRedoHistory
Fore
SplineSet
-38 -275 m 1
 -38 138 l 1
 112 138 l 1
 198 199 223 353 289 1019 c 0
 298 1109 311 1238 321 1346 c 1
 1152 1346 l 1
 1152 138 l 1
 1306 138 l 1
 1306 -275 l 1
 1145 -275 l 1
 1145 0 l 1
 126 0 l 1
 126 -275 l 1
 -38 -275 l 1
317 138 m 1
 978 138 l 1
 978 1205 l 1
 482 1205 l 1
 482 1202 l 1
 476 1142 460 989 456 938 c 1
 410 471 391 257 317 138 c 1
EndSplineSet
EndChar

StartChar: uni0416
Encoding: 1046 1046 245
Width: 1851
VWidth: 0
Flags: HW
LayerCount: 2
UndoRedoHistory
Layer: 1
Undoes
EndUndoes
Redoes
EndRedoes
EndUndoRedoHistory
Fore
SplineSet
95 0 m 1
 692 668 l 1
 166 1346 l 1
 362 1346 l 1
 832 735 l 1
 832 1346 l 1
 1006 1346 l 1
 1006 733 l 1
 1477 1346 l 1
 1673 1346 l 1
 1147 668 l 1
 1744 0 l 1
 1535 0 l 1
 1006 600 l 1
 1006 0 l 1
 832 0 l 1
 832 599 l 1
 304 0 l 1
 95 0 l 1
EndSplineSet
EndChar

StartChar: uni0418
Encoding: 1048 1048 246
Width: 1465
VWidth: 0
Flags: HW
LayerCount: 2
UndoRedoHistory
Layer: 1
Undoes
EndUndoes
Redoes
EndRedoes
EndUndoRedoHistory
Fore
SplineSet
800.425624606 518.291149924 m 1
 886.34556435 673.054035221 971.754787868 827.370256221 1134.58387571 1051.16192526 c 1
 1133.10544825 1046.72664287 1354.8695675 1227.56563615 1351.17349885 1221.65192631 c 1
 1184.35657674 -649.76886941 l 1
 800.425624606 -649.76886941 l 1
 800.425624606 518.291149924 l 1
800.425624606 518.291149924 m 1
 724.860507704 382.179840319 648.900356829 245.723040278 519.531230317 61.3547396599 c 1
 519.531230317 61.3547396599 526.184153895 322.277188747 526.184153895 378.457432291 c 1
 563.146575448 865.527195133 l 1
 710.425420555 1203.77042522 857.127831051 1526.85221965 1001.72572433 1729.74013227 c 1
 1001.72572433 1729.74013227 800.425624606 1444.40363216 800.425624606 1312.08437434 c 2
 800.425624606 518.291149924 l 1
563.146575448 865.527195133 m 1
 372.36465493 427.374023904 180.615473266 -36.2201380787 -8.77944572748 -296.951028763 c 1
 18.342326265 -259.397806005 255.405626706 299.121850724 270.009657779 321.027897334 c 0
 270.531230317 323.374973756 399.066213521 1993.38056372 400.891717405 1996.50999895 c 1
 599.783356078 1348.30584716 l 1
 563.146575448 865.527195133 l 1
EndSplineSet
EndChar

StartChar: uni041B
Encoding: 1051 1051 247
Width: 1248
VWidth: 0
Flags: HW
LayerCount: 2
UndoRedoHistory
Layer: 1
Undoes
EndUndoes
Redoes
EndRedoes
EndUndoRedoHistory
Fore
SplineSet
-30 -46 m 1
 -60 91 l 1
 145 144 160 94 207 1019 c 0
 212 1109 219 1238 224 1346 c 1
 1088 1346 l 1
 1088 0 l 1
 914 0 l 1
 914 1205 l 1
 391 1205 l 1
 389 1148 380 991 378 939 c 0
 337 123 323 -10 -30 -46 c 1
EndSplineSet
EndChar

StartChar: uni041F
Encoding: 1055 1055 249
Width: 1394
VWidth: 0
Flags: HW
LayerCount: 2
UndoRedoHistory
Layer: 1
Undoes
EndUndoes
Redoes
EndRedoes
EndUndoRedoHistory
Fore
SplineSet
175.050808314 0 m 1
 175.050808314 1348.30584716 l 1
 1213.17641193 1348.30584716 l 1
 1213.17641193 0 l 1
 1064.31925782 0 l 1
 1064.31925782 1223.05272412 l 1
 323.647176149 1223.05272412 l 1
 323.647176149 0 l 1
 175.050808314 0 l 1
EndSplineSet
EndChar

StartChar: uni0423
Encoding: 1059 1059 251
Width: 1248
VWidth: 0
Flags: HW
LayerCount: 2
UndoRedoHistory
Layer: 1
Undoes
EndUndoes
Redoes
EndRedoes
EndUndoRedoHistory
Fore
SplineSet
390 0 m 1
 567 424 l 1
 64 1346 l 1
 255 1346 l 1
 670 580 l 1
 1029 1346 l 1
 1217 1346 l 1
 577 0 l 1
 390 0 l 1
EndSplineSet
EndChar

StartChar: uni0424
Encoding: 1060 1060 252
Width: 1557
VWidth: 0
Flags: HW
LayerCount: 2
UndoRedoHistory
Layer: 1
Undoes
EndUndoes
Redoes
EndRedoes
EndUndoRedoHistory
Fore
SplineSet
707.176411925 0 m 1
 707.394053118 109.51774092 l 1
 303.345160613 148.12943523 96.0469766954 351.127519421 96.0469766954 675.215725383 c 0
 96.0469766954 1001.39213731 304.519656729 1204.78235881 707.394053118 1243.39405312 c 1
 707.176411925 1366.78619043 l 1
 826.03165022 1366.78619043 l 1
 826.03165022 1245.61169431 l 1
 1224.38447407 1216.39213731 1454.90221499 1023.65483939 1454.90221499 675.215725383 c 0
 1454.90221499 328.907962419 1223.20997796 137.519656729 826.03165022 108.039313458 c 1
 826.03165022 0 l 1
 707.176411925 0 l 1
707.394053118 236.768948142 m 1
 707.394053118 1117.62127336 l 1
 388.776611379 1081.22722024 243.600199454 923.442945623 243.600199454 675.911794037 c 0
 243.600199454 429.03356603 389.472680034 273.16300126 707.394053118 236.768948142 c 1
826.03165022 235.29052068 m 1
 1161.69415284 268.466932606 1306.87056477 428.772779761 1306.87056477 675.911794037 c 0
 1306.87056477 924.660586815 1160.51965673 1085.92328889 826.03165022 1119.09970082 c 1
 826.03165022 235.29052068 l 1
EndSplineSet
EndChar

StartChar: uni0426
Encoding: 1062 1062 253
Width: 1394
VWidth: 0
Flags: HW
LayerCount: 2
UndoRedoHistory
Layer: 1
Undoes
EndUndoes
Redoes
EndRedoes
EndUndoRedoHistory
Fore
SplineSet
1120 -268.996168381 m 1
 1120.47842746 0 l 1
 175.050808314 0 l 1
 175.050808314 1348.30584716 l 1
 323.647176149 1348.30584716 l 1
 323.647176149 125.253123032 l 1
 969.131351039 125.253123032 l 1
 969.131351039 1348.30584716 l 1
 1117.72771887 1348.30584716 l 1
 1117.72771887 147.48225908 l 1
 1259.55513857 147.48225908 l 1
 1259.55513857 -268.996168381 l 1
 1120 -268.996168381 l 1
EndSplineSet
EndChar

StartChar: uni0427
Encoding: 1063 1063 254
Width: 1002
VWidth: 0
Flags: HW
LayerCount: 2
UndoRedoHistory
Layer: 1
Undoes
EndUndoes
Redoes
EndRedoes
EndUndoRedoHistory
Fore
SplineSet
813.637597103 -3.95877073273 m 1
 813.376810834 443.859069914 l 1
 828.906046609 448.253123032 440.796766744 450.819756456 440.796766744 450.819756456 c 1
 205.414208482 450.819756456 96.5589701869 601.003831619 96.5589701869 819.164917069 c 2
 96.5589701869 1350.39405312 l 1
 256.682657989 1350.39405312 l 1
 256.682657989 853.949191686 l 2
 256.682657989 627.465016796 335.376810834 589.508161873 491.414208482 589.508161873 c 1
 491.414208482 589.508161873 804.046219136 584.96487333 813.637597103 581.714504197 c 1
 813.637597103 1350.39405312 l 1
 969.541727903 1350.39405312 l 1
 969.541727903 -3.95877073273 l 1
 813.637597103 -3.95877073273 l 1
EndSplineSet
EndChar

StartChar: uni0428
Encoding: 1064 1064 255
Width: 1497
VWidth: 0
Flags: HW
LayerCount: 2
UndoRedoHistory
Layer: 1
Undoes
EndUndoes
Redoes
EndRedoes
EndUndoRedoHistory
Fore
SplineSet
144.003831619 0 m 1
 144.003831619 1348.30584716 l 1
 277.076711106 1348.30584716 l 1
 277.076711106 128.949191686 l 1
 674.474595843 128.949191686 l 1
 674.474595843 1348.30584716 l 1
 807.286689062 1348.30584716 l 1
 807.286689062 128.949191686 l 1
 1215.55897019 128.949191686 l 1
 1215.55897019 1348.30584716 l 1
 1348.89263594 1348.30584716 l 1
 1348.89263594 0 l 1
 144.003831619 0 l 1
EndSplineSet
EndChar

StartChar: uni0429
Encoding: 1065 1065 256
Width: 1567
VWidth: 0
Flags: HW
LayerCount: 2
UndoRedoHistory
Layer: 1
Undoes
EndUndoes
Redoes
EndRedoes
EndUndoRedoHistory
Fore
SplineSet
1334.38064245 -268.996168381 m 1
 1334.85906991 0 l 1
 175.050808314 0 l 1
 175.050808314 1348.30584716 l 1
 308.123687802 1348.30584716 l 1
 308.123687802 128.949191686 l 1
 705.521572538 128.949191686 l 1
 705.521572538 1348.30584716 l 1
 838.333665757 1348.30584716 l 1
 838.333665757 128.949191686 l 1
 1246.12751942 128.949191686 l 1
 1246.12751942 1348.30584716 l 1
 1379.93961264 1348.30584716 l 1
 1379.93961264 147.48225908 l 1
 1472.45735356 147.48225908 l 1
 1472.45735356 -268.996168381 l 1
 1334.38064245 -268.996168381 l 1
EndSplineSet
EndChar

StartChar: uni042A
Encoding: 1066 1066 257
Width: 1404
VWidth: 0
Flags: HW
LayerCount: 2
UndoRedoHistory
Layer: 1
Undoes
EndUndoes
Redoes
EndRedoes
EndUndoRedoHistory
Fore
SplineSet
480.668250052 -3.95877073273 m 1
 480.668250052 1223.3154262 l 1
 156.448693051 1223.3154262 l 1
 156.448693051 1350.39405312 l 1
 638.964518161 1350.39405312 l 1
 638.964518161 753.29243649 l 1
 819.872480579 753.29243649 l 2
 1143.26844951 753.29243649 1311.52157254 631.857154105 1311.52157254 375.078626916 c 0
 1311.52157254 118.821672265 1145.69606865 -3.95877073273 821.480343271 -3.95877073273 c 2
 480.668250052 -3.95877073273 l 1
638.964518161 124.380642452 m 1
 840.480343271 124.380642452 l 2
 1095.27036532 124.380642452 1149.22338862 216.03356603 1149.22338862 380.64526034 c 0
 1149.22338862 531.604031073 1082.92328889 626.735382112 838.872480579 626.735382112 c 2
 638.964518161 626.735382112 l 1
 638.964518161 124.380642452 l 1
EndSplineSet
EndChar

StartChar: uni042B
Encoding: 1067 1067 258
Width: 1032
VWidth: 0
Flags: HW
LayerCount: 2
UndoRedoHistory
Layer: 1
Undoes
EndUndoes
Redoes
EndRedoes
EndUndoRedoHistory
Fore
SplineSet
149 0 m 1
 149 1346 l 1
 324 1346 l 1
 324 773 l 1
 454 773 l 2
 776 773 949 634 949 387 c 0
 949 149 781 0 441 0 c 2
 149 0 l 1
324 141 m 1
 459 141 l 2
 689 141 774 223 774 383 c 0
 774 537 692 633 453 633 c 2
 324 633 l 1
 324 141 l 1
EndSplineSet
EndChar

StartChar: uni042E
Encoding: 1070 1070 259
Width: 2007
VWidth: 0
Flags: HW
LayerCount: 2
UndoRedoHistory
Layer: 1
Undoes
EndUndoes
Redoes
EndRedoes
EndUndoRedoHistory
Fore
SplineSet
1176.47842746 -22.1744961159 m 0
 817.174496116 -22.1744961159 606.825503884 271.480343271 582.956854923 632.092037581 c 1
 274.03165022 632.092037581 l 1
 274.03165022 -2.56663342431 l 1
 130.823588075 -2.56663342431 l 1
 130.823588075 1366.48225908 l 1
 274.03165022 1366.48225908 l 1
 274.03165022 755.51774092 l 1
 585.956854923 755.51774092 l 1
 611.172580307 1132.95877073 813.868648961 1393.30776296 1166.34707642 1393.30776296 c 0
 1545.47651165 1393.30776296 1770.65292358 1087.78619043 1770.65292358 675.913709847 c 0
 1770.65292358 293.696068654 1556.82550388 -22.1744961159 1176.47842746 -22.1744961159 c 0
1179.17449612 101.251207222 m 0
 1470.74496116 101.251207222 1618.61935755 371.996168381 1618.61935755 681.913709847 c 0
 1618.61935755 975.003831619 1470.22338862 1269.40363216 1168.30393135 1269.40363216 c 0
 876.776611379 1269.40363216 732.076711106 984.874396389 732.076711106 679.696068654 c 0
 732.076711106 331.490919588 884.472680034 101.251207222 1179.17449612 101.251207222 c 0
EndSplineSet
EndChar

StartChar: uni0431
Encoding: 1073 1073 261
Width: 992
VWidth: 0
Flags: HW
LayerCount: 2
UndoRedoHistory
Layer: 1
Undoes
EndUndoes
Redoes
EndRedoes
EndUndoRedoHistory
Fore
SplineSet
523.827419693 -18.4784274617 m 0
 105.984673525 -18.4784274617 96.525404157 402.638515641 96.525404157 485.174496116 c 0
 96.525404157 875.558970187 287.080542725 1128.77277976 815.701816082 1153.16683288 c 1
 827.045060886 1043.87439639 l 1
 547.83699874 1032.78619043 309.558970187 946.497585555 250.727718875 666.339413185 c 1
 358.823588075 723.255038841 426.727718875 773.345160613 564.131351039 773.345160613 c 0
 793.521572538 773.345160613 912.472680034 567.03356603 912.472680034 394.607862692 c 0
 912.472680034 169.264617888 764.12943523 -18.4784274617 523.827419693 -18.4784274617 c 0
519.305847155 96.4688484149 m 0
 716.83699874 96.4688484149 792.22530443 199.211893764 792.22530443 401.566633424 c 0
 792.22530443 553.001915809 694.615525929 668.052724123 555.003831619 668.052724123 c 0
 500.266533697 668.052724123 362.480343271 645.621273357 251.558970187 535.656755196 c 1
 215.337497376 220.682657989 376.394053118 96.4688484149 519.305847155 96.4688484149 c 0
EndSplineSet
EndChar

StartChar: uni0432
Encoding: 1074 1074 262
Width: 1060
VWidth: 0
Flags: HW
LayerCount: 2
UndoRedoHistory
Layer: 1
Undoes
EndUndoes
Redoes
EndRedoes
EndUndoRedoHistory
Fore
SplineSet
166.617441738 0 m 1
 166.617441738 995.302015536 l 1
 605.570465043 995.302015536 l 2
 849.574296662 995.302015536 932.001915809 874.211893764 932.001915809 751.001915809 c 0
 932.001915809 643.825503884 885.827419693 574.217641193 746.125603611 533.478427462 c 1
 914.829335503 497.478427462 965.394053118 371.823588075 965.654839387 285.694152845 c 0
 965.654839387 146.048892505 881.662502624 0 600.654839387 0 c 2
 166.617441738 0 l 1
320.476511652 107.164917069 m 1
 591.652923578 107.164917069 l 2
 768.662502624 107.164917069 803.313510393 175.77469557 803.313510393 288.823588075 c 0
 803.791937854 368.303931346 784.664418434 459.61169431 610.872480579 459.61169431 c 2
 320.476511652 459.61169431 l 1
 320.476511652 107.164917069 l 1
320.476511652 574.431450766 m 1
 605.829335503 574.431450766 l 2
 738.791937854 574.431450766 770.139014277 653.086290153 770.139014277 727.262702079 c 0
 770.139014277 816.266533697 723.050808314 882.746876968 590.305847155 882.746876968 c 2
 320.476511652 882.746876968 l 1
 320.476511652 574.431450766 l 1
EndSplineSet
EndChar

StartChar: uni0433
Encoding: 1075 1075 263
Width: 904
VWidth: 0
Flags: HW
LayerCount: 2
UndoRedoHistory
Layer: 1
Undoes
EndUndoes
Redoes
EndRedoes
EndUndoRedoHistory
Fore
SplineSet
166.617441738 0 m 1
 166.617441738 995.302015536 l 1
 838.632768213 995.302015536 l 1
 824.587707327 891.442945623 l 1
 320.476511652 891.442945623 l 1
 320.476511652 0 l 1
 166.617441738 0 l 1
EndSplineSet
EndChar

StartChar: uni0434
Encoding: 1076 1076 264
Width: 1134
VWidth: 0
Flags: HW
LayerCount: 2
UndoRedoHistory
Layer: 1
Undoes
EndUndoes
Redoes
EndRedoes
EndUndoRedoHistory
Fore
SplineSet
49.6979844636 -268.735382112 m 1
 49.6979844636 103.076711106 l 1
 140.74304535 103.076711106 l 1
 213.048892505 146.721971447 242.480343271 257.100698089 268.874396389 385.438195465 c 1
 367.536899013 995.302015536 l 1
 974.480343271 995.302015536 l 1
 974.480343271 103.076711106 l 1
 1044.780443 103.076711106 l 1
 1044.780443 -268.735382112 l 1
 916.746876968 -268.735382112 l 1
 920.96643397 0 l 1
 169.03356603 0 l 1
 171.382558262 -268.735382112 l 1
 49.6979844636 -268.735382112 l 1
304.860985723 102.380642452 m 1
 819.664418434 102.380642452 l 1
 819.664418434 893.531151585 l 1
 493.219557002 893.531151585 l 1
 493.697984464 901.840830359 423.647176149 440.020155364 423.647176149 440.020155364 c 1
 394.123687802 261.633765484 341.253123032 126.114108755 304.860985723 102.380642452 c 1
EndSplineSet
EndChar

StartChar: uni0434.copy_1
Encoding: 65539 -1 265
Width: 1108
VWidth: 0
Flags: HW
LayerCount: 2
UndoRedoHistory
Layer: 1
Undoes
EndUndoes
Redoes
EndRedoes
EndUndoRedoHistory
Fore
SplineSet
39 -275 m 1
 39 120 l 1
 127 120 l 1
 196 175 232 306 253 451 c 2
 331 999 l 1
 970 999 l 1
 970 120 l 1
 1049 120 l 1
 1049 -275 l 1
 901 -275 l 1
 901 0 l 1
 183 0 l 1
 183 -275 l 1
 39 -275 l 1
316 120 m 1
 795 120 l 1
 795 878 l 1
 483 878 l 1
 428 478 l 2
 402 292 351 153 316 120 c 1
EndSplineSet
EndChar

StartChar: uni0436
Encoding: 1078 1078 267
Width: 1424
VWidth: 0
Flags: HW
LayerCount: 2
UndoRedoHistory
Layer: 1
Undoes
EndUndoes
Redoes
EndRedoes
EndUndoRedoHistory
Fore
SplineSet
45.0038316187 0 m 1
 521.491838127 510.521572538 l 1
 51.6548393869 995.302015536 l 1
 200.725803065 995.302015536 l 1
 631.917541465 537.949191686 l 1
 631.917541465 995.302015536 l 1
 781.604031073 995.302015536 l 1
 781.604031073 537.949191686 l 1
 1215.49183813 995.302015536 l 1
 1363.34516061 995.302015536 l 1
 893.986589334 510.521572538 l 1
 1369.99616838 0 l 1
 1214.61935755 0 l 1
 781.604031073 470.441029813 l 1
 781.604031073 0 l 1
 631.917541465 0 l 1
 631.917541465 470.441029813 l 1
 200.859069914 0 l 1
 45.0038316187 0 l 1
EndSplineSet
EndChar

StartChar: uni0437
Encoding: 1079 1079 268
Width: 862
VWidth: 0
Flags: HW
LayerCount: 2
UndoRedoHistory
Layer: 1
Undoes
EndUndoes
Redoes
EndRedoes
EndUndoRedoHistory
Fore
SplineSet
394.431450766 -18 m 0
 298.872480579 -18 192.092037581 -0.262702078522 106.917541465 67.9117940374 c 1
 137.219557002 181.64526034 l 1
 191.87056477 137.166832878 300.303931346 98.77469557 391.821672265 98.77469557 c 0
 516.776611379 98.77469557 608.172580307 174.647176149 608.172580307 278.38830569 c 0
 608.172580307 372.435282385 552.651007768 465.570465043 376.686489607 465.570465043 c 2
 272.219557002 465.570465043 l 1
 272.219557002 571.605946882 l 1
 376.686489607 571.605946882 l 2
 522.170664497 571.605946882 590.043145077 648.478427462 590.043145077 730.394053118 c 0
 590.043145077 834.48417489 519.780442998 899.878228008 379.170664497 899.878228008 c 0
 291.523488348 899.878228008 198.394053118 863.529235776 135.523488348 818.137098467 c 1
 135.523488348 818.137098467 112.266533697 885.125603611 96.0038316187 924.303931346 c 1
 180.221472811 996.609778501 296.174496116 1022.26270208 399.651007768 1022.26270208 c 0
 658.654839387 1022.26270208 728.729634684 876.604031073 728.729634684 747.088205963 c 0
 728.729634684 663.262702079 707.731550493 567.174496116 570.204230527 522.478427462 c 1
 705.77469557 479.521572538 763.078626916 377.12943523 762.860985723 266.041229267 c 0
 762.860985723 121.962602351 618.300099727 -18 394.431450766 -18 c 0
EndSplineSet
EndChar

StartChar: uni0438
Encoding: 1080 1080 269
Width: 1074
VWidth: 0
Flags: HW
LayerCount: 2
UndoRedoHistory
Layer: 1
Undoes
EndUndoes
Redoes
EndRedoes
EndUndoRedoHistory
Fore
SplineSet
142.223388621 0 m 1
 142.223388621 995.302015536 l 1
 271.733466303 995.302015536 l 1
 271.733466303 206.720055637 l 1
 797.397884737 904.521572538 l 1
 797.397884737 995.302015536 l 1
 927.604031073 995.302015536 l 1
 927.604031073 0 l 1
 797.397884737 0 l 1
 797.397884737 706.581959899 l 1
 265.778527189 0 l 1
 142.223388621 0 l 1
EndSplineSet
EndChar

StartChar: uni043A
Encoding: 1082 1082 270
Width: 1086
VWidth: 0
Flags: HW
LayerCount: 2
UndoRedoHistory
Layer: 1
Undoes
EndUndoes
Redoes
EndRedoes
EndUndoRedoHistory
Fore
SplineSet
166.617441738 0 m 1
 166.617441738 995.302015536 l 1
 320.476511652 995.302015536 l 1
 320.476511652 543.475690373 l 1
 334.243008 561.980731252 735.352823851 993.345160613 735.352823851 993.345160613 c 1
 925.906046609 994.302015536 l 1
 925.906046609 994.302015536 451.859069914 491.341328994 461.733466303 498.737297921 c 1
 977.080542725 0 l 1
 792.0958692 0 l 1
 320.476511652 453.574296662 l 1
 320.476511652 0 l 1
 166.617441738 0 l 1
EndSplineSet
EndChar

StartChar: uni043B
Encoding: 1083 1083 271
Width: 1143
VWidth: 0
Flags: HW
LayerCount: 2
UndoRedoHistory
Layer: 1
Undoes
EndUndoes
Redoes
EndRedoes
EndUndoRedoHistory
Fore
SplineSet
74.7018160823 -11.4333665757 m 1
 76.7900220449 -11.6941528448 59.5273199664 104.121771992 59.5273199664 104.121771992 c 1
 206.790022045 101.337497376 249.315426202 179.821672265 302.538814823 500.83891455 c 1
 397.15817237 995.302015536 l 1
 971.474595843 995.302015536 l 1
 971.474595843 -0.478427461684 l 1
 817.876312198 -0.478427461684 l 1
 817.876312198 883.442945623 l 1
 522.144761705 883.442945623 l 1
 445.266533697 475.317342011 l 1
 392.043145077 183.444861432 352.748792778 -13.7823588075 74.7018160823 -11.4333665757 c 1
EndSplineSet
EndChar

StartChar: uni043B.copy_1
Encoding: 65541 -1 272
Width: 1128
VWidth: 0
Flags: HW
LayerCount: 2
UndoRedoHistory
Layer: 1
Undoes
EndUndoes
Redoes
EndRedoes
EndUndoRedoHistory
Fore
SplineSet
62 -14 m 1
 48 118 l 1
 192 118 227 187 268 480 c 2
 341 999 l 1
 979 999 l 1
 979 0 l 1
 804 0 l 1
 804 870 l 1
 493 870 l 1
 434 454 l 2
 393 167 333 -14 62 -14 c 1
EndSplineSet
EndChar

StartChar: uni043C
Encoding: 1084 1084 273
Width: 1180
VWidth: 0
Flags: HW
LayerCount: 2
UndoRedoHistory
Layer: 1
Undoes
EndUndoes
Redoes
EndRedoes
EndUndoRedoHistory
Fore
SplineSet
166.617441738 0 m 1
 166.617441738 995.302015536 l 1
 299.172580307 995.302015536 l 1
 586.652923578 336.100698089 l 1
 875.872480579 995.302015536 l 1
 1007.42761915 995.302015536 l 1
 1007.42761915 0 l 1
 877.221472811 0 l 1
 877.221472811 730.011494856 l 1
 642.131351039 181.855238295 l 1
 547.697984464 181.855238295 l 1
 296.127519421 729.750708587 l 1
 296.127519421 0 l 1
 166.617441738 0 l 1
EndSplineSet
EndChar

StartChar: uni043C.copy_1
Encoding: 65542 -1 274
Width: 1171
VWidth: 0
Flags: HW
LayerCount: 2
UndoRedoHistory
Layer: 1
Undoes
EndUndoes
Redoes
EndRedoes
EndUndoRedoHistory
Fore
SplineSet
149 0 m 1
 149 999 l 1
 302 999 l 1
 585 385 l 1
 870 999 l 1
 1022 999 l 1
 1022 0 l 1
 869 0 l 1
 869 711 l 1
 640 205 l 1
 543 205 l 1
 302 711 l 1
 302 0 l 1
 149 0 l 1
EndSplineSet
EndChar

StartChar: uni043D
Encoding: 1085 1085 275
Width: 1171
VWidth: 0
Flags: HW
LayerCount: 2
UndoRedoHistory
Layer: 1
Undoes
EndUndoes
Redoes
EndRedoes
EndUndoRedoHistory
Fore
SplineSet
166.617441738 0 m 1
 166.617441738 995.302015536 l 1
 320.476511652 995.302015536 l 1
 320.476511652 583.341328994 l 1
 845.099700819 583.341328994 l 1
 845.099700819 995.302015536 l 1
 998.697984464 995.302015536 l 1
 998.697984464 0 l 1
 845.099700819 0 l 1
 845.099700819 475.61169431 l 1
 320.476511652 475.61169431 l 1
 320.476511652 0 l 1
 166.617441738 0 l 1
EndSplineSet
EndChar

StartChar: uni043D.copy_1
Encoding: 65543 -1 276
Width: 1104
VWidth: 0
Flags: HW
LayerCount: 2
UndoRedoHistory
Layer: 1
Undoes
EndUndoes
Redoes
EndRedoes
EndUndoRedoHistory
Fore
SplineSet
130 0 m 1
 130 999 l 1
 305 999 l 1
 305 594 l 1
 800 594 l 1
 800 999 l 1
 975 999 l 1
 975 0 l 1
 800 0 l 1
 800 471 l 1
 305 471 l 1
 305 0 l 1
 130 0 l 1
EndSplineSet
EndChar

StartChar: uni043F
Encoding: 1087 1087 278
Width: 1069
VWidth: 0
Flags: HW
LayerCount: 2
UndoRedoHistory
Layer: 1
Undoes
EndUndoes
Redoes
EndRedoes
EndUndoRedoHistory
Fore
SplineSet
139.874396389 0 m 1
 139.874396389 995.302015536 l 1
 924.298183918 995.302015536 l 1
 924.298183918 0 l 1
 799.268449507 0 l 1
 799.268449507 880.876312198 l 1
 265.382558262 880.876312198 l 1
 265.382558262 0 l 1
 139.874396389 0 l 1
EndSplineSet
EndChar

StartChar: uni0440
Encoding: 1088 1088 279
Width: 1199
VWidth: 0
Flags: HW
LayerCount: 2
UndoRedoHistory
Layer: 1
Undoes
EndUndoes
Redoes
EndRedoes
EndUndoRedoHistory
Fore
SplineSet
133.696068654 -438.307762965 m 1
 133.696068654 993.345160613 l 1
 273.600199454 993.345160613 l 1
 289.686489607 818.772779761 l 1
 343.511993491 947.909878228 471.860985723 1014.38830569 610.949191686 1014.38830569 c 0
 899.605946882 1014.38830569 1063.34707642 798.607862692 1063.34707642 489.345160613 c 0
 1063.34707642 193.694152845 878.778527189 -21.6960686542 618.778527189 -21.6960686542 c 0
 481.602115263 -21.6960686542 346.206146336 46.480343271 280.684573798 144.092037581 c 1
 285.16300126 73.9587707327 285.684573798 5.60786269158 285.684573798 -63.7881062356 c 2
 285.684573798 -429.003831619 l 1
 133.696068654 -438.307762965 l 1
596.651007768 91.0335660298 m 0
 806.921373084 91.0335660298 911.619357548 254.039313458 911.619357548 496.519656729 c 0
 911.619357548 731.215725383 812.791937854 900.180243544 599.303931346 900.180243544 c 0
 372.380642452 900.180243544 285.684573798 743.911794037 285.902214991 512.998084191 c 0
 285.902214991 252.605946882 360.988505144 91.0335660298 596.651007768 91.0335660298 c 0
EndSplineSet
EndChar

StartChar: uni0442
Encoding: 1090 1090 280
Width: 912
VWidth: 0
Flags: HW
LayerCount: 2
UndoRedoHistory
Layer: 1
Undoes
EndUndoes
Redoes
EndRedoes
EndUndoRedoHistory
Fore
SplineSet
374.923288894 0 m 1
 374.923288894 877.656755196 l 1
 94.6625026244 877.656755196 l 1
 94.6625026244 995.302015536 l 1
 812.523488348 995.302015536 l 1
 812.523488348 877.656755196 l 1
 531.131351039 877.656755196 l 1
 531.131351039 0 l 1
 374.923288894 0 l 1
EndSplineSet
EndChar

StartChar: uni0443
Encoding: 1091 1091 281
Width: 1025
VWidth: 0
Flags: HW
LayerCount: 2
UndoRedoHistory
Layer: 1
Undoes
EndUndoes
Redoes
EndRedoes
EndUndoRedoHistory
Fore
SplineSet
100.699900273 -275.555138568 m 1
 101.050808314 -148.345160613 l 1
 528.316344741 -181.609778501 510.630852404 95.6835765274 524.364318707 125.835082931 c 1
 70.7919378543 993.823588075 l 1
 237.651007768 993.823588075 l 1
 583.313510393 260.555138568 l 1
 832.446777241 993.823588075 l 1
 992.478427462 993.823588075 l 1
 636.221472811 56.4448614319 l 1
 585.748792778 -86.0633004409 546.445779971 -297.731550493 100.699900273 -275.555138568 c 1
EndSplineSet
EndChar

